/* XPM */
static char * bg_panel_sensors_1_xpm[] = {
"60 14 157 2",
"  	c None",
". 	c #000000",
"+ 	c #313435",
"@ 	c #545B5C",
"# 	c #565C5E",
"$ 	c #586061",
"% 	c #596364",
"& 	c #5D6466",
"* 	c #5E6567",
"= 	c #606768",
"- 	c #62686A",
"; 	c #656A6B",
"> 	c #656D6F",
", 	c #686F70",
"' 	c #687173",
") 	c #697274",
"! 	c #6A7375",
"~ 	c #6B7476",
"{ 	c #6D7576",
"] 	c #6E7677",
"^ 	c #6E7878",
"/ 	c #6F7879",
"( 	c #70797A",
"_ 	c #717A7B",
": 	c #727B7C",
"< 	c #737D7D",
"[ 	c #737F7F",
"} 	c #757F7F",
"| 	c #768080",
"1 	c #737C7D",
"2 	c #707878",
"3 	c #6F7778",
"4 	c #6B7576",
"5 	c #5C6265",
"6 	c #5A6163",
"7 	c #585F61",
"8 	c #575D5F",
"9 	c #555B5D",
"0 	c #323437",
"a 	c #353739",
"b 	c #38393C",
"c 	c #3B3F40",
"d 	c #3D4042",
"e 	c #3F4244",
"f 	c #404447",
"g 	c #444648",
"h 	c #45484B",
"i 	c #484B4D",
"j 	c #4A4D4F",
"k 	c #4B5052",
"l 	c #4E5355",
"m 	c #505557",
"n 	c #515558",
"o 	c #535859",
"p 	c #54585A",
"q 	c #545A5C",
"r 	c #575E5F",
"s 	c #585F60",
"t 	c #596062",
"u 	c #5B6364",
"v 	c #5C6465",
"w 	c #5E6667",
"x 	c #5D6566",
"y 	c #5B6566",
"z 	c #5A6465",
"A 	c #596162",
"B 	c #55595B",
"C 	c #535759",
"D 	c #525658",
"E 	c #4F5456",
"F 	c #4D5254",
"G 	c #4C4F51",
"H 	c #494C4E",
"I 	c #484A4C",
"J 	c #454849",
"K 	c #414648",
"L 	c #404345",
"M 	c #3B3D40",
"N 	c #383B3D",
"O 	c #37383B",
"P 	c #343638",
"Q 	c #1D1F1F",
"R 	c #505758",
"S 	c #5B686C",
"T 	c #616B6C",
"U 	c #616D70",
"V 	c #647071",
"W 	c #667171",
"X 	c #677274",
"Y 	c #697576",
"Z 	c #6B7678",
"` 	c #6E7979",
" .	c #6E7A7B",
"..	c #707C7D",
"+.	c #727C7F",
"@.	c #727D81",
"#.	c #737F84",
"$.	c #758086",
"%.	c #778288",
"&.	c #788389",
"*.	c #7D878A",
"=.	c #7E898D",
"-.	c #808A8D",
";.	c #838C8E",
">.	c #848E91",
",.	c #878F92",
"'.	c #8A9193",
").	c #8A9497",
"!.	c #8C9597",
"~.	c #8D969A",
"{.	c #90989B",
"].	c #787A7C",
"^.	c #515859",
"/.	c #2E3233",
"(.	c #2F3334",
"_.	c #77797B",
":.	c #777B7D",
"<.	c #787C7E",
"[.	c #787D7F",
"}.	c #7A8081",
"|.	c #7A8183",
"1.	c #7B8284",
"2.	c #7D8586",
"3.	c #7E8687",
"4.	c #7F8788",
"5.	c #808888",
"6.	c #828A8A",
"7.	c #838D8D",
"8.	c #848E8E",
"9.	c #858F8F",
"0.	c #879191",
"a.	c #889393",
"b.	c #899494",
"c.	c #8B9696",
"d.	c #8B9897",
"e.	c #8D9998",
"f.	c #8F9B9A",
"g.	c #909C9A",
"h.	c #909E9C",
"i.	c #929E9D",
"j.	c #93A19F",
"k.	c #94A2A0",
"l.	c #919D9B",
"m.	c #8E9A99",
"n.	c #8C9898",
"o.	c #8A9796",
"p.	c #8A9595",
"q.	c #889292",
"r.	c #869090",
"s.	c #828B8C",
"t.	c #818889",
"u.	c #7F8688",
"v.	c #7D8486",
"w.	c #7C8385",
"x.	c #798082",
"y.	c #797F80",
"z.	c #787E7F",
". . + @ # $ % & * = - ; > , ' ) ! ~ { ] ^ / ( _ : < [ } } } | } } [ 1 : _ ( 2 3 ] { 4 ) ) ' , > ; - = * 5 6 7 8 9 + . . ",
". + 0 a b c d e f g h i j k l m n o p p q 9 r s 7 t u v & * w x y z % A $ 8 # 9 B p C D n E F G H I J K L d M N O P + . ",
"Q R 0 S T U V W X Y Z `  ...+.@.#.$.%.&.*.=.-.;.>.,.'.).!.~.{.~.!.).'.,.>.;.-.=.*.&.%.$.#.@.+... .` Z Y X W V U T ].^.Q ",
"/.R 0 S T U V W X Y Z `  ...+.@.#.$.%.&.*.=.-.;.>.,.'.).!.~.{.~.!.).'.,.>.;.-.=.*.&.%.$.#.@.+... .` Z Y X W V U T ].^.(.",
"/.R 0 S T U V W X Y Z `  ...+.@.#.$.%.&.*.=.-.;.>.,.'.).!.~.{.~.!.).'.,.>.;.-.=.*.&.%.$.#.@.+... .` Z Y X W V U T ].^.(.",
"/.R 0 S T U V W X Y Z `  ...+.@.#.$.%.&.*.=.-.;.>.,.'.).!.~.{.~.!.).'.,.>.;.-.=.*.&.%.$.#.@.+... .` Z Y X W V U T ].^.(.",
"/.R 0 S T U V W X Y Z `  ...+.@.#.$.%.&.*.=.-.;.>.,.'.).!.~.{.~.!.).'.,.>.;.-.=.*.&.%.$.#.@.+... .` Z Y X W V U T ].^.(.",
"/.R 0 S T U V W X Y Z `  ...+.@.#.$.%.&.*.=.-.;.>.,.'.).!.~.{.~.!.).'.,.>.;.-.=.*.&.%.$.#.@.+... .` Z Y X W V U T ].^.(.",
"/.R 0 S T U V W X Y Z `  ...+.@.#.$.%.&.*.=.-.;.>.,.'.).!.~.{.~.!.).'.,.>.;.-.=.*.&.%.$.#.@.+... .` Z Y X W V U T ].^.(.",
"/.R 0 S T U V W X Y Z `  ...+.@.#.$.%.&.*.=.-.;.>.,.'.).!.~.{.~.!.).'.,.>.;.-.=.*.&.%.$.#.@.+... .` Z Y X W V U T ].^.(.",
"/.R 0 S T U V W X Y Z `  ...+.@.#.$.%.&.*.=.-.;.>.,.'.).!.~.{.~.!.).'.,.>.;.-.=.*.&.%.$.#.@.+... .` Z Y X W V U T ].^.(.",
"Q R 0 S T U V W X Y Z `  ...+.@.#.$.%.&.*.=.-.;.>.,.'.).!.~.{.~.!.).'.,.>.;.-.=.*.&.%.$.#.@.+... .` Z Y X W V U T ].^.Q ",
". + _.:.<.[.}.|.1.2.3.4.5.6.6.7.8.9.0.a.b.c.d.d.e.f.g.h.i.j.k.j.i.l.f.m.n.d.o.p.b.q.r.9.8.s.6.t.5.u.v.w.|.x.y.z.:.].+ . ",
". . + @ # $ % & * = - ; > , ' ) ! ~ { ] ^ / ( _ : < [ } } } | } } [ 1 : _ ( 2 3 ] { 4 ) ) ' , > ; - = * 5 6 7 8 9 + . . "};
