/* XPM */
static char * bg_volt_xpm[] = {
"30 14 66 1",
" 	c None",
".	c #4C5354",
"+	c #4B4E51",
"@	c #4C5152",
"#	c #4D5153",
"$	c #4D5355",
"%	c #4E5456",
"&	c #505758",
"*	c #515858",
"=	c #515859",
"-	c #52585A",
";	c #545B5C",
">	c #555C5D",
",	c #565C5E",
"'	c #575D5F",
")	c #575E5F",
"!	c #565D5E",
"~	c #545D5E",
"{	c #535C5D",
"]	c #525B5C",
"^	c #52595A",
"/	c #505658",
"(	c #4F5557",
"_	c #4E5254",
":	c #4C5052",
"<	c #4C4F51",
"[	c #848F8F",
"}	c #6A7375",
"|	c #6B7476",
"1	c #6D7576",
"2	c #6E7677",
"3	c #6E7878",
"4	c #6F7879",
"5	c #70797A",
"6	c #717A7B",
"7	c #727B7C",
"8	c #737D7D",
"9	c #737F7F",
"0	c #757F7F",
"a	c #768080",
"b	c #737C7D",
"c	c #707878",
"d	c #6F7778",
"e	c #6B7576",
"f	c #697274",
"g	c #8C9595",
"h	c #8D9696",
"i	c #8F9898",
"j	c #8F9A9A",
"k	c #909B9B",
"l	c #929D9D",
"m	c #929E9E",
"n	c #949F9E",
"o	c #96A1A0",
"p	c #97A2A0",
"q	c #97A4A2",
"r	c #99A4A3",
"s	c #9AA7A5",
"t	c #9BA8A6",
"u	c #98A3A1",
"v	c #95A09F",
"w	c #939E9E",
"x	c #919E9D",
"y	c #919C9C",
"z	c #8F9999",
"A	c #8E9797",
".+@##$%&*=-;>,')!~{]^=/(%_#:<[",
".}|123456789000a009b765cd21ef[",
".}|123456789000a009b765cd21ef[",
".}|123456789000a009b765cd21ef[",
".}|123456789000a009b765cd21ef[",
".}|123456789000a009b765cd21ef[",
".}|123456789000a009b765cd21ef[",
".}|123456789000a009b765cd21ef[",
".}|123456789000a009b765cd21ef[",
".}|123456789000a009b765cd21ef[",
".}|123456789000a009b765cd21ef[",
".}|123456789000a009b765cd21ef[",
".}|123456789000a009b765cd21ef[",
".ghijklmmnopqrstsruovwmxykzAh["};
