/* XPM */
static char * bg_panel_pmu_1_xpm[] = {
"60 14 34 1",
" 	c None",
".	c #211E1A",
"+	c #5C5A4D",
"@	c #676456",
"#	c #5B686C",
"$	c #616B6C",
"%	c #616D70",
"&	c #647071",
"*	c #667171",
"=	c #677274",
"-	c #697576",
";	c #6B7678",
">	c #6E7979",
",	c #6E7A7B",
"'	c #707C7D",
")	c #727C7F",
"!	c #727D81",
"~	c #737F84",
"{	c #758086",
"]	c #778288",
"^	c #788389",
"/	c #7D878A",
"(	c #7E898D",
"_	c #808A8D",
":	c #838C8E",
"<	c #848E91",
"[	c #878F92",
"}	c #8A9193",
"|	c #8A9497",
"1	c #8C9597",
"2	c #8D969A",
"3	c #90989B",
"4	c #615E50",
"5	c #514F42",
".+@#$%&*=-;>,')!~{]^/(_:<[}|12321|}[<:_(/^]{~!)',>;-=*&%$45.",
".+@#$%&*=-;>,')!~{]^/(_:<[}|12321|}[<:_(/^]{~!)',>;-=*&%$45.",
".+@#$%&*=-;>,')!~{]^/(_:<[}|12321|}[<:_(/^]{~!)',>;-=*&%$45.",
".+@#$%&*=-;>,')!~{]^/(_:<[}|12321|}[<:_(/^]{~!)',>;-=*&%$45.",
".+@#$%&*=-;>,')!~{]^/(_:<[}|12321|}[<:_(/^]{~!)',>;-=*&%$45.",
".+@#$%&*=-;>,')!~{]^/(_:<[}|12321|}[<:_(/^]{~!)',>;-=*&%$45.",
".+@#$%&*=-;>,')!~{]^/(_:<[}|12321|}[<:_(/^]{~!)',>;-=*&%$45.",
".+@#$%&*=-;>,')!~{]^/(_:<[}|12321|}[<:_(/^]{~!)',>;-=*&%$45.",
".+@#$%&*=-;>,')!~{]^/(_:<[}|12321|}[<:_(/^]{~!)',>;-=*&%$45.",
".+@#$%&*=-;>,')!~{]^/(_:<[}|12321|}[<:_(/^]{~!)',>;-=*&%$45.",
".+@#$%&*=-;>,')!~{]^/(_:<[}|12321|}[<:_(/^]{~!)',>;-=*&%$45.",
".+@#$%&*=-;>,')!~{]^/(_:<[}|12321|}[<:_(/^]{~!)',>;-=*&%$45.",
".+@#$%&*=-;>,')!~{]^/(_:<[}|12321|}[<:_(/^]{~!)',>;-=*&%$45.",
".+@#$%&*=-;>,')!~{]^/(_:<[}|12321|}[<:_(/^]{~!)',>;-=*&%$45."};
