/* XPM */
static char * bg_panel_pmu_xpm[] = {
"60 14 34 1",
" 	c None",
".	c #1E1E1E",
"+	c #545754",
"@	c #5E615E",
"#	c #536676",
"$	c #586A77",
"%	c #586B7B",
"&	c #5B6E7C",
"*	c #5D6F7C",
"=	c #5E6F7F",
"-	c #607381",
";	c #627383",
">	c #657784",
",	c #657886",
"'	c #677A88",
")	c #69798A",
"!	c #697A8C",
"~	c #6A7C8F",
"{	c #6D7D90",
"]	c #6F7F92",
"^	c #708093",
"/	c #758494",
"(	c #768697",
"_	c #788797",
":	c #7B8998",
"<	c #7C8B9B",
"[	c #7E8D9D",
"}	c #818F9E",
"|	c #8291A1",
"1	c #8492A1",
"2	c #8594A4",
"3	c #8896A5",
"4	c #575B57",
"5	c #494C49",
".+@#$%&*=-;>,')!~{]^/(_:<[}|12321|}[<:_(/^]{~!)',>;-=*&%$45.",
".+@#$%&*=-;>,')!~{]^/(_:<[}|12321|}[<:_(/^]{~!)',>;-=*&%$45.",
".+@#$%&*=-;>,')!~{]^/(_:<[}|12321|}[<:_(/^]{~!)',>;-=*&%$45.",
".+@#$%&*=-;>,')!~{]^/(_:<[}|12321|}[<:_(/^]{~!)',>;-=*&%$45.",
".+@#$%&*=-;>,')!~{]^/(_:<[}|12321|}[<:_(/^]{~!)',>;-=*&%$45.",
".+@#$%&*=-;>,')!~{]^/(_:<[}|12321|}[<:_(/^]{~!)',>;-=*&%$45.",
".+@#$%&*=-;>,')!~{]^/(_:<[}|12321|}[<:_(/^]{~!)',>;-=*&%$45.",
".+@#$%&*=-;>,')!~{]^/(_:<[}|12321|}[<:_(/^]{~!)',>;-=*&%$45.",
".+@#$%&*=-;>,')!~{]^/(_:<[}|12321|}[<:_(/^]{~!)',>;-=*&%$45.",
".+@#$%&*=-;>,')!~{]^/(_:<[}|12321|}[<:_(/^]{~!)',>;-=*&%$45.",
".+@#$%&*=-;>,')!~{]^/(_:<[}|12321|}[<:_(/^]{~!)',>;-=*&%$45.",
".+@#$%&*=-;>,')!~{]^/(_:<[}|12321|}[<:_(/^]{~!)',>;-=*&%$45.",
".+@#$%&*=-;>,')!~{]^/(_:<[}|12321|}[<:_(/^]{~!)',>;-=*&%$45.",
".+@#$%&*=-;>,')!~{]^/(_:<[}|12321|}[<:_(/^]{~!)',>;-=*&%$45."};
