/* XPM */
static char * bg_panel_pmu_2_xpm[] = {
"60 14 34 1",
" 	c None",
".	c #211A1A",
"+	c #5C4F4D",
"@	c #675956",
"#	c #5B5D6C",
"$	c #61616C",
"%	c #616270",
"&	c #646571",
"*	c #666671",
"=	c #676675",
"-	c #696A76",
";	c #6B6A79",
">	c #6E6E79",
",	c #6E6E7B",
"'	c #70707D",
")	c #737081",
"!	c #737182",
"~	c #737285",
"{	c #767487",
"]	c #787689",
"^	c #79778A",
"/	c #7F7B8C",
"(	c #7F7C8F",
"_	c #827E8F",
":	c #868190",
"<	c #868293",
"[	c #898495",
"}	c #8D8796",
"|	c #8C8899",
"1	c #8F8A99",
"2	c #8F8B9C",
"3	c #938E9D",
"4	c #615450",
"5	c #514542",
".+@#$%&*=-;>,')!~{]^/(_:<[}|12321|}[<:_(/^]{~!)',>;-=*&%$45.",
".+@#$%&*=-;>,')!~{]^/(_:<[}|12321|}[<:_(/^]{~!)',>;-=*&%$45.",
".+@#$%&*=-;>,')!~{]^/(_:<[}|12321|}[<:_(/^]{~!)',>;-=*&%$45.",
".+@#$%&*=-;>,')!~{]^/(_:<[}|12321|}[<:_(/^]{~!)',>;-=*&%$45.",
".+@#$%&*=-;>,')!~{]^/(_:<[}|12321|}[<:_(/^]{~!)',>;-=*&%$45.",
".+@#$%&*=-;>,')!~{]^/(_:<[}|12321|}[<:_(/^]{~!)',>;-=*&%$45.",
".+@#$%&*=-;>,')!~{]^/(_:<[}|12321|}[<:_(/^]{~!)',>;-=*&%$45.",
".+@#$%&*=-;>,')!~{]^/(_:<[}|12321|}[<:_(/^]{~!)',>;-=*&%$45.",
".+@#$%&*=-;>,')!~{]^/(_:<[}|12321|}[<:_(/^]{~!)',>;-=*&%$45.",
".+@#$%&*=-;>,')!~{]^/(_:<[}|12321|}[<:_(/^]{~!)',>;-=*&%$45.",
".+@#$%&*=-;>,')!~{]^/(_:<[}|12321|}[<:_(/^]{~!)',>;-=*&%$45.",
".+@#$%&*=-;>,')!~{]^/(_:<[}|12321|}[<:_(/^]{~!)',>;-=*&%$45.",
".+@#$%&*=-;>,')!~{]^/(_:<[}|12321|}[<:_(/^]{~!)',>;-=*&%$45.",
".+@#$%&*=-;>,')!~{]^/(_:<[}|12321|}[<:_(/^]{~!)',>;-=*&%$45."};
