/* XPM */
static char * decal_mail_xpm[] = {
"22 216 349 2",
"  	c None",
". 	c #040404",
"+ 	c #DDDDD9",
"@ 	c #FDFFF7",
"# 	c #555452",
"$ 	c #65655D",
"% 	c #BCBFA4",
"& 	c #D5D6B8",
"* 	c #9A9B88",
"= 	c #5B5B5B",
"- 	c #848477",
"; 	c #929186",
"> 	c #8B8A7A",
", 	c #D5D6CA",
"' 	c #7F7F6F",
") 	c #444444",
"! 	c #42403A",
"~ 	c #9D9C8C",
"{ 	c #89897B",
"] 	c #62605D",
"^ 	c #5B5A4E",
"/ 	c #262626",
"( 	c #616055",
"_ 	c #8D8E7D",
": 	c #A4A591",
"< 	c #8A8A79",
"[ 	c #4F4F4F",
"} 	c #383838",
"| 	c #6F6F66",
"1 	c #787872",
"2 	c #888880",
"3 	c #98988D",
"4 	c #A2A296",
"5 	c #AEAEA2",
"6 	c #BBBBB3",
"7 	c #CBCBC2",
"8 	c #E0DFD2",
"9 	c #E5E5DA",
"0 	c #F1F0E5",
"a 	c #F9F8EA",
"b 	c #FDFDED",
"c 	c #FEFEEE",
"d 	c #FEFEF3",
"e 	c #FFFFF3",
"f 	c #FFFFF0",
"g 	c #FFFFEF",
"h 	c #65675B",
"i 	c #FEFEEF",
"j 	c #FEFEF0",
"k 	c #FEFEF1",
"l 	c #868476",
"m 	c #DBDBCD",
"n 	c #C3C3B8",
"o 	c #FCFCED",
"p 	c #FFFFF1",
"q 	c #FEFEF2",
"r 	c #DBDACE",
"s 	c #63625D",
"t 	c #BEBFB1",
"u 	c #FCFDEC",
"v 	c #DBDDCE",
"w 	c #4D4C43",
"x 	c #737164",
"y 	c #939383",
"z 	c #AFAE9A",
"A 	c #969583",
"B 	c #47473E",
"C 	c #2D2B27",
"D 	c #4F5047",
"E 	c #77776A",
"F 	c #A09F8E",
"G 	c #AFB09A",
"H 	c #C3C5AD",
"I 	c #D5D6BC",
"J 	c #E9EACC",
"K 	c #F6F5D6",
"L 	c #F6F6D6",
"M 	c #E4E8CC",
"N 	c #848475",
"O 	c #787769",
"P 	c #616154",
"Q 	c #777769",
"R 	c #939382",
"S 	c #D1D1B8",
"T 	c #ECEBCF",
"U 	c #F5F5D8",
"V 	c #F5F7D9",
"W 	c #F6F9DB",
"X 	c #F5F5D5",
"Y 	c #F2F4D5",
"Z 	c #F6F5D5",
"` 	c #C6C7AF",
" .	c #41403A",
"..	c #6C6B5E",
"+.	c #898878",
"@.	c #6C6C5E",
"#.	c #33342D",
"$.	c #A4A691",
"%.	c #EAEACC",
"&.	c #F3F4D6",
"*.	c #F2F4D6",
"=.	c #F6F8DA",
"-.	c #F6F8DC",
";.	c #F4F6D7",
">.	c #F4F5D5",
",.	c #EAECD0",
"'.	c #8A8979",
").	c #1D1D1B",
"!.	c #898A79",
"~.	c #878776",
"{.	c #727363",
"].	c #64645A",
"^.	c #000000",
"/.	c #CDCCB4",
"(.	c #F4F6D8",
"_.	c #F6F9DC",
":.	c #F6FADC",
"<.	c #F6F6D7",
"[.	c #F4F5D7",
"}.	c #EEF2D5",
"|.	c #CECEB4",
"1.	c #55574C",
"2.	c #141312",
"3.	c #605F54",
"4.	c #8A8B79",
"5.	c #7A7A6B",
"6.	c #494A40",
"7.	c #78796B",
"8.	c #A3A294",
"9.	c #F3F2D3",
"0.	c #F7FADC",
"a.	c #ADAC97",
"b.	c #272823",
"c.	c #070706",
"d.	c #59584F",
"e.	c #8E8C7A",
"f.	c #848473",
"g.	c #807F70",
"h.	c #7C7C6F",
"i.	c #828374",
"j.	c #55554C",
"k.	c #D1D3BB",
"l.	c #E2E2C6",
"m.	c #67685B",
"n.	c #080807",
"o.	c #58584D",
"p.	c #898A78",
"q.	c #898B7A",
"r.	c #8C8E7B",
"s.	c #8A8C7A",
"t.	c #868676",
"u.	c #818072",
"v.	c #858476",
"w.	c #7C7D6E",
"x.	c #9B9D8A",
"y.	c #BBBCA5",
"z.	c #393933",
"A.	c #0A0A09",
"B.	c #100F0F",
"C.	c #4E4F46",
"D.	c #848476",
"E.	c #858475",
"F.	c #898778",
"G.	c #8D8D7D",
"H.	c #8C8D7B",
"I.	c #757466",
"J.	c #36362F",
"K.	c #141311",
"L.	c #171714",
"M.	c #0C0C0C",
"N.	c #32312E",
"O.	c #4B4A44",
"P.	c #808072",
"Q.	c #878777",
"R.	c #8B8B7A",
"S.	c #848474",
"T.	c #858375",
"U.	c #868675",
"V.	c #787969",
"W.	c #56574E",
"X.	c #52524A",
"Y.	c #353531",
"Z.	c #151413",
"`.	c #333533",
" +	c #4C4C44",
".+	c #4F4F47",
"++	c #53534B",
"@+	c #66655A",
"#+	c #7B7C6B",
"$+	c #888877",
"%+	c #8C8C7B",
"&+	c #8D8D7C",
"*+	c #31312B",
"=+	c #33342E",
"-+	c #3B3C36",
";+	c #3F3F3A",
">+	c #33312D",
",+	c #2E2E2E",
"'+	c #4B4C43",
")+	c #4C4D44",
"!+	c #4D4D45",
"~+	c #515149",
"{+	c #4E4F45",
"]+	c #616156",
"^+	c #767668",
"/+	c #868776",
"(+	c #78776A",
"_+	c #55534A",
":+	c #545349",
"<+	c #2E2E2A",
"[+	c #5E5C54",
"}+	c #8B8B7D",
"|+	c #7B7A6D",
"1+	c #36352E",
"2+	c #626158",
"3+	c #959482",
"4+	c #595A51",
"5+	c #535148",
"6+	c #353631",
"7+	c #40403A",
"8+	c #22221E",
"9+	c #3D3C37",
"0+	c #3E3D36",
"a+	c #616155",
"b+	c #3B3B34",
"c+	c #31302C",
"d+	c #282828",
"e+	c #20211C",
"f+	c #20211D",
"g+	c #222320",
"h+	c #272320",
"i+	c #141310",
"j+	c #191A18",
"k+	c #21231F",
"l+	c #262620",
"m+	c #202320",
"n+	c #262723",
"o+	c #7F7E71",
"p+	c #55564D",
"q+	c #ABAD9C",
"r+	c #909187",
"s+	c #D2D3BC",
"t+	c #7F7E70",
"u+	c #5B594E",
"v+	c #25241F",
"w+	c #302F29",
"x+	c #282822",
"y+	c #686658",
"z+	c #2F2E2A",
"A+	c #2A2826",
"B+	c #2A2723",
"C+	c #1D1D19",
"D+	c #F0F3D6",
"E+	c #424139",
"F+	c #6A695E",
"G+	c #8E8E7F",
"H+	c #7A786B",
"I+	c #3B3B35",
"J+	c #505048",
"K+	c #302F2A",
"L+	c #A4A391",
"M+	c #302D29",
"N+	c #87877A",
"O+	c #8B8C7C",
"P+	c #525249",
"Q+	c #46463F",
"R+	c #30312B",
"S+	c #39362F",
"T+	c #2F2E28",
"U+	c #35352F",
"V+	c #292929",
"W+	c #3F3F38",
"X+	c #9C9E8B",
"Y+	c #A7A995",
"Z+	c #D9D8BF",
"`+	c #E3E3C8",
" @	c #DFDFC4",
".@	c #DAD9BD",
"+@	c #D4D4B9",
"@@	c #C8CBB2",
"#@	c #C5C6AD",
"$@	c #BABCA6",
"%@	c #AAAC96",
"&@	c #A8A795",
"*@	c #8C8D7C",
"=@	c #737365",
"-@	c #626155",
";@	c #4B4D43",
">@	c #414039",
",@	c #5F5F56",
"'@	c #C4C4AC",
")@	c #EEF1D5",
"!@	c #F0F3D5",
"~@	c #E8E7DA",
"{@	c #EFF2D5",
"]@	c #EFF1D5",
"^@	c #EEF0D5",
"/@	c #ECEDD2",
"(@	c #E4E4CA",
"_@	c #DAD8C2",
":@	c #CACAB4",
"<@	c #A1A18F",
"[@	c #A9AA94",
"}@	c #CACBB3",
"|@	c #F2F2D5",
"1@	c #EEF2D6",
"2@	c #D7DAC0",
"3@	c #53534C",
"4@	c #32322C",
"5@	c #DEE0C7",
"6@	c #F3F4D5",
"7@	c #EFEFD5",
"8@	c #E2E6CB",
"9@	c #616158",
"0@	c #B9BBA4",
"a@	c #F0F2D5",
"b@	c #EFF0D5",
"c@	c #F2F3D6",
"d@	c #F3F3D5",
"e@	c #F1F0D6",
"f@	c #C6C6B0",
"g@	c #3E3E35",
"h@	c #F1F3D6",
"i@	c #F4F4D5",
"j@	c #D3D3B9",
"k@	c #414138",
"l@	c #504E44",
"m@	c #454239",
"n@	c #46453C",
"o@	c #434238",
"p@	c #454542",
"q@	c #211E1B",
"r@	c #494338",
"s@	c #4E4C41",
"t@	c #49443B",
"u@	c #434138",
"v@	c #434037",
"w@	c #434239",
"x@	c #404038",
"y@	c #413C33",
"z@	c #3D3A31",
"A@	c #3F3C33",
"B@	c #4A4A41",
"C@	c #5F5F52",
"D@	c #555449",
"E@	c #3F3D35",
"F@	c #36352F",
"G@	c #343029",
"H@	c #323230",
"          . + + + + + + + + + + .           ",
"          . . @ . @ @ @ @ . @ . .           ",
"# $ % % % . @ . @ @ @ @ @ @ @ @ . & & * = - ",
"; > . % % . . @ . @ @ @ @ @ @ @ . , . * % = ",
"' > % . % . @ @ @ @ @ @ @ @ @ @ . . % % % ) ",
"! ~ % % . . @ @ @ @ @ @ @ @ @ . % % % % % ) ",
"  { % % % . . @ @ @ @ @ ] . . % % % % % % ) ",
"  ^ % % % % % .   . . .   % % % % % % % % / ",
"    % % % % % % % ( % % % % % % % % % % % . ",
"    _ : % % % % < < < < % % % % % % % % % . ",
"    _ _ : < < < < < < < < < < < % % % % % . ",
"      [ } } / / . . . . . . . . . . . . . . ",
"                                            ",
"                                            ",
"# $ | 1 2 3 4 5 6 7 8 9 0 a b c d e f g = - ",
"; h g c c g f g i j j c c k c c d , . * % = ",
"' l % . c g g g c c c k j k i m . . % % % ) ",
"! ~ % % . n o p c i j j q r s . % % % % % ) ",
"  { % % % . . t u c c v ] . . % % % % % % ) ",
"  ^ % % % % % .   . . .   % % % % % % % % / ",
"    % % % % % % % ( % % % % % % % % % % % . ",
"    _ : % % % % < < < < % % % % % % % % % . ",
"    _ _ : < < < < < < < < < < < % % % % % . ",
"      [ } } / / . . . . . . . . . . . . . . ",
"                            w x y z A B     ",
"            C D E F G H I J K L M N O P     ",
"  Q R G S T U V W X X Y Z Z Z `  ...+.@.)   ",
"#.$.%.L &.*.K =.=.-.;.>.=.,.'.).h !.~.{.)   ",
"  ].^./.&.*.(._.:.<.[.}.|.1.2.3.4.> '.5./   ",
"  6.7.^.8.9.0.=.<.>.Z a.b.c.d.e.f.> '.g./   ",
"    h.i.^.j.k.[.>.l.m.. n.o.p.~.q.r.s.t..   ",
"    u.v.w.^.^.x.y.z.A.B.C.D.E.F.< G.H.p..   ",
"    u.u.~.I.J.K.L.M.N.O.].P.Q.R.S.T.U.U..   ",
"    6.u.V.W.X.Y.Z.`.D  +.+++@+#+t.$+%+&+.   ",
"      6.*+=+-+;+>+,+'+)+D !+~+{+]+^+/+H..   ",
"          = = ) ) / / . . . . . . . . . (+  ",
"                            _+:+            ",
"                  <+[+}+& & |+w 1+          ",
"          1+2+3+& & & & & &   4+5+          ",
"    6+& & & & & & & & & & . > > .           ",
"      . & & & & & & & & . > > > > 7+        ",
"    . 8+. & & & & & & . > > > > > .         ",
"      . 9+. & & & & . > > > > > > > .       ",
"        . 0+. a+  . > > > > > > > > >       ",
"        . b+c+. . d+e+> > > > > > > > .     ",
"          . f+      g+h+  > > > > > > .     ",
"            . . . . . i+j+k+l+m+> > > .     ",
"              = = = ) ) ) / / / . . . . n+  ",
"                    & & & &                 ",
"                & & & & & r.                ",
"              & & & & & . 4+G.              ",
"            . . & & & . o+o+G..             ",
"            . b+. & & . o+o+o+G.            ",
"            . b+. & . o+o+o+o+o+.           ",
"              . b+. . o+o+o+o+o+.           ",
"              . b+b+b+. o+o+o+o+o+          ",
"                  b+b+. o+o+o+o+o+.         ",
"                      b+. o+o+o+o+.         ",
"                        b+b+o+o+o+.         ",
"                          b+. . . .         ",
"            p+c                             ",
"            p+c                             ",
"              p+c                           ",
"              p+c                           ",
"                p+c                         ",
"                p+c G.                      ",
"                  p+c                       ",
"                  p+c c                     ",
"                    p+p+c                   ",
"                      p+c                   ",
"                      p+p+c                 ",
"                        p+c c               ",
"        c c q+                              ",
"        q+c c c c q+                        ",
"          c c c c c c q+                    ",
"          c c l+r+l+l+c c q+                ",
"          q+c r+l+c c c c c c q+            ",
"            c c c c l+c c c c c c           ",
"            c c c c c r+c c c c c .         ",
"            q+c c c c c r+l+c c c .         ",
"              c c c c l+c c l+c c .         ",
"              c c c c c c c c c c .         ",
"              q+c c c c c c c . .           ",
"                c c c c . . .               ",
"                                            ",
"    c c c c c c c c q+q+                    ",
"    c c c l+c c c c c c c c c c c           ",
"    q+c l+c r+c l+c c c c c c c c           ",
"      c c c c c c c c c c c c c c q+        ",
"      c c c c c c c c c c c c c c c         ",
"      c c c c c c c c c c c c c c c .       ",
"      q+c c l+c r+c l+c l+c c c c c c       ",
"        c c c r+l+c r+c c c c c c c c .     ",
"        c c l+c c c c c c c c c c c c .     ",
"        c c c c c c c c c c . . . . . .     ",
"        q+c c c c c . . . .                 ",
"                                            ",
"  c c c c c c c c c c q+q+                  ",
"  c l+c l+c c c c c c c c c c c c c c c c   ",
"  c c r+c l+c c c c c c c c c c c c c c c . ",
"  c c l+c r+c c c c c c c c c c c c c c c . ",
"  c l+c c c c c l+c c c c c c c c c c c q+. ",
"  c c c c c c c c l+c r+c l+c c c c c c q+. ",
"  c c c c c c c c r+l+c c c c c c c c c     ",
"  c c c c c c c l+c c l+r+l+c c c c c c .   ",
"  c c c c c c c c c c c c c c c c c c c .   ",
"  c c c c c c c c c c c q+q+. . . . . . .   ",
"    . . . . . . . . . . . .                 ",
"                                            ",
"  c c c c c c c c c c c c c c c c c c c c   ",
"  c l+c l+c c c c c c c c c c c c c c c c . ",
"  c c r+c l+c c c c c c c c c c c c c c c . ",
"  c c l+c r+c c c c c c c c c c c c c c c . ",
"q+c l+c c c c c c c c c c c c c c c c c c . ",
"q+c c c c c c c l+r+c l+c l+c c c c c c c . ",
"c c c c c c c c c c l+r+c r+c c c c c c c c ",
"c c c c c c c c l+c c l+c l+c c c c c c c c ",
"c c c c c c c c c c c c c c c c c c c c c c ",
"c c c c c c c c c c c c c c c c c c c c c c ",
"  . . . . . . . . . . . . . . . . . . . . . ",
"                                            ",
"                  q+q+c c c c c c c c c     ",
"      c c c c c c c c c c c c c c c c c .   ",
"      c c l+l+c c c c c c c c c c c c c .   ",
"      c l+c r+c c c l+c l+c c c c c c c .   ",
"    q+c c l+c c c c c r+r+c l+c c c c c .   ",
"    q+c c c c c c c l+c c l+c l+c c c c .   ",
"    c c c c c c c c c l+c c c c c c c c .   ",
"    c c c c c c c c c c c c c c c c c c .   ",
"    c c c c c c c c c c c c c c c c c c .   ",
"      . . . . . . q+q+c c c c c c c c c .   ",
"                    . . . . . . . . . . .   ",
"                        q+c c c c c         ",
"                  q+c c c c c c c c .       ",
"            c c c c c c c c c c c c .       ",
"          q+c l+c c c c c c l+c c c .       ",
"          c c l+c c c c l+c c c c c .       ",
"          c c c c c c c c r+c c c c .       ",
"        q+c c c c c c r+l+c l+c c q+.       ",
"        c c c c c l+r+c c l+c c c .         ",
"        c c c c c c c l+c c c c c .         ",
"        c c c c c c c c c c c c c .         ",
"          . . q+q+c c c c c c c c .         ",
"                . . . q+c c c c c .         ",
"                          q+c c             ",
"                      q+c c c c .           ",
"                  q+c c c c c c .           ",
"              c c c c c c c c q+.           ",
"              l+c c c c c c c .             ",
"            q+c c c c l+c c c .             ",
"            c c c c r+c c c q+.             ",
"            c c c l+c r+c c .               ",
"          q+c c c c l+c c c .               ",
"              q+c c c c c q+.               ",
"                  q+c c c .                 ",
"                      q+c .                 ",
"                          c p+              ",
"                          c p+^.            ",
"                        c p+^.              ",
"                        c p+^.              ",
"                      c p+^.                ",
"                      c p+^.                ",
"                    c p+^.                  ",
"                    c p+^.                  ",
"                  c p+^.                    ",
"                  c p+^.                    ",
"                c p+^.                      ",
"                c p+^.                      ",
"                    s+                      ",
"                  s+s+s+                    ",
"                t+^.s+s+s+                  ",
"              > > ^.s+s+s+s+                ",
"            > > > ^.s+s+s+^.                ",
"            > > > > ^.s+^.^.u+              ",
"          t+> > > > ^.s+^.> ^.              ",
"        t+> > > > > ^.u+> > ^.              ",
"        t+> > > > ^.u+u+> ^.                ",
"      t+> > > > ^.      ^.                  ",
"    t+> > ^.^.^.  ^.^.^.                    ",
"    t+^.^.                                  ",
"              s+s+                          ",
"              u+s+s+s+v+                    ",
"              u+^.s+s+s+s+s+w+              ",
"            t+t+u+^.s+s+s+s+s+s+s+x+        ",
"            t+t+> > ^.s+s+s+s+s+^.y+^.      ",
"            t+> > > u+^.s+s+s+^.> ^.        ",
"          t+t+> > > > u+^.s+^.> > ^.        ",
"          t+> > > > > t+  z+> > ^.          ",
"          t+> > > > t+  A+A+A+> ^.          ",
"        t+> > > t+u+  A+A+A+A+A+^.          ",
"        t+> > t+B+C+A+A+^.^.^.^.            ",
"      t+t+t+t+^.^.^.^.^.                    ",
"    >                                       ",
"    > > D+D+D+D+                            ",
"    > y+E+D+D+D+D+D+D+D+D+D+F+ +            ",
"    > y+t+>+. D+D+D+D+D+D+D+D+D+D+D+D+G+H+I+",
"    > t+t+J+K+. D+D+D+D+D+D+D+D+D+D+. L+y+. ",
"    > t+t+y+D M+. D+D+D+D+D+D+D+D+. N+y+.   ",
"    > O+> O+y+P+c+. D+D+D+D+D+D+. Q+y+t+.   ",
"  > > > > O+> t+y+R+. S+D+D+D+. y+> t+T+.   ",
"  > > > > > > > y+y+S+. . D+. y+> > y+.     ",
"  > t+t+t+t+y+y+S+S+A+A+S+. S+y+> > U+.     ",
"  > > y+y+y+S+A+A+A+A+A+V+A+A+A+y+  .       ",
"   +W+    A+A+A+A+A+A+. . . . . . .         ",
"                                            ",
"X+Y+Z+`+ @.@+@@@#@$@%@&@*@=@-@;@>@          ",
"X+X+,@'@)@>.Y !@~@~@{@~@~@~@]@^@)@/@(@_@:@<@",
"X+[@[@>@. }@|@{@~@~@~@{@~@{@~@~@1@]@{@2@X+3@",
"X+X+[@[@X+4@. 5@^@6@~@~@!@~@7@~@{@8@. . X+9@",
"X+[@[@[@[@X+. . 0@a@b@c@~@d@7@e@f@. X+[@[@g@",
"X+[@[@[@[@[@X+  . . :@~@h@i@. . . X+[@[@[@. ",
"X+[@[@[@[@[@[@[@X+  . . j@. S+S+X+[@[@[@X+. ",
"X+[@[@[@[@[@[@X+X+X+X+k@k@S+X+X+X+[@[@X+.   ",
"X+[@[@X+X+X+l@m@n@o@k@p@S+S+q@r@s@X+X+X+.   ",
"X+X+X+X+s@t@u@v@w@w@x@S+S+S+S+y@z@A@B@X+.   ",
"C@D@E@F@G@  . . . . . H@. . . . . . . . .   "};
