/* XPM */
static char * krell_mail_xpm[] = {
"20 240 4 1",
" 	c None",
".	c #000000",
"+	c #F23210",
"@	c #FFFFFF",
"                    ",
"                    ",
"                    ",
"                    ",
"                    ",
"                    ",
"                    ",
"                    ",
"                    ",
"                    ",
"                    ",
"                    ",
"                    ",
"                    ",
"                    ",
"                    ",
"      .      .      ",
"     +.       +     ",
"    .+....... +.    ",
"    .++++++++++.    ",
"     ++.@..@.++     ",
"     .+@@@@@@..     ",
"     .+@@...@..     ",
"     ++..++..++     ",
"     .+..+++.+.     ",
"       .++++..      ",
"     .++.+++++.     ",
"     ++.++++.++.    ",
"     ++.+.+++..     ",
"     ++.+++++.      ",
"      .++.+++.      ",
"          .+++      ",
"            .       ",
"     +.     .+      ",
"    +.  ....++.     ",
"    ++.+++....+     ",
"    +++++.@@@@.     ",
"     ++++.@@..@     ",
"     .++++@@.+..    ",
"      .+++++..+. .  ",
"       +++.....   . ",
"        .++...    . ",
"       .+++++. .    ",
"   .  .++++++++.    ",
"  .. +++.+++++.     ",
"   . .+.++++++      ",
"       .+++.+.      ",
"        .+++.       ",
"            .       ",
"     +.     .+      ",
"    +.  ....++.     ",
"    ++.+++....+     ",
"    +++++.@@@@.     ",
"     ++++.@@..@     ",
"     .++++@@.+..    ",
"      .+++++..+.    ",
"       +++.....     ",
"        .++...      ",
"  ..   .+++++.      ",
"      .+++++++      ",
"     ..+++.+++.     ",
"      .+.+.+++.     ",
"      .++++++++     ",
"       ..  .+++     ",
"        .  .        ",
"       .+. .+.      ",
"       .++.+++      ",
"       ..+++++.     ",
"      .++++++.@.    ",
"      .++++++...    ",
"      .++++++..++   ",
"       ++++++++..   ",
"        .++++...  . ",
"         +++...  .  ",
"        .+++.    . .",
"        .++++.+..   ",
"       .++.++++.    ",
"       .++++++      ",
" .  ......+++++..   ",
" .     +++..+++++   ",
"       ..           ",
"      ..      +     ",
"     .++....  .+.   ",
"     ++++++++.++.   ",
"     ..+++++++++.   ",
"     .+++++++++.    ",
"     .+++++++++     ",
"      .++++++++.    ",
"       ++++++++     ",
"        .++++.      ",
"       .+++++.  . . ",
"     .+.++++++.     ",
"      .+++++.++.    ",
" .     ++++++++     ",
" . ..  ..++++.      ",
"        .+++.       ",
"       ..           ",
"      ..      +     ",
"     .++....  .+.   ",
"     ++++++++.++.   ",
"     ..+++++++++.   ",
"     .+++++++++.    ",
"     .+++++++++     ",
"      .++++++++.    ",
"       ++++++++     ",
"        .++++.      ",
"       .+++++.      ",
"       .++++++      ",
"       ++++.++ .    ",
"       ++++.++ .    ",
"  ..  .+.++++++     ",
"   .   ++.  ..      ",
"      .      .      ",
"     +.       +     ",
"    .+....... +.    ",
"    .++++++++++.    ",
"     ++++++++++     ",
"     .++++++++.     ",
"     .++++++++.     ",
"      .+++++++      ",
"       .++++..      ",
"     .++++++++.     ",
"     ++++++++..     ",
"     +++++++++ .    ",
"       +++++++      ",
"       ....+++.     ",
"         . ...      ",
"       ..           ",
"            ..      ",
"     .+      ..     ",
"    .+.  ....++     ",
"    .++.+++++++.    ",
"    .+++++++++.     ",
"     ++++++++++     ",
"     .+++++++++     ",
"     +++++++++.     ",
"     .++++++++      ",
"       .++++.       ",
"  . .  .+++++.      ",
"      .++++++.+     ",
"     +++.+++++.     ",
"     .++++++++     .",
"       .++++.. ... .",
"        .+++.       ",
"            ..      ",
"     .+      ..     ",
"    .+.  ....++     ",
"    .++.+++++++.    ",
"    .+++++++++.     ",
"     ++++++++++     ",
"     .+++++++++     ",
"     +++++++++.     ",
"     .++++++++      ",
"       .++++.       ",
"       .+++++.      ",
"       ++++++.      ",
"       ++.++++      ",
"       ++.++++      ",
"     .++++++.+.  .. ",
"       ..  .++   .  ",
"        ..  ..      ",
"       ++   .+.     ",
"      .+....+++     ",
"      ...+++++.     ",
"     .@@@.+++++     ",
"     ...@.+++++     ",
"    .++.@.+++++     ",
"     ..+++++++.     ",
"     ....+++++      ",
"       ..+++.       ",
"        .+++.     ..",
"   .   .+++++.    ..",
"  .......+++++  .   ",
"   .   ++++.++..    ",
"    .+++.+++++.     ",
"     .....++++      ",
"        .           ",
"       +.     ..    ",
"      .++....  ++   ",
"     .+...++++.++   ",
"      .@@@@.+++++   ",
"     .@..@@.+++.    ",
"     +.+.@.++++     ",
"   . ++..+++++.     ",
"  .   ....++++      ",
"  .    ...++.       ",
"       .+++++.      ",
"     +++++++++.  .  ",
"     ..+++++.++. .. ",
"       ++++++.+  .  ",
"       .+.+++.      ",
"        .+++.       ",
"        .           ",
"       +.     ..    ",
"      .++....  ++   ",
"     .+...++++.++   ",
"      .@@@@.+++++   ",
"     .@..@@.+++.    ",
"     +.+.@.++++     ",
"     ++..+++++.     ",
"      ....++++      ",
"       ...++.       ",
"       .+++++.   .. ",
"       +++++++.     ",
"     ..+++++++..    ",
"      .+++++.+.     ",
"     .++++++++.     ",
"     .+++.  ..      ",
"      .      .      ",
"     +.       +     ",
"    .+....... +.    ",
"    .++++++++++.    ",
"     ++.@..@.++     ",
"     .+@@@@@@..     ",
"     .+@@...@..     ",
"     ++..++..++     ",
"     .+..+++.+.     ",
"       .++++..      ",
"     .++++++++.     ",
"    .++.+++++++     ",
"     ..++++++.+     ",
"       +++++.++     ",
"  . .  +++..++      ",
"      .++.          ",
"                    ",
"                    ",
"                    ",
"                    ",
"                    ",
"                    ",
"                    ",
"                    ",
"                    ",
"                    ",
"                    ",
"                    ",
"                    ",
"                    ",
"                    ",
"                    "};
