/* XPM */
static char * bg_panel_mem_xpm[] = {
"60 14 148 2",
"  	c None",
". 	c #505757",
"+ 	c #525759",
"@ 	c #54595B",
"# 	c #565B5C",
"$ 	c #575C5E",
"% 	c #596060",
"& 	c #5A6263",
"* 	c #5D6365",
"= 	c #5E6465",
"- 	c #606567",
"; 	c #616768",
"> 	c #646869",
", 	c #646A6C",
"' 	c #666C6D",
") 	c #676E6F",
"! 	c #676F70",
"~ 	c #686F71",
"{ 	c #697072",
"] 	c #6A7172",
"^ 	c #6B7273",
"/ 	c #6B7474",
"( 	c #6C7475",
"_ 	c #6D7576",
": 	c #6E7677",
"< 	c #6F7777",
"[ 	c #6F7878",
"} 	c #6F7979",
"| 	c #717979",
"1 	c #727A7A",
"2 	c #6F7778",
"3 	c #6D7474",
"4 	c #6C7374",
"5 	c #697172",
"6 	c #5C6164",
"7 	c #5B6062",
"8 	c #595F60",
"9 	c #575D5F",
"0 	c #575B5D",
"a 	c #555B5B",
"b 	c #53585A",
"c 	c #515758",
"d 	c #383A3D",
"e 	c #3B3D3F",
"f 	c #3E3F42",
"g 	c #414445",
"h 	c #434547",
"i 	c #444747",
"j 	c #45474A",
"k 	c #47494C",
"l 	c #484C4E",
"m 	c #4C4E50",
"n 	c #4D5051",
"o 	c #4E5254",
"p 	c #515557",
"q 	c #525757",
"r 	c #535758",
"s 	c #55585A",
"t 	c #56595B",
"u 	c #575E5F",
"v 	c #585F60",
"w 	c #5A6061",
"x 	c #5B6263",
"y 	c #5C6364",
"z 	c #5E6565",
"A 	c #5D6465",
"B 	c #5B6465",
"C 	c #5B6364",
"D 	c #575A5B",
"E 	c #55575A",
"F 	c #545759",
"G 	c #515657",
"H 	c #505456",
"I 	c #4F5153",
"J 	c #4C4F51",
"K 	c #4B4D4F",
"L 	c #484B4C",
"M 	c #46494B",
"N 	c #454748",
"O 	c #414345",
"P 	c #3E4143",
"Q 	c #3D3E41",
"R 	c #3A3C3E",
"S 	c #596B6E",
"T 	c #5E6F6F",
"U 	c #5E7073",
"V 	c #617374",
"W 	c #637474",
"X 	c #647577",
"Y 	c #667879",
"Z 	c #68797B",
"` 	c #6B7C7C",
" .	c #6B7D7E",
"..	c #6D8080",
"+.	c #6F7F82",
"@.	c #6E8085",
"#.	c #6F8288",
"$.	c #738288",
"%.	c #74858B",
"&.	c #75868C",
"*.	c #7A8A8D",
"=.	c #7B8C90",
"-.	c #7D8D90",
";.	c #808F91",
">.	c #819194",
",.	c #839396",
"'.	c #869597",
").	c #87979A",
"!.	c #89989A",
"~.	c #8A999D",
"{.	c #8D9B9E",
"].	c #747677",
"^.	c #232627",
"/.	c #242627",
"(.	c #242728",
"_.	c #252828",
":.	c #262829",
"<.	c #26292A",
"[.	c #272A2A",
"}.	c #282B2C",
"|.	c #838889",
"1.	c #84898A",
"2.	c #858A8A",
"3.	c #868A8B",
"4.	c #868C8C",
"5.	c #868C8D",
"6.	c #2A2E2E",
"7.	c #2B2E2F",
"8.	c #2B2F2F",
"9.	c #2C2F2F",
"0.	c #2C3030",
"a.	c #8A9191",
"b.	c #8A9090",
"c.	c #899090",
"d.	c #898E8F",
"e.	c #888E8E",
"f.	c #878D8E",
"g.	c #2A2D2E",
"h.	c #2A2D2D",
"i.	c #292C2D",
"j.	c #828889",
"k.	c #828687",
"l.	c #808586",
"m.	c #808484",
"n.	c #7E8284",
"o.	c #7D8182",
"p.	c #7C8081",
"q.	c #7A7E80",
". + @ # $ % & * = - ; > , ' ) ! ~ { ] ^ / ( _ : < [ } | | | 1 | | } 2 < : _ 3 4 ^ ] 5 ! ! ) ' , > ; - = 6 7 8 9 0 a b c ",
". + d e f g h i j k l m n o p q r s t t # 0 u v 8 w x y * = z A B C & w % 9 $ 0 D t E F r G H I J K L M N h O P Q R b c ",
". + d S T U V W X Y Z `  ...+.@.#.$.%.&.*.=.-.;.>.,.'.).!.~.{.~.!.).'.,.>.;.-.=.*.&.%.$.#.@.+... .` Z Y X W V U T ].b c ",
". + d S T U V W X Y Z `  ...+.@.#.$.%.&.*.=.-.;.>.,.'.).!.~.{.~.!.).'.,.>.;.-.=.*.&.%.$.#.@.+... .` Z Y X W V U T ].b c ",
". + d S T U V W X Y Z `  ...+.@.#.$.%.&.*.=.-.;.>.,.'.).!.~.{.~.!.).'.,.>.;.-.=.*.&.%.$.#.@.+... .` Z Y X W V U T ].b c ",
". + d S T U V W X Y Z `  ...+.@.#.$.%.&.*.=.-.;.>.,.'.).!.~.{.~.!.).'.,.>.;.-.=.*.&.%.$.#.@.+... .` Z Y X W V U T ].b c ",
". + d S T U V W X Y Z `  ...+.@.#.$.%.&.*.=.-.;.>.,.'.).!.~.{.~.!.).'.,.>.;.-.=.*.&.%.$.#.@.+... .` Z Y X W V U T ].b c ",
". + d S T U V W X Y Z `  ...+.@.#.$.%.&.*.=.-.;.>.,.'.).!.~.{.~.!.).'.,.>.;.-.=.*.&.%.$.#.@.+... .` Z Y X W V U T ].b c ",
". + d S T U V W X Y Z `  ...+.@.#.$.%.&.*.=.-.;.>.,.'.).!.~.{.~.!.).'.,.>.;.-.=.*.&.%.$.#.@.+... .` Z Y X W V U T ].b c ",
". + d S T U V W X Y Z `  ...+.@.#.$.%.&.*.=.-.;.>.,.'.).!.~.{.~.!.).'.,.>.;.-.=.*.&.%.$.#.@.+... .` Z Y X W V U T ].b c ",
". + d S T U V W X Y Z `  ...+.@.#.$.%.&.*.=.-.;.>.,.'.).!.~.{.~.!.).'.,.>.;.-.=.*.&.%.$.#.@.+... .` Z Y X W V U T ].b c ",
". + d S T U V W X Y Z `  ...+.@.#.$.%.&.*.=.-.;.>.,.'.).!.~.{.~.!.).'.,.>.;.-.=.*.&.%.$.#.@.+... .` Z Y X W V U T ].b c ",
". + d S T U V W X Y Z `  ...+.@.#.$.%.&.*.=.-.;.>.,.'.).!.~.{.~.!.).'.,.>.;.-.=.*.&.%.$.#.@.+... .` Z Y X W V U T ].b c ",
". + d S T U V ^./.(._.:.<.[.}.|.1.1.2.3.4.5.6.7.8.9.0.0.0.0.a.b.b.c.d.e.e.f.g.h.h.i.i.}.}.j.k.l.m.n.o.p.q.W V U T ].b c "};
