/* XPM */
static char * krell_cache_xpm[] = {
"7 7 7 1",
" 	c None",
".	c #9AAEC3",
"+	c #C2D4E6",
"@	c #FFFFFF",
"#	c #BACCDF",
"$	c #93A7BC",
"%	c #000000",
" .+@#$ ",
" .+@#$%",
"   @%%%",
"   @%  ",
"   @%  ",
"   @%  ",
"   @%  "};
