/* XPM */
static char * nice_grid_xpm[] = {
"60 2 81 1",
" 	c None",
".	c #007B00",
"+	c #007C00",
"@	c #007D00",
"#	c #007F00",
"$	c #008200",
"%	c #008400",
"&	c #008600",
"*	c #008800",
"=	c #008A00",
"-	c #008B00",
";	c #008C00",
">	c #008F00",
",	c #009100",
"'	c #009200",
")	c #009300",
"!	c #009500",
"~	c #009700",
"{	c #009800",
"]	c #009A00",
"^	c #009D00",
"/	c #009E00",
"(	c #009F00",
"_	c #00A000",
":	c #00A300",
"<	c #00B300",
"[	c #05B405",
"}	c #09B609",
"|	c #0EB60E",
"1	c #13B613",
"2	c #17B717",
"3	c #1DB91D",
"4	c #22BA22",
"5	c #26BB26",
"6	c #2BBD2B",
"7	c #2FBE2F",
"8	c #35BF35",
"9	c #3AC03A",
"0	c #3FC13F",
"a	c #44C244",
"b	c #49C349",
"c	c #4DC44D",
"d	c #52C652",
"e	c #58C758",
"f	c #5CC75C",
"g	c #63C963",
"h	c #67CA67",
"i	c #6CCC6C",
"j	c #72CD72",
"k	c #76CE76",
"l	c #7BCF7B",
"m	c #81CF81",
"n	c #86D186",
"o	c #8CD28C",
"p	c #8AD28A",
"q	c #85D085",
"r	c #7FCF7F",
"s	c #7BCE7B",
"t	c #74CE74",
"u	c #70CC70",
"v	c #6ACB6A",
"w	c #65CA65",
"x	c #61C861",
"y	c #5AC75A",
"z	c #56C656",
"A	c #50C550",
"B	c #4BC34B",
"C	c #45C245",
"D	c #41C241",
"E	c #3DC13D",
"F	c #38C038",
"G	c #31BE31",
"H	c #2DBD2D",
"I	c #29BC29",
"J	c #25BB25",
"K	c #20BA20",
"L	c #18B818",
"M	c #10B610",
"N	c #0CB50C",
"O	c #07B407",
"P	c #04B304",
".+@@#$%%%&*=-;;>,')!~{{]^/(_:_((/^]{~!)'',>;--=**&%%%$##@++.",
"<[}|1234567890abcdefghijklmnopqrstuvwxyzABCDEF8GHIJK3L1MNOP<"};
