/* XPM */
static char * nice_xpm[] = {
"60 4 52 1",
" 	c None",
".	c #387938",
"+	c #377B37",
"@	c #357F35",
"#	c #338233",
"$	c #318531",
"%	c #308730",
"&	c #2D8B2D",
"*	c #2C8D2C",
"=	c #2A912A",
"-	c #279427",
";	c #269626",
">	c #259A25",
",	c #229D22",
"'	c #209F20",
")	c #1EA31E",
"!	c #1DA51D",
"~	c #1BA91B",
"{	c #18AB18",
"]	c #16AE16",
"^	c #13B313",
"/	c #12B612",
"(	c #0FB90F",
"_	c #0EBC0E",
":	c #0CC00C",
"<	c #0AC30A",
"[	c #07C607",
"}	c #06C906",
"|	c #04CC04",
"1	c #02CF02",
"2	c #00D300",
"3	c #05CB05",
"4	c #06C806",
"5	c #08C508",
"6	c #0BC10B",
"7	c #0DBE0D",
"8	c #0FBB0F",
"9	c #13B413",
"0	c #15B115",
"a	c #1AAA1A",
"b	c #1CA61C",
"c	c #1DA41D",
"d	c #1FA01F",
"e	c #219F21",
"f	c #289428",
"g	c #299229",
"h	c #2B902B",
"i	c #2D8C2D",
"j	c #2F882F",
"k	c #338433",
"l	c #358035",
"m	c #357D35",
".+@#$%&*=-;>,')!~{]^/(_:<[}|121345678/90]abcde,>;fghi&j$klm+",
".+@#$%&*=-;>,')!~{]^/(_:<[}|121345678/90]abcde,>;fghi&j$klm+",
".+@#$%&*=-;>,')!~{]^/(_:<[}|121345678/90]abcde,>;fghi&j$klm+",
".+@#$%&*=-;>,')!~{]^/(_:<[}|121345678/90]abcde,>;fghi&j$klm+"};
