/* XPM */
static char * bg_panel_uptime_xpm[] = {
"44 12 79 1",
" 	c None",
".	c #434749",
"+	c #44494B",
"@	c #464B4C",
"#	c #474C4C",
"$	c #474E4F",
"%	c #4A4F50",
"&	c #4B5152",
"*	c #4C5253",
"=	c #4C5254",
"-	c #4E5354",
";	c #4F5455",
">	c #4F5656",
",	c #505657",
"'	c #515758",
")	c #515859",
"!	c #525959",
"~	c #525B5B",
"{	c #535B5B",
"]	c #545B5B",
"^	c #505656",
"/	c #4F5556",
"(	c #4C5354",
"_	c #596B6E",
":	c #5E6F70",
"<	c #5F7173",
"[	c #627474",
"}	c #647577",
"|	c #667879",
"1	c #697A7B",
"2	c #6B7D7D",
"3	c #6D7F80",
"4	c #6F7F82",
"5	c #6E8186",
"6	c #718288",
"7	c #74848A",
"8	c #75868C",
"9	c #7A8A8E",
"0	c #7C8C90",
"a	c #7F8E91",
"b	c #819194",
"c	c #839396",
"d	c #869698",
"e	c #88989A",
"f	c #8A999C",
"g	c #8D9B9E",
"h	c #5A6B6D",
"i	c #5F6E6F",
"j	c #607072",
"k	c #637373",
"l	c #657476",
"m	c #677778",
"n	c #6A797A",
"o	c #6B7C7C",
"p	c #6D7E7F",
"q	c #6F7E81",
"r	c #6F8084",
"s	c #718186",
"t	c #748388",
"u	c #75848A",
"v	c #79888B",
"w	c #7B8A8D",
"x	c #7D8C8E",
"y	c #819093",
"z	c #849394",
"A	c #859496",
"B	c #879598",
"C	c #8A979A",
"D	c #839394",
"E	c #819092",
"F	c #7D8B8E",
"G	c #758489",
"H	c #748287",
"I	c #718086",
"J	c #6E8084",
"K	c #6F7D80",
"L	c #6D7D7F",
"M	c #69797A",
"N	c #667778",
".+@#$%&&*=-;>>,')!~{{{]{{~!)',^/;-(&&&%$#@+.",
"_:<[}|1234567890abcdefgfedcba0987654321|}[<:",
"_:<[}|1234567890abcdefgfedcba0987654321|}[<:",
"_:<[}|1234567890abcdefgfedcba0987654321|}[<:",
"_:<[}|1234567890abcdefgfedcba0987654321|}[<:",
"_:<[}|1234567890abcdefgfedcba0987654321|}[<:",
"_:<[}|1234567890abcdefgfedcba0987654321|}[<:",
"_:<[}|1234567890abcdefgfedcba0987654321|}[<:",
"_:<[}|1234567890abcdefgfedcba0987654321|}[<:",
"_:<[}|1234567890abcdefgfedcba0987654321|}[<:",
"_:<[}|1234567890abcdefgfedcba0987654321|}[<:",
"hijklmnopqrstuvwxayzABCBADEaFwvGHIJKLoMNlkji"};
