/* XPM */
static char * bg_panel_timer_xpm[] = {
"60 14 47 1",
" 	c None",
".	c #000000",
"+	c #313435",
"@	c #474B4C",
"#	c #5B6264",
"$	c #5E6667",
"%	c #5F696A",
"&	c #636A6C",
"*	c #646B6D",
"=	c #666D6F",
"-	c #686F71",
";	c #6B7172",
">	c #6B7476",
",	c #6E7677",
"'	c #6F787A",
")	c #70797B",
"!	c #717A7C",
"~	c #727B7D",
"{	c #747C7D",
"]	c #757D7E",
"^	c #757F80",
"/	c #768081",
"(	c #778182",
"_	c #788283",
":	c #798384",
"<	c #7A8585",
"[	c #7A8787",
"}	c #7C8787",
"|	c #7D8888",
"1	c #7A8485",
"2	c #777F80",
"3	c #767E7F",
"4	c #727C7D",
"5	c #62686B",
"6	c #606769",
"7	c #5E6567",
"8	c #5C6365",
"9	c #575E60",
"0	c #596162",
"a	c #5A6163",
"b	c #586061",
"c	c #222425",
"d	c #555C5E",
"e	c #565D5F",
"f	c #323435",
"g	c #393F40",
"h	c #3B4041",
"..+@#$%&*=-;>,')!~{]^/(_:<[}}}|}}[1:_(23]{4))',>;-=*5678@+..",
".+90#$%&*=-;>,')!~{]^/(_:<[}}}|}}[1:_(23]{4))',>;-=*5678ab+.",
"cd90#$%&*=-;>,')!~{]^/(_:<[}}}|}}[1:_(23]{4))',>;-=*5678abec",
"fd90#$%&*=-;>,')!~{]^/(_:<[}}}|}}[1:_(23]{4))',>;-=*5678abef",
"gd90#$%&*=-;>,')!~{]^/(_:<[}}}|}}[1:_(23]{4))',>;-=*5678abeh",
"gd90#$%&*=-;>,')!~{]^/(_:<[}}}|}}[1:_(23]{4))',>;-=*5678abeh",
"gd90#$%&*=-;>,')!~{]^/(_:<[}}}|}}[1:_(23]{4))',>;-=*5678abeh",
"gd90#$%&*=-;>,')!~{]^/(_:<[}}}|}}[1:_(23]{4))',>;-=*5678abeh",
"gd90#$%&*=-;>,')!~{]^/(_:<[}}}|}}[1:_(23]{4))',>;-=*5678abeh",
"gd90#$%&*=-;>,')!~{]^/(_:<[}}}|}}[1:_(23]{4))',>;-=*5678abeh",
"fd90#$%&*=-;>,')!~{]^/(_:<[}}}|}}[1:_(23]{4))',>;-=*5678abef",
"cd90#$%&*=-;>,')!~{]^/(_:<[}}}|}}[1:_(23]{4))',>;-=*5678abec",
".+90#$%&*=-;>,')!~{]^/(_:<[}}}|}}[1:_(23]{4))',>;-=*5678ab+.",
"..+@#$%&*=-;>,')!~{]^/(_:<[}}}|}}[1:_(23]{4))',>;-=*5678@+.."};
