/* XPM */
static char * bg_timer_xpm[] = {
"28 12 72 1",
" 	c None",
".	c #313235",
"+	c #333538",
"@	c #36383B",
"#	c #3A3D3E",
"$	c #3C3E40",
"%	c #3D4042",
"&	c #3E4245",
"*	c #424447",
"=	c #434749",
"-	c #47494B",
";	c #484B4D",
">	c #494E50",
",	c #4C5153",
"'	c #4E5354",
")	c #4F5355",
"!	c #515557",
"~	c #525658",
"{	c #52585A",
"]	c #53595B",
"^	c #545C5D",
"/	c #555D5E",
"(	c #565D5F",
"_	c #575E5F",
":	c #596061",
"<	c #5A6162",
"[	c #A1AFAD",
"}	c #667879",
"|	c #68797B",
"1	c #6B7C7C",
"2	c #6B7D7E",
"3	c #6D8080",
"4	c #6F7F82",
"5	c #6E8085",
"6	c #6F8288",
"7	c #738288",
"8	c #74858B",
"9	c #75868C",
"0	c #7A8A8D",
"a	c #7B8C90",
"b	c #7D8D90",
"c	c #808F91",
"d	c #819194",
"e	c #839396",
"f	c #869597",
"g	c #87979A",
"h	c #89989A",
"i	c #8A999D",
"j	c #8D9B9E",
"k	c #898B8D",
"l	c #898D8F",
"m	c #8A8E90",
"n	c #8A8F91",
"o	c #8C9293",
"p	c #8C9395",
"q	c #8D9495",
"r	c #8F9697",
"s	c #909798",
"t	c #919899",
"u	c #92999A",
"v	c #949C9C",
"w	c #959F9F",
"x	c #95A0A0",
"y	c #96A0A0",
"z	c #98A2A2",
"A	c #9AA4A4",
"B	c #9BA5A5",
"C	c #9DA7A7",
"D	c #9DA9A8",
"E	c #9FABAA",
"F	c #A0ACAB",
"G	c #A1ADAB",
"..+@#$%&*=-;>,')!~~{]^/(_:<[",
".}|1234567890abcdefghijihgf[",
".}|1234567890abcdefghijihgf[",
".}|1234567890abcdefghijihgf[",
".}|1234567890abcdefghijihgf[",
".}|1234567890abcdefghijihgf[",
".}|1234567890abcdefghijihgf[",
".}|1234567890abcdefghijihgf[",
".}|1234567890abcdefghijihgf[",
".}|1234567890abcdefghijihgf[",
".}|1234567890abcdefghijihgf[",
".klmnopqrstuvvwxyzABCDDEFG[["};
