/* XPM */
static char * decal_timer_button_xpm[] = {
"14 36 295 2",
"  	c None",
". 	c #DBE1E6",
"+ 	c #D6DCE2",
"@ 	c #CACFD5",
"# 	c #C5C9D0",
"$ 	c #C5CAD0",
"% 	c #C6CBD1",
"& 	c #C6CCD1",
"* 	c #C3C7CD",
"= 	c #B2B8C2",
"- 	c #CCD4DA",
"; 	c #B5BDC6",
"> 	c #989FAA",
", 	c #959BA8",
"' 	c #959CA8",
") 	c #959DA8",
"! 	c #9198A3",
"~ 	c #828A95",
"{ 	c #3A4650",
"] 	c #B4BCC6",
"^ 	c #89939F",
"/ 	c #696F81",
"( 	c #84859C",
"_ 	c #86869E",
": 	c #8987A0",
"< 	c #8987A1",
"[ 	c #87879E",
"} 	c #7D7E96",
"| 	c #767B8F",
"1 	c #747F8D",
"2 	c #26363E",
"3 	c #ACB5BF",
"4 	c #838C99",
"5 	c #838299",
"6 	c #BCABCE",
"7 	c #BEAAD3",
"8 	c #C7B0DB",
"9 	c #C8B1DC",
"0 	c #BFABD4",
"a 	c #B7A4CC",
"b 	c #A994C1",
"c 	c #A09ABC",
"d 	c #828C9D",
"e 	c #203139",
"f 	c #A2ACB7",
"g 	c #798391",
"h 	c #78788F",
"i 	c #A793BE",
"j 	c #A68CC0",
"k 	c #AF94C8",
"l 	c #B095C9",
"m 	c #A78DC1",
"n 	c #9E85BA",
"o 	c #9176B1",
"p 	c #9188B3",
"q 	c #7C8598",
"r 	c #1F3038",
"s 	c #99A3AF",
"t 	c #757F8E",
"u 	c #6A7081",
"v 	c #797491",
"w 	c #776F91",
"x 	c #7B7393",
"y 	c #7B7494",
"z 	c #777091",
"A 	c #746B8F",
"B 	c #6E668C",
"C 	c #8586A3",
"D 	c #788393",
"E 	c #1E2F37",
"F 	c #959FAC",
"G 	c #747F8C",
"H 	c #737E8E",
"I 	c #757E8F",
"J 	c #757F8F",
"K 	c #747E8F",
"L 	c #747E8E",
"M 	c #737D8E",
"N 	c #798394",
"O 	c #697684",
"P 	c #1C2D35",
"Q 	c #535C68",
"R 	c #303E47",
"S 	c #21313A",
"T 	c #213239",
"U 	c #1E2E37",
"V 	c #0E2127",
"W 	c #0C1E25",
"X 	c #0F2228",
"Y 	c #12242A",
"Z 	c #12242B",
"` 	c #28363F",
" .	c #555F6B",
"..	c #747F8E",
"+.	c #102229",
"@.	c #39454F",
"#.	c #59636E",
"$.	c #68717C",
"%.	c #67707A",
"&.	c #66707D",
"*.	c #667079",
"=.	c #646F77",
"-.	c #636E79",
";.	c #757F8D",
">.	c #949FAC",
",.	c #13242B",
"'.	c #575F6C",
").	c #A3ACB6",
"!.	c #B7BEC6",
"~.	c #ADB4BD",
"{.	c #ABB2BB",
"].	c #AAB1BB",
"^.	c #ACB3BC",
"/.	c #A7AEB7",
"(.	c #808994",
"_.	c #7D8796",
":.	c #98A3AF",
"<.	c #14262D",
"[.	c #6A737E",
"}.	c #A8B1BC",
"|.	c #8B96A2",
"1.	c #7A8793",
"2.	c #727F8B",
"3.	c #6E7C87",
"4.	c #6F7D89",
"5.	c #75838E",
"6.	c #747F8A",
"7.	c #4C5661",
"8.	c #6F7A87",
"9.	c #A1ABB6",
"0.	c #15272E",
"a.	c #6A737F",
"b.	c #949EAB",
"c.	c #778390",
"d.	c #667682",
"e.	c #5D6D79",
"f.	c #586874",
"g.	c #596975",
"h.	c #60707C",
"i.	c #5E6C77",
"j.	c #38454F",
"k.	c #707B86",
"l.	c #AAB3BD",
"m.	c #1F2F36",
"n.	c #6C7582",
"o.	c #7E8897",
"p.	c #5A6572",
"q.	c #4B5863",
"r.	c #47545F",
"s.	c #45525E",
"t.	c #46535E",
"u.	c #485560",
"v.	c #43505A",
"w.	c #2F3C46",
"x.	c #78838E",
"y.	c #B3BCC5",
"z.	c #4D5762",
"A.	c #8A919D",
"B.	c #979EAA",
"C.	c #878F9A",
"D.	c #7F8893",
"E.	c #7E8793",
"F.	c #7F8793",
"G.	c #7E8691",
"H.	c #818A95",
"I.	c #ADB5BE",
"J.	c #CBD3DA",
"K.	c #B4BAC4",
"L.	c #C0C6CD",
"M.	c #C1C7CE",
"N.	c #C0C6CE",
"O.	c #C1C6CD",
"P.	c #C7CDD4",
"Q.	c #D6DDE1",
"R.	c #B5BDC5",
"S.	c #989EA9",
"T.	c #9699A7",
"U.	c #979AA7",
"V.	c #979AA8",
"W.	c #969AA7",
"X.	c #9296A2",
"Y.	c #8A929E",
"Z.	c #6E6278",
"`.	c #906A89",
" +	c #966B8A",
".+	c #9B6E8E",
"++	c #9C6E8E",
"@+	c #966B8B",
"#+	c #916989",
"$+	c #886081",
"%+	c #7C6A83",
"&+	c #757D8C",
"*+	c #848A97",
"=+	c #8E6382",
"-+	c #DA649A",
";+	c #E65D99",
">+	c #F364A2",
",+	c #F665A1",
"'+	c #E75E9A",
")+	c #D95692",
"!+	c #C14883",
"~+	c #AC739A",
"{+	c #84899B",
"]+	c #7A808F",
"^+	c #805574",
"/+	c #C0427C",
"(+	c #C83376",
"_+	c #D73C7F",
":+	c #D93C7E",
"<+	c #CA3475",
"[+	c #BA2D6C",
"}+	c #A22360",
"|+	c #986087",
"1+	c #7D8295",
"2+	c #757E8D",
"3+	c #6C5F74",
"4+	c #815371",
"5+	c #824C6E",
"6+	c #895072",
"7+	c #8A5071",
"8+	c #834D6E",
"9+	c #7D4969",
"0+	c #744565",
"a+	c #87748E",
"b+	c #788191",
"c+	c #747E8B",
"d+	c #757C8A",
"e+	c #757C8B",
"f+	c #767C8C",
"g+	c #757B8B",
"h+	c #747A8A",
"i+	c #798292",
"j+	c #697584",
"k+	c #525C68",
"l+	c #C3C8CE",
"m+	c #98A0A9",
"n+	c #949EA6",
"o+	c #959EA6",
"p+	c #959FA7",
"q+	c #95A0A6",
"r+	c #959FA6",
"s+	c #98A0A8",
"t+	c #868F9A",
"u+	c #89949E",
"v+	c #637872",
"w+	c #779779",
"x+	c #789B79",
"y+	c #7AA07A",
"z+	c #7EA67E",
"A+	c #7DA67D",
"B+	c #7BA17C",
"C+	c #749974",
"D+	c #7E9889",
"E+	c #7D8A95",
"F+	c #26373F",
"G+	c #838E97",
"H+	c #729472",
"I+	c #92D36E",
"J+	c #90DC66",
"K+	c #97EA6B",
"L+	c #A0F870",
"M+	c #9FF76F",
"N+	c #87D35E",
"O+	c #8EBC87",
"P+	c #819199",
"Q+	c #78858F",
"R+	c #648764",
"S+	c #73B84E",
"T+	c #6ABD3D",
"U+	c #73CD42",
"V+	c #7BDC47",
"W+	c #7BDB47",
"X+	c #66B53B",
"Y+	c #7DA876",
"Z+	c #7B8A93",
"`+	c #74808D",
" @	c #60756E",
".@	c #62835F",
"+@	c #5C8355",
"@@	c #5F8958",
"#@	c #628F59",
"$@	c #628E59",
"%@	c #5F8A58",
"&@	c #5A8155",
"*@	c #7C9587",
"=@	c #778591",
"-@	c #73808B",
";@	c #728088",
">@	c #718088",
",@	c #72808A",
"'@	c #72818A",
")@	c #728189",
"!@	c #718089",
"~@	c #788591",
"{@	c #3B4650",
"                            ",
"  . + @ # # $ % & & % * =   ",
"  - ; > , ' , , ) ' , ! ~ { ",
"  ] ^ / ( _ : < [ ( } | 1 2 ",
"  3 4 5 6 7 8 9 0 a b c d e ",
"  f g h i j k l m n o p q r ",
"  s t u v w x y z A B C D E ",
"  F t G 1 H I J K L M N O P ",
"    Q R S S S S S S S T U V ",
"                            ",
"  W X Y Z Z Z Z Z Z Z `  ...",
"  +.@.#.$.%.%.&.%.*.=.-.;.>.",
"  ,.'.).!.~.{.].{.^./.(._.:.",
"  <.[.}.|.1.2.3.4.5.6.7.8.9.",
"  0.a.b.c.d.e.f.g.h.i.j.k.l.",
"  m.n.o.p.q.r.s.t.u.v.w.x.y.",
"  z.A.B.C.D.D.E.F.F.G.H.I.J.",
"    K.L.M.N.N.N.N.O.O.P.Q.. ",
"                            ",
"  . + @ # # $ % & & % * =   ",
"  - R.S.T.U.V.V.U.W.T.X.~ { ",
"  ] Y.Z.`. +.+++@+#+$+%+&+2 ",
"  3 *+=+-+;+>+,+'+)+!+~+{+e ",
"  f ]+^+/+(+_+:+<+[+}+|+1+r ",
"  s 2+3+4+5+6+7+8+9+0+a+b+E ",
"  F t c+d+e+f+f+f+g+h+i+j+P ",
"    k+R S S S S S S S T U V ",
"                            ",
"  . + @ # # $ % & & % l+=   ",
"  - R.m+n+o+o+p+q+r+o+s+t+{ ",
"  ] u+v+w+x+y+z+A+B+C+D+E+F+",
"  3 G+H+I+J+K+L+M+K+N+O+P+e ",
"  f Q+R+S+T+U+V+W+U+X+Y+Z+r ",
"  s `+ @.@+@@@#@$@%@&@*@=@E ",
"  F t -@;@>@,@'@'@)@!@~@O P ",
"    {@R S S S S S S S T U V "};
