/* XPM */
static char * bg_panel_volume_1_xpm[] = {
"60 11 102 2",
"  	c None",
". 	c #1E1E1E",
"+ 	c #545754",
"@ 	c #5E615E",
"# 	c #5B686C",
"$ 	c #616B6C",
"% 	c #616D70",
"& 	c #647071",
"* 	c #667171",
"= 	c #677274",
"- 	c #697576",
"; 	c #6B7678",
"> 	c #6E7979",
", 	c #6E7A7B",
"' 	c #707C7D",
") 	c #727C7F",
"! 	c #727D81",
"~ 	c #737F84",
"{ 	c #758086",
"] 	c #778288",
"^ 	c #788389",
"/ 	c #7D878A",
"( 	c #7E898D",
"_ 	c #808A8D",
": 	c #838C8E",
"< 	c #848E91",
"[ 	c #878F92",
"} 	c #8A9193",
"| 	c #8A9497",
"1 	c #8C9597",
"2 	c #8D969A",
"3 	c #90989B",
"4 	c #575B57",
"5 	c #494C49",
"6 	c #5A615A",
"7 	c #585F58",
"8 	c #575E57",
"9 	c #565D56",
"0 	c #555C55",
"a 	c #545B54",
"b 	c #535A53",
"c 	c #525752",
"d 	c #515651",
"e 	c #505550",
"f 	c #4F544F",
"g 	c #4E534E",
"h 	c #4C514C",
"i 	c #4B504B",
"j 	c #4A4F4A",
"k 	c #484D48",
"l 	c #464B46",
"m 	c #454845",
"n 	c #424542",
"o 	c #3F423F",
"p 	c #3C3F3C",
"q 	c #393C39",
"r 	c #373A37",
"s 	c #343734",
"t 	c #313431",
"u 	c #2E312E",
"v 	c #2D2E2D",
"w 	c #292C29",
"x 	c #4E514F",
"y 	c #232323",
"z 	c #393A3D",
"A 	c #38393C",
"B 	c #37383B",
"C 	c #39393C",
"D 	c #363739",
"E 	c #37373A",
"F 	c #3B3C3E",
"G 	c #3C3D40",
"H 	c #3C3C3F",
"I 	c #3D3E41",
"J 	c #757A75",
"K 	c #98A398",
"L 	c #97A297",
"M 	c #95A095",
"N 	c #949F94",
"O 	c #929D92",
"P 	c #919C91",
"Q 	c #909990",
"R 	c #8E998E",
"S 	c #8C978C",
"T 	c #8C958C",
"U 	c #8B948B",
"V 	c #899289",
"W 	c #879087",
"X 	c #868F86",
"Y 	c #858E85",
"Z 	c #838C83",
"` 	c #828B82",
" .	c #818881",
"..	c #808780",
"+.	c #7F867F",
"@.	c #7D847D",
"#.	c #7C837C",
"$.	c #7A817A",
"%.	c #798079",
"&.	c #797E79",
"*.	c #787D78",
"=.	c #767B76",
". + @ # $ % & * = - ; > , ' ) ! ~ { ] ^ / ( _ : < [ } | 1 2 3 2 1 | } [ < : _ ( / ^ ] { ~ ! ) ' , > ; - = * & % $ 4 5 . ",
". + @ # $ % & * = - ; > , ' ) ! ~ { ] ^ / ( _ : < [ } | 1 2 3 2 1 | } [ < : _ ( / ^ ] { ~ ! ) ' , > ; - = * & % $ 4 5 . ",
". + @ # $ % & * = - ; > , ' ) ! ~ { ] ^ / ( _ : < [ } | 1 2 3 2 1 | } [ < : _ ( / ^ ] { ~ ! ) ' , > ; - = * & % $ 4 5 . ",
". + @ # $ % & * = - ; > , ' ) ! ~ { ] ^ / ( _ : < [ } | 1 2 3 2 1 | } [ < : _ ( / ^ ] { ~ ! ) ' , > ; - = * & % $ 4 5 . ",
". + @ # $ % & * = - ; > , ' ) ! ~ { ] ^ / ( _ : < [ } | 1 6 6 7 8 9 0 a b c d e f g h i j k l m n o p q r s t u v w x y ",
". + @ # $ % & * = - ; > , ' ) ! ~ { ] ^ / ( _ : < [ } | 1 6 z z z A B C B B D E C z F G G G F B B A H I G z A B B J x y ",
". + @ # $ % & * = - ; > , ' ) ! ~ { ] ^ / ( _ : < [ } | 1 6 K L M N O P Q R S T U V W X Y Z `  ...+.@.#.$.%.&.*.=.J x y ",
". + @ # $ % & * = - ; > , ' ) ! ~ { ] ^ / ( _ : < [ } | 1 2 3 2 1 | } [ < : _ ( / ^ ] { ~ ! ) ' , > ; - = * & % $ 4 5 . ",
". + @ # $ % & * = - ; > , ' ) ! ~ { ] ^ / ( _ : < [ } | 1 2 3 2 1 | } [ < : _ ( / ^ ] { ~ ! ) ' , > ; - = * & % $ 4 5 . ",
". + @ # $ % & * = - ; > , ' ) ! ~ { ] ^ / ( _ : < [ } | 1 2 3 2 1 | } [ < : _ ( / ^ ] { ~ ! ) ' , > ; - = * & % $ 4 5 . ",
". + @ # $ % & * = - ; > , ' ) ! ~ { ] ^ / ( _ : < [ } | 1 2 3 2 1 | } [ < : _ ( / ^ ] { ~ ! ) ' , > ; - = * & % $ 4 5 . "};
