/* XPM */
static char * spacer_top_volume_xpm[] = {
"60 3 114 2",
"  	c None",
". 	c #000000",
"+ 	c #232323",
"@ 	c #424643",
"# 	c #424442",
"$ 	c #434644",
"% 	c #454646",
"& 	c #464846",
"* 	c #464948",
"= 	c #484948",
"- 	c #494B49",
"; 	c #4A4C4B",
"> 	c #4B4D4B",
", 	c #4C4F4D",
"' 	c #4E504F",
") 	c #505150",
"! 	c #515251",
"~ 	c #515352",
"{ 	c #525452",
"] 	c #535654",
"^ 	c #535755",
"/ 	c #565757",
"( 	c #575857",
"_ 	c #575958",
": 	c #585A59",
"< 	c #585C59",
"[ 	c #5A5D5B",
"} 	c #5A5E5C",
"| 	c #575A58",
"1 	c #575957",
"2 	c #555857",
"3 	c #545756",
"4 	c #545755",
"5 	c #525553",
"6 	c #515452",
"7 	c #505351",
"8 	c #505251",
"9 	c #4F5150",
"0 	c #4E5150",
"a 	c #4C504E",
"b 	c #4B4F4C",
"c 	c #494D4B",
"d 	c #494C4A",
"e 	c #484B49",
"f 	c #696C6A",
"g 	c #6A6D6B",
"h 	c #6A6E6C",
"i 	c #6B6F6D",
"j 	c #6C706D",
"k 	c #6E716F",
"l 	c #6E7370",
"m 	c #6F7471",
"n 	c #707572",
"o 	c #717573",
"p 	c #727674",
"q 	c #757775",
"r 	c #757876",
"s 	c #767877",
"t 	c #767A78",
"u 	c #787B79",
"v 	c #797D7B",
"w 	c #7B7D7B",
"x 	c #7C7F7D",
"y 	c #7E817F",
"z 	c #7E8380",
"A 	c #7F8381",
"B 	c #808482",
"C 	c #818583",
"D 	c #838784",
"E 	c #838885",
"F 	c #858987",
"G 	c #878A88",
"H 	c #7B807D",
"I 	c #7B7F7C",
"J 	c #787C7A",
"K 	c #777B78",
"L 	c #757A77",
"M 	c #747976",
"N 	c #737875",
"O 	c #717774",
"P 	c #707673",
"Q 	c #6F7572",
"R 	c #6D726F",
"S 	c #6D716E",
"T 	c #696D6B",
"U 	c #585B59",
"V 	c #667171",
"W 	c #677274",
"X 	c #697576",
"Y 	c #6D7678",
"Z 	c #6E7979",
"` 	c #707C7D",
" .	c #727C7F",
"..	c #727D81",
"+.	c #738086",
"@.	c #768187",
"#.	c #788389",
"$.	c #7B868A",
"%.	c #7E888B",
"&.	c #808A8D",
"*.	c #838C8E",
"=.	c #868E91",
"-.	c #878F92",
";.	c #8A9295",
">.	c #8C9597",
",.	c #8D969A",
"'.	c #90989B",
").	c #92989D",
"!.	c #959BA0",
"~.	c #969FA3",
"{.	c #98A1A5",
"].	c #9CA2A5",
"^.	c #9EA3A7",
"/.	c #A0A7A9",
". . . + @ # $ % & * = - ; > , ' ) ) ! ~ { ] ] ^ / ( _ : < [ } [ < | 1 2 3 4 ] 5 6 7 8 9 0 a b c d e * & % $ @ @ + . . . ",
". . + f g h i j k l m n o p q r s t u v w x y z A B C D E F G F E D C B A y H I v J K L M N O P Q m l R S j h T g + . . ",
". + U V W X Y Z `  ...+.@.#.$.%.&.*.=.-.;.>.,.'.).!.~.{.].^./.^.].{.~.!.).'.,.>.;.-.=.*.&.%.$.#.@.+... .` Z Y X W 8 + . "};
