/* XPM */
static char * bg_panel_gkrellmms_2_xpm[] = {
"60 14 127 2",
"  	c None",
". 	c #211A1A",
"+ 	c #5C4F4D",
"@ 	c #675956",
"# 	c #242624",
"$ 	c #272827",
"% 	c #292B29",
"& 	c #2B2E2B",
"* 	c #2E312E",
"= 	c #303230",
"- 	c #323532",
"; 	c #343634",
"> 	c #363936",
", 	c #393C39",
"' 	c #3A3E3A",
") 	c #3C413C",
"! 	c #3E423E",
"~ 	c #3F433F",
"{ 	c #414541",
"] 	c #424642",
"^ 	c #424742",
"/ 	c #434743",
"( 	c #444844",
"_ 	c #454B45",
": 	c #464C46",
"< 	c #474C47",
"[ 	c #484D48",
"} 	c #4A4E4A",
"| 	c #4B4F4B",
"1 	c #4C504C",
"2 	c #4D514D",
"3 	c #4D534D",
"4 	c #4B514B",
"5 	c #4A504A",
"6 	c #494F49",
"7 	c #484E48",
"8 	c #474D47",
"9 	c #464A46",
"0 	c #454945",
"a 	c #404440",
"b 	c #3D423D",
"c 	c #3C403C",
"d 	c #3B3D3B",
"e 	c #383B38",
"f 	c #363836",
"g 	c #333633",
"h 	c #313331",
"i 	c #2F312F",
"j 	c #2C2F2C",
"k 	c #2A2C2A",
"l 	c #272A27",
"m 	c #262726",
"n 	c #615450",
"o 	c #514542",
"p 	c #4C4D51",
"q 	c #4B4C50",
"r 	c #4E4F53",
"s 	c #515256",
"t 	c #55565A",
"u 	c #535458",
"v 	c #505155",
"w 	c #4F5054",
"x 	c #4D4E52",
"y 	c #494A4E",
"z 	c #47484C",
"A 	c #4A4B4F",
"B 	c #545559",
"C 	c #525357",
"D 	c #57585C",
"E 	c #58595D",
"F 	c #56575B",
"G 	c #757784",
"H 	c #7A7A84",
"I 	c #7A7B87",
"J 	c #7D7E88",
"K 	c #7F7F88",
"L 	c #7F7F8B",
"M 	c #81828C",
"N 	c #83828F",
"O 	c #85858F",
"P 	c #858590",
"Q 	c #878792",
"R 	c #8A8795",
"S 	c #8A8896",
"T 	c #8A8999",
"U 	c #8C8A9A",
"V 	c #8E8C9C",
"W 	c #8F8D9D",
"X 	c #94909E",
"Y 	c #9491A1",
"Z 	c #9693A1",
"` 	c #9995A2",
" .	c #9996A4",
"..	c #9C98A6",
"+.	c #9F9AA7",
"@.	c #9E9BA9",
"#.	c #A19DA9",
"$.	c #A19EAC",
"%.	c #A4A0AD",
"&.	c #5B5D6C",
"*.	c #61616C",
"=.	c #616270",
"-.	c #646571",
";.	c #666671",
">.	c #676675",
",.	c #696A76",
"'.	c #6B6A79",
").	c #6E6E79",
"!.	c #6E6E7B",
"~.	c #70707D",
"{.	c #737081",
"].	c #737182",
"^.	c #737285",
"/.	c #767487",
"(.	c #787689",
"_.	c #79778A",
":.	c #7F7B8C",
"<.	c #7F7C8F",
"[.	c #827E8F",
"}.	c #868190",
"|.	c #868293",
"1.	c #898495",
"2.	c #8D8796",
"3.	c #8C8899",
"4.	c #8F8A99",
"5.	c #8F8B9C",
"6.	c #938E9D",
". + @ # $ % & * = - ; > , ' ) ! ~ { ] ^ / ( _ : < [ } | 1 2 3 4 5 6 7 8 8 9 0 ( / ^ { a ~ b c d e f g h i j k l m n o . ",
". + @ p q r s t u s s v w r p x r r p y z A r s t B s v r r r r x q q p x x p q q x r v s s w p q q w s C s r x q n o . ",
". + @ r r C D E D t u s s s s s s s r r r w C F E E E F u s s s s w r v r r p x v s u t t t u r r w B F t s w r r n o . ",
". + @ G H I J K L M N O P Q R S T U V W X Y Z `  ...+.@.#.$.%.$.#.@.+... .` Z Y X W V U T S R Q P O N M L K J I H n o . ",
". + @ &.*.=.-.;.>.,.'.).!.~.{.].^./.(._.:.<.[.}.|.1.2.3.4.5.6.5.4.3.2.1.|.}.[.<.:._.(./.^.].{.~.!.).'.,.>.;.-.=.*.n o . ",
". + @ &.*.=.-.;.>.,.'.).!.~.{.].^./.(._.:.<.[.}.|.1.2.3.4.5.6.5.4.3.2.1.|.}.[.<.:._.(./.^.].{.~.!.).'.,.>.;.-.=.*.n o . ",
". + @ &.*.=.-.;.>.,.'.).!.~.{.].^./.(._.:.<.[.}.|.1.2.3.4.5.6.5.4.3.2.1.|.}.[.<.:._.(./.^.].{.~.!.).'.,.>.;.-.=.*.n o . ",
". + @ &.*.=.-.;.>.,.'.).!.~.{.].^./.(._.:.<.[.}.|.1.2.3.4.5.6.5.4.3.2.1.|.}.[.<.:._.(./.^.].{.~.!.).'.,.>.;.-.=.*.n o . ",
". + @ &.*.=.-.;.>.,.'.).!.~.{.].^./.(._.:.<.[.}.|.1.2.3.4.5.6.5.4.3.2.1.|.}.[.<.:._.(./.^.].{.~.!.).'.,.>.;.-.=.*.n o . ",
". + @ &.*.=.-.;.>.,.'.).!.~.{.].^./.(._.:.<.[.}.|.1.2.3.4.5.6.5.4.3.2.1.|.}.[.<.:._.(./.^.].{.~.!.).'.,.>.;.-.=.*.n o . ",
". + @ &.*.=.-.;.>.,.'.).!.~.{.].^./.(._.:.<.[.}.|.1.2.3.4.5.6.5.4.3.2.1.|.}.[.<.:._.(./.^.].{.~.!.).'.,.>.;.-.=.*.n o . ",
". + @ &.*.=.-.;.>.,.'.).!.~.{.].^./.(._.:.<.[.}.|.1.2.3.4.5.6.5.4.3.2.1.|.}.[.<.:._.(./.^.].{.~.!.).'.,.>.;.-.=.*.n o . ",
". + @ &.*.=.-.;.>.,.'.).!.~.{.].^./.(._.:.<.[.}.|.1.2.3.4.5.6.5.4.3.2.1.|.}.[.<.:._.(./.^.].{.~.!.).'.,.>.;.-.=.*.n o . ",
". + @ &.*.=.-.;.>.,.'.).!.~.{.].^./.(._.:.<.[.}.|.1.2.3.4.5.6.5.4.3.2.1.|.}.[.<.:._.(./.^.].{.~.!.).'.,.>.;.-.=.*.n o . "};
