/* XPM */
static char * bg_panel_gkrellmms_1_xpm[] = {
"60 14 132 2",
"  	c None",
". 	c #1E1E1E",
"+ 	c #545754",
"@ 	c #5E615E",
"# 	c #242624",
"$ 	c #272827",
"% 	c #292B29",
"& 	c #2B2E2B",
"* 	c #2E312E",
"= 	c #303230",
"- 	c #323532",
"; 	c #343634",
"> 	c #363936",
", 	c #393C39",
"' 	c #3A3E3A",
") 	c #3C413C",
"! 	c #3E423E",
"~ 	c #3F433F",
"{ 	c #414541",
"] 	c #424642",
"^ 	c #424742",
"/ 	c #434743",
"( 	c #444844",
"_ 	c #454B45",
": 	c #464C46",
"< 	c #474C47",
"[ 	c #484D48",
"} 	c #4A4E4A",
"| 	c #4B4F4B",
"1 	c #4C504C",
"2 	c #4D514D",
"3 	c #4D534D",
"4 	c #4B514B",
"5 	c #4A504A",
"6 	c #494F49",
"7 	c #484E48",
"8 	c #474D47",
"9 	c #464A46",
"0 	c #454945",
"a 	c #404440",
"b 	c #3D423D",
"c 	c #3C403C",
"d 	c #3B3D3B",
"e 	c #383B38",
"f 	c #363836",
"g 	c #333633",
"h 	c #313331",
"i 	c #2F312F",
"j 	c #2C2F2C",
"k 	c #2A2C2A",
"l 	c #272A27",
"m 	c #262726",
"n 	c #575B57",
"o 	c #494C49",
"p 	c #4C4D51",
"q 	c #4B4C50",
"r 	c #4E4F53",
"s 	c #515256",
"t 	c #55565A",
"u 	c #535458",
"v 	c #505155",
"w 	c #4F5054",
"x 	c #4D4E52",
"y 	c #494A4E",
"z 	c #47484C",
"A 	c #4A4B4F",
"B 	c #545559",
"C 	c #525357",
"D 	c #57585C",
"E 	c #58595D",
"F 	c #56575B",
"G 	c #211E1A",
"H 	c #5C5A4D",
"I 	c #676456",
"J 	c #758083",
"K 	c #7A8283",
"L 	c #7A8486",
"M 	c #7C8687",
"N 	c #7E8787",
"O 	c #7F888A",
"P 	c #818B8B",
"Q 	c #828B8D",
"R 	c #858E8E",
"S 	c #858F90",
"T 	c #869191",
"U 	c #889193",
"V 	c #889195",
"W 	c #899397",
"X 	c #8B9499",
"Y 	c #8C969B",
"Z 	c #8D969C",
"` 	c #919A9C",
" .	c #929C9F",
"..	c #949C9F",
"+.	c #969EA0",
"@.	c #97A0A2",
"#.	c #9AA1A3",
"$.	c #9CA2A4",
"%.	c #9CA5A7",
"&.	c #9EA6A7",
"*.	c #9FA6AA",
"=.	c #A1A8AB",
"-.	c #615E50",
";.	c #514F42",
">.	c #5B686C",
",.	c #616B6C",
"'.	c #616D70",
").	c #647071",
"!.	c #667171",
"~.	c #677274",
"{.	c #697576",
"].	c #6B7678",
"^.	c #6E7979",
"/.	c #6E7A7B",
"(.	c #707C7D",
"_.	c #727C7F",
":.	c #727D81",
"<.	c #737F84",
"[.	c #758086",
"}.	c #778288",
"|.	c #788389",
"1.	c #7D878A",
"2.	c #7E898D",
"3.	c #808A8D",
"4.	c #838C8E",
"5.	c #848E91",
"6.	c #878F92",
"7.	c #8A9193",
"8.	c #8A9497",
"9.	c #8C9597",
"0.	c #8D969A",
"a.	c #90989B",
". + @ # $ % & * = - ; > , ' ) ! ~ { ] ^ / ( _ : < [ } | 1 2 3 4 5 6 7 8 8 9 0 ( / ^ { a ~ b c d e f g h i j k l m n o . ",
". + @ p q r s t u s s v w r p x r r p y z A r s t B s v r r r r x q q p x x p q q x r v s s w p q q w s C s r x q n o . ",
". + @ r r C D E D t u s s s s s s s r r r w C F E E E F u s s s s w r v r r p x v s u t t t u r r w B F t s w r r n o . ",
"G H I J K L M N O P Q R S T U V W X Y Z `  ...+.@.#.$.%.&.*.=.*.&.%.$.#.@.+... .` Z Y X W V U T S R Q P O N M L K -.;.G ",
"G H I >.,.'.).!.~.{.].^./.(._.:.<.[.}.|.1.2.3.4.5.6.7.8.9.0.a.0.9.8.7.6.5.4.3.2.1.|.}.[.<.:._.(./.^.].{.~.!.).'.,.-.;.G ",
"G H I >.,.'.).!.~.{.].^./.(._.:.<.[.}.|.1.2.3.4.5.6.7.8.9.0.a.0.9.8.7.6.5.4.3.2.1.|.}.[.<.:._.(./.^.].{.~.!.).'.,.-.;.G ",
"G H I >.,.'.).!.~.{.].^./.(._.:.<.[.}.|.1.2.3.4.5.6.7.8.9.0.a.0.9.8.7.6.5.4.3.2.1.|.}.[.<.:._.(./.^.].{.~.!.).'.,.-.;.G ",
"G H I >.,.'.).!.~.{.].^./.(._.:.<.[.}.|.1.2.3.4.5.6.7.8.9.0.a.0.9.8.7.6.5.4.3.2.1.|.}.[.<.:._.(./.^.].{.~.!.).'.,.-.;.G ",
"G H I >.,.'.).!.~.{.].^./.(._.:.<.[.}.|.1.2.3.4.5.6.7.8.9.0.a.0.9.8.7.6.5.4.3.2.1.|.}.[.<.:._.(./.^.].{.~.!.).'.,.-.;.G ",
"G H I >.,.'.).!.~.{.].^./.(._.:.<.[.}.|.1.2.3.4.5.6.7.8.9.0.a.0.9.8.7.6.5.4.3.2.1.|.}.[.<.:._.(./.^.].{.~.!.).'.,.-.;.G ",
"G H I >.,.'.).!.~.{.].^./.(._.:.<.[.}.|.1.2.3.4.5.6.7.8.9.0.a.0.9.8.7.6.5.4.3.2.1.|.}.[.<.:._.(./.^.].{.~.!.).'.,.-.;.G ",
"G H I >.,.'.).!.~.{.].^./.(._.:.<.[.}.|.1.2.3.4.5.6.7.8.9.0.a.0.9.8.7.6.5.4.3.2.1.|.}.[.<.:._.(./.^.].{.~.!.).'.,.-.;.G ",
"G H I >.,.'.).!.~.{.].^./.(._.:.<.[.}.|.1.2.3.4.5.6.7.8.9.0.a.0.9.8.7.6.5.4.3.2.1.|.}.[.<.:._.(./.^.].{.~.!.).'.,.-.;.G ",
"G H I >.,.'.).!.~.{.].^./.(._.:.<.[.}.|.1.2.3.4.5.6.7.8.9.0.a.0.9.8.7.6.5.4.3.2.1.|.}.[.<.:._.(./.^.].{.~.!.).'.,.-.;.G "};
