/* XPM */
static char * bg_scroll_gkrellmms_xpm[] = {
"60 8 153 2",
"  	c None",
". 	c #1E1E1E",
"+ 	c #545754",
"@ 	c #5E615E",
"# 	c #3B3D3B",
"$ 	c #3C3E3D",
"% 	c #3D3F3E",
"& 	c #3E413F",
"* 	c #404141",
"= 	c #414341",
"- 	c #414442",
"; 	c #424443",
"> 	c #434644",
", 	c #454646",
"' 	c #464746",
") 	c #464947",
"! 	c #484A49",
"~ 	c #494C4A",
"{ 	c #4A4C4B",
"] 	c #4C4C4C",
"^ 	c #4C4D4C",
"/ 	c #4C4E4C",
"( 	c #4D4F4E",
"_ 	c #4D504E",
": 	c #4F5150",
"< 	c #505150",
"[ 	c #515351",
"} 	c #515452",
"| 	c #515553",
"1 	c #545654",
"2 	c #545755",
"3 	c #505451",
"4 	c #505351",
"5 	c #4E5150",
"6 	c #4E514F",
"7 	c #4E504E",
"8 	c #4C4E4D",
"9 	c #4B4D4C",
"0 	c #4A4C4C",
"a 	c #484C49",
"b 	c #464A48",
"c 	c #464946",
"d 	c #444746",
"e 	c #434645",
"f 	c #424643",
"g 	c #3D413E",
"h 	c #3B3E3C",
"i 	c #575B57",
"j 	c #494C49",
"k 	c #AEB0AE",
"l 	c #AFB2B0",
"m 	c #B0B3B1",
"n 	c #B2B4B3",
"o 	c #B3B4B4",
"p 	c #B4B7B4",
"q 	c #B4B8B6",
"r 	c #B6B8B7",
"s 	c #B8B9B8",
"t 	c #B8BAB9",
"u 	c #B9BBB9",
"v 	c #BABDBB",
"w 	c #BCBEBD",
"x 	c #BDC0BE",
"y 	c #BEC0BF",
"z 	c #C0C1C0",
"A 	c #C0C1C1",
"B 	c #C1C2C1",
"C 	c #C1C3C2",
"D 	c #C1C4C2",
"E 	c #C3C5C4",
"F 	c #C4C6C4",
"G 	c #C5C7C6",
"H 	c #C6C7C7",
"I 	c #C6C9C7",
"J 	c #C7CAC8",
"K 	c #C7CBC9",
"L 	c #C4C7C6",
"M 	c #C4C7C5",
"N 	c #C2C6C4",
"O 	c #C2C5C3",
"P 	c #C2C4C2",
"Q 	c #C0C2C1",
"R 	c #BFC1C0",
"S 	c #BEC1C0",
"T 	c #BCC0BD",
"U 	c #BABEBC",
"V 	c #B9BDBA",
"W 	c #B8BBB9",
"X 	c #B8BAB8",
"Y 	c #B6B9B8",
"Z 	c #B0B4B2",
"` 	c #AEB1AF",
" .	c #869386",
"..	c #879487",
"+.	c #899689",
"@.	c #8A978A",
"#.	c #8A998A",
"$.	c #8C998C",
"%.	c #8D9A8D",
"&.	c #8D9C8D",
"*.	c #909D90",
"=.	c #919E91",
"-.	c #929F92",
";.	c #92A192",
">.	c #93A293",
",.	c #94A394",
"'.	c #97A497",
").	c #98A598",
"!.	c #98A798",
"~.	c #99A899",
"{.	c #99AA99",
"].	c #9CA99C",
"^.	c #9DAA9D",
"/.	c #9DAC9D",
"(.	c #9DAE9D",
"_.	c #9FAE9F",
":.	c #A0AFA0",
"<.	c #A1B0A1",
"[.	c #A2B1A2",
"}.	c #A3B2A3",
"|.	c #A1AEA1",
"1.	c #9AA99A",
"2.	c #96A396",
"3.	c #8E9D8E",
"4.	c #8B988B",
"5.	c #5C655C",
"6.	c #5D665D",
"7.	c #5F685F",
"8.	c #5F6A5F",
"9.	c #616A61",
"0.	c #616C61",
"a.	c #636C63",
"b.	c #646D64",
"c.	c #656E65",
"d.	c #656F65",
"e.	c #657065",
"f.	c #667166",
"g.	c #687168",
"h.	c #697269",
"i.	c #697369",
"j.	c #6A746A",
"k.	c #6A756A",
"l.	c #6C756C",
"m.	c #6C776C",
"n.	c #6C786C",
"o.	c #6E786E",
"p.	c #6E796E",
"q.	c #6F796F",
"r.	c #707A70",
"s.	c #717B71",
"t.	c #6F786F",
"u.	c #626C62",
"v.	c #606960",
". + @ # $ % & * = - ; > , ' ) ! ~ { ] ^ / ( ( _ : < [ } | 1 2 1 | 3 4 5 6 7 ( 8 / 9 0 ~ a b c d e f - = * & g $ h i j . ",
". + @ k l m n o p q r s t u v w x y z A B C C D E F G H I J K J I L M N O P C B Q R S x T U V W X Y q p o n Z l ` i j . ",
". + @  ...+.@.#.$.%.&.*.=.-.;.>.,.'.).!.~.{.].^./.(._.:.<.[.}.[.<.|._.(./.^.1.~.!.!.'.2.,.;.;.-.=.3.&.%.$.4.@.+...i j . ",
". + @  ...+.@.#.$.%.&.*.=.-.;.>.,.'.).!.~.{.].^./.(._.:.<.[.}.[.<.|._.(./.^.1.~.!.!.'.2.,.;.;.-.=.3.&.%.$.4.@.+...i j . ",
". + @  ...+.@.#.$.%.&.*.=.-.;.>.,.'.).!.~.{.].^./.(._.:.<.[.}.[.<.|._.(./.^.1.~.!.!.'.2.,.;.;.-.=.3.&.%.$.4.@.+...i j . ",
". + @  ...+.@.#.$.%.&.*.=.-.;.>.,.'.).!.~.{.].^./.(._.:.<.[.}.[.<.|._.(./.^.1.~.!.!.'.2.,.;.;.-.=.3.&.%.$.4.@.+...i j . ",
". + @  ...+.@.#.$.%.&.*.=.-.;.>.,.'.).!.~.{.].^./.(._.:.<.[.}.[.<.|._.(./.^.1.~.!.!.'.2.,.;.;.-.=.3.&.%.$.4.@.+...i j . ",
". + @ 5.6.7.7.8.9.9.0.a.b.c.d.e.f.g.h.i.j.k.l.l.m.n.o.p.q.r.s.r.q.t.o.n.m.l.k.j.i.i.g.g.f.d.d.c.b.u.0.9.9.v.7.7.6.i j . "};
