/* XPM */
static char * gkrellmms_eject_button_xpm[] = {
"10 30 68 1",
" 	c None",
".	c #C4D7D8",
"+	c #849596",
"@	c #525D5E",
"#	c #93A8B0",
"$	c #7B8B8F",
"%	c #889EA7",
"&	c #78878C",
"*	c #8399A3",
"=	c #869CA5",
"-	c #78868C",
";	c #535E5E",
">	c #7B8F9C",
",	c #000000",
"'	c #8196A1",
")	c #7A888E",
"!	c #555F5F",
"~	c #778E97",
"{	c #7D8B90",
"]	c #566060",
"^	c #758B93",
"/	c #586162",
"(	c #6E848E",
"_	c #70868F",
":	c #718991",
"<	c #748894",
"[	c #758A93",
"}	c #758B95",
"|	c #839195",
"1	c #596263",
"2	c #3D5059",
"3	c #6D848D",
"4	c #5A6364",
"5	c #6C868E",
"6	c #869598",
"7	c #5C6465",
"8	c #5D6565",
"9	c #859396",
"0	c #5E6666",
"a	c #829094",
"b	c #545E61",
"c	c #4B5455",
"d	c #212526",
"e	c #2B3234",
"f	c #273336",
"g	c #5D686B",
"h	c #4F5859",
"i	c #819094",
"j	c #859497",
"k	c #879699",
"l	c #5E6565",
"m	c #5C6464",
"n	c #5A6464",
"o	c #849296",
"p	c #596363",
"q	c #576161",
"r	c #7B8E98",
"s	c #7B8E9A",
"t	c #788E9C",
"u	c #7D8C90",
"v	c #7C929E",
"w	c #7A898D",
"x	c #545F5F",
"y	c #77878B",
"z	c #77868B",
"A	c #7C8C8F",
"B	c #91A3A4",
"C	c #6F7D7D",
"       .+@",
"      .#$@",
"     .#%&@",
"    .#*=-;",
"   .#>,')!",
"  .#~,,,{]",
" .#^,,,,,/",
".#(_:<[}|1",
" ,23,,,,,4",
"  ,2555(67",
"   ,255568",
"    ,25590",
"     ,25a0",
"      ,2bc",
"       ,de",
"       ,,f",
"      ,2gh",
"     ,25i0",
"    ,255j0",
"   ,25,5kl",
"  ,25,,,6m",
" ,23,,,,,n",
".#(_:<[}op",
" .#^,,,,,q",
"  .#~rstu]",
"   .#>v'wx",
"    .#*=y;",
"     .#%z@",
"      .#A@",
"       .BC"};
