/* XPM */
static char * krell_gkrellmms_xpm[] = {
"60 4 78 1",
" 	c None",
".	c #87AFB0",
"+	c #88B3B4",
"@	c #8AB6B7",
"#	c #8BBBBC",
"$	c #8CBFC0",
"%	c #8EC3C4",
"&	c #8FC7C8",
"*	c #90CACB",
"=	c #92CECF",
"-	c #92D0D1",
";	c #91D1D1",
">	c #92D2D1",
",	c #93D3D2",
"'	c #93D4D2",
")	c #93D5D2",
"!	c #93D6D2",
"~	c #9FB897",
"{	c #E59692",
"]	c #E99A96",
"^	c #88885F",
"/	c #5C898A",
"(	c #608D8E",
"_	c #669293",
":	c #6B9798",
"<	c #709B9C",
"[	c #759FA0",
"}	c #7BA4A5",
"|	c #80A9AA",
"1	c #85ADAE",
"2	c #88AFB0",
"3	c #89B0B1",
"4	c #88B1B1",
"5	c #87B2B1",
"6	c #88B3B2",
"7	c #8B9C85",
"8	c #CA918F",
"9	c #CD8380",
"0	c #888862",
"a	c #547E80",
"b	c #588284",
"c	c #5B8587",
"d	c #5F898B",
"e	c #638D8F",
"f	c #679193",
"g	c #6B9597",
"h	c #6F999A",
"i	c #739D9E",
"j	c #749E9F",
"k	c #76A0A1",
"l	c #76A1A2",
"m	c #76A2A2",
"n	c #75A2A3",
"o	c #75A3A3",
"p	c #7D8F78",
"q	c #BB817C",
"r	c #C07A77",
"s	c #80815C",
"t	c #365152",
"u	c #385455",
"v	c #3A5758",
"w	c #3C5A5B",
"x	c #3D5D5E",
"y	c #3F6061",
"z	c #416364",
"A	c #436667",
"B	c #45696A",
"C	c #466A6B",
"D	c #466B6C",
"E	c #466C6C",
"F	c #456C6C",
"G	c #466D6D",
"H	c #466E6E",
"I	c #466F6F",
"J	c #51624C",
"K	c #884F4D",
"L	c #955B58",
"M	c #74754B",
"..+@#$%&*=----;;;;;;;;>>>>>>>>>,,,,,,''''))))))!!!!!!!! ~{]^",
"//(_:<[}|1....22222222333333333444444445555555566666666 7890",
"aabcdefghijjjj[[[[[[[[[[[[[[[[[kkkkkkkkllllllmmnnnooooo pqrs",
"ttuvwxyzABCCCCDDDDDDDDEEEEEEEEEFFFFFFFFGGGGGGHHHHHIIIII JKLM"};
