/* XPM */
static char * gkrellmms_led_indicator_xpm[] = {
"9 36 29 1",
" 	c None",
".	c #AD87CE",
"+	c #E0C9EF",
"@	c #D2BBE5",
"#	c #BB9DD6",
"$	c #D0BAE3",
"%	c #BDA0D8",
"&	c #B999D5",
"*	c #32E5DA",
"=	c #BBF6F3",
"-	c #79F6E3",
";	c #37EED6",
">	c #5BF8D8",
",	c #39F0D4",
"'	c #36EDD5",
")	c #FF5918",
"!	c #FFC8B2",
"~	c #FF8B70",
"{	c #FF5427",
"]	c #FF6C54",
"^	c #FF522B",
"/	c #FF5325",
"(	c #8BDF14",
"_	c #EAFFCA",
":	c #D5FF70",
"<	c #A0E718",
"[	c #D4FF54",
"}	c #A7E71C",
"|	c #9FE617",
"         ",
"         ",
"    ...  ",
"   .+@#. ",
"   .@$%. ",
"   .#%&  ",
"    ..   ",
"         ",
"         ",
"         ",
"         ",
"    ***  ",
"   *=-;* ",
"   *->,* ",
"   *;,'  ",
"    **   ",
"         ",
"         ",
"         ",
"         ",
"    )))  ",
"   )!~{) ",
"   )~]^) ",
"   ){^/  ",
"    ))   ",
"         ",
"         ",
"         ",
"         ",
"    (((  ",
"   (_:<( ",
"   (:[}( ",
"   (<}|  ",
"    ((   ",
"         ",
"         "};
