/* XPM */
static char * gkrellmms_next_button_xpm[] = {
"10 22 46 1",
" 	c None",
".	c #B2C9CA",
"+	c #C1D5D5",
"@	c #C2D5D6",
"#	c #C4D7D8",
"$	c #A2B7BE",
"%	c #99AEB6",
"&	c #98ABB5",
"*	c #93A8B0",
"=	c #B3CACB",
"-	c #889FA9",
";	c #89A0A8",
">	c #889EA7",
",	c #B9CFCF",
"'	c #879CA8",
")	c #000000",
"!	c #869CA5",
"~	c #778E97",
"{	c #BBD1D2",
"]	c #849AA4",
"^	c #8699A3",
"/	c #758A95",
"(	c #758B93",
"_	c #C0D4D5",
":	c #8095A0",
"<	c #7E929E",
"[	c #788E9C",
"}	c #70868F",
"|	c #6E848E",
"1	c #6E8691",
"2	c #6C868E",
"3	c #6D848D",
"4	c #3D5059",
"5	c #C9DADB",
"6	c #6B888F",
"7	c #CBDCDC",
"8	c #80959A",
"9	c #556D74",
"0	c #CADBDB",
"a	c #C5D8D9",
"b	c #7C8F9B",
"c	c #799199",
"d	c #BCD2D3",
"e	c #B9D0D0",
"f	c #B4CACC",
"g	c #ADC3C6",
"..+@#     ",
".$%&*#    ",
"=--;>*#   ",
",'')!~*#  ",
"{]]^)/(*# ",
"_::<[)}|*#",
"#112)234) ",
"566)224)  ",
"766224)   ",
"74444)    ",
"8))))     ",
"9))))     ",
"74444)    ",
"766224)   ",
"066)224)  ",
"abbc)234) ",
"+::<[)}|*#",
"d]]^)/(*# ",
"e'')!~*#  ",
"f--;>*#   ",
".%%&*#    ",
".g+@#     "};
