/* XPM */
static char * gkrellmms_play_button_xpm[] = {
"47 30 143 2",
"  	c None",
". 	c #AFC4C1",
"+ 	c #AFC4C0",
"@ 	c #B2C5C2",
"# 	c #B2C7C4",
"$ 	c #B3CAC6",
"% 	c #B5CAC6",
"& 	c #B6CBC7",
"* 	c #B6CBC8",
"= 	c #B6CDCA",
"- 	c #B9CCCA",
"; 	c #BACDCA",
"> 	c #BBCECB",
", 	c #BDCECC",
"' 	c #BCCFCC",
") 	c #BDD0CD",
"! 	c #BED1CF",
"~ 	c #C1D2D0",
"{ 	c #4D5657",
"] 	c #4C5455",
"^ 	c #4C5555",
"/ 	c #4B5455",
"( 	c #4C5655",
"_ 	c #4C5656",
": 	c #4D5656",
"< 	c #4E5656",
"[ 	c #4D5556",
"} 	c #4C5657",
"| 	c #4C5556",
"1 	c #4B5454",
"2 	c #4A5354",
"3 	c #495353",
"4 	c #495253",
"5 	c #9BAEB0",
"6 	c #9AACAF",
"7 	c #99ABAE",
"8 	c #93A7AA",
"9 	c #495252",
"0 	c #667172",
"a 	c #697476",
"b 	c #6C7778",
"c 	c #6E7A7A",
"d 	c #707C7D",
"e 	c #727C80",
"f 	c #737F84",
"g 	c #768187",
"h 	c #788389",
"i 	c #7D878A",
"j 	c #7F8A8D",
"k 	c #838C8E",
"l 	c #858E91",
"m 	c #899193",
"n 	c #8A9497",
"o 	c #8D9699",
"p 	c #90989B",
"q 	c #A1B1B4",
"r 	c #899EA4",
"s 	c #8B9FA2",
"t 	c #8A9EA1",
"u 	c #9EAFB3",
"v 	c #899CA2",
"w 	c #889CA1",
"x 	c #889C9F",
"y 	c #869A9D",
"z 	c #9EADB0",
"A 	c #879A9E",
"B 	c #84969B",
"C 	c #7F9298",
"D 	c #7D9098",
"E 	c #B7CCC9",
"F 	c #99A7AB",
"G 	c #83959A",
"H 	c #819298",
"I 	c #7C9097",
"J 	c #7E9095",
"K 	c #7D9094",
"L 	c #7B8F92",
"M 	c #95A6A9",
"N 	c #7F9196",
"O 	c #7C9195",
"P 	c #7B8E92",
"Q 	c #7A8D91",
"R 	c #798B90",
"S 	c #788D8F",
"T 	c #93A2A6",
"U 	c #798C90",
"V 	c #788C8F",
"W 	c #778A90",
"X 	c #748A8D",
"Y 	c #74888B",
"Z 	c #73878A",
"` 	c #C0D1CF",
" .	c #91A2A5",
"..	c #778C90",
"+.	c #75898E",
"@.	c #74898D",
"#.	c #73888C",
"$.	c #71888A",
"%.	c #728789",
"&.	c #43575A",
"*.	c #000000",
"=.	c #C2D5D2",
"-.	c #8D9EA2",
";.	c #778C8E",
">.	c #71898A",
",.	c #C5D6D4",
"'.	c #8B9EA1",
").	c #70888B",
"!.	c #C6D7D5",
"~.	c #8C9FA0",
"{.	c #708A8B",
"].	c #B5C4C7",
"^.	c #B2C2C4",
"/.	c #B1C0C4",
"(.	c #AFBFC1",
"_.	c #AEBEC0",
":.	c #ADBDBF",
"<.	c #AAB9BD",
"[.	c #A9B8BB",
"}.	c #A8B8BA",
"|.	c #A7B8B9",
"1.	c #A5B7B8",
"2.	c #A4B5B8",
"3.	c #A2B3B6",
"4.	c #A1B2B4",
"5.	c #9FB0B2",
"6.	c #9CAEB2",
"7.	c #9BACAF",
"8.	c #9AAAAD",
"9.	c #98A7AC",
"0.	c #95A6AB",
"a.	c #93A3A8",
"b.	c #92A1A6",
"c.	c #909FA5",
"d.	c #8F9FA4",
"e.	c #8E9FA3",
"f.	c #8D9DA1",
"g.	c #8D9CA1",
"h.	c #8A9BA0",
"i.	c #8A9B9F",
"j.	c #899B9E",
"k.	c #889A9D",
"l.	c #5A7273",
". . . . . . . . . . . . . . + @ # # $ % % & & & * = = - - - ; ; ; > , ' ) ) ! ~               ",
". { ] ] ^ / / ^ ^ ^ ^ ( _ : : : { { < { { : [ [ : : } | | ^ / 1 2 2 3 4 5 6 7 8 ~             ",
". 9 0 a b c d e f g h i j k l m n o p o n m l l k j i h g f e d c b a 0 q r s t 8 ~           ",
"@ 9 0 a b c d e f g h i j k l m n o p o n m l l k j i h g f e d c b a 0 u v w x y 8 ~         ",
"% 9 0 a b c d e f g h i j k l m n o p o n m l l k j i h g f e d c b a 0 z A A B C D 8 ~       ",
"E 9 0 a b c d e f g h i j k l m n o p o n m l l k j i h g f e d c b a 0 F G H I J K L 8 ~     ",
"; 9 0 a b c d e f g h i j k l m n o p o n m l l k j i h g f e d c b a 0 M N O P L Q R S 8 ~   ",
") 9 0 a b c d e f g h i j k l m n o p o n m l l k j i h g f e d c b a 0 T L Q U V W X Y Z 8 ~ ",
"` 9 0 a b c d e f g h i j k l m n o p o n m l l k j i h g f e d c b a 0  .U ..+.@.#.$.%.&.*.  ",
"=.9 0 a b c d e f g h i j k l m n o p o n m l l k j i h g f e d c b a 0 -.;.#.Z $.>.>.&.*.    ",
",.9 0 a b c d e f g h i j k l m n o p o n m l l k j i h g f e d c b a 0 '.#.).>.>.>.&.*.      ",
"!.9 0 a b c d e f g h i j k l m n o p o n m l l k j i h g f e d c b a 0 ~.{.>.>.>.&.*.        ",
"!.9 0 a b c d e f g h i j k l m n o p o n m l l k j i h g f e d c b a 0 -.{.>.>.&.*.          ",
"!.].^./.(._.:.<.[.}.|.1.2.3.4.5.6.7.8.9.0.a.b.b.c.d.e.f.g.h.i.j.j.j.k.k.#.{.>.>.*.            ",
"l.*.*.*.*.*.*.*.*.*.*.*.*.*.*.*.*.*.*.*.*.*.*.*.*.*.*.*.*.*.*.*.*.*.*.*.*.*.*.*.              ",
"l.*.*.*.*.*.*.*.*.*.*.*.*.*.*.*.*.*.*.*.*.*.*.*.*.*.*.*.*.*.*.*.*.*.*.*.*.*.*.*.              ",
"!.{ ] ] ^ / / ^ ^ ^ ^ ( _ : : : { { < { { : [ [ : : } | | ^ / 1 2 2 3 4 5 {.>.>.*.            ",
"!.9 0 a b c d e f g h i j k l m n o p o n m l l k j i h g f e d c b a 0 q {.>.>.&.*.          ",
"!.9 0 a b c d e f g h i j k l m n o p o n m l l k j i h g f e d c b a 0 u {.>.>.>.&.*.        ",
",.9 0 a b c d e f g h i j k l m n o p o n m l l k j i h g f e d c b a 0 z #.).>.>.>.&.*.      ",
"=.9 0 a b c d e f g h i j k l m n o p o n m l l k j i h g f e d c b a 0 F ;.#.Z $.>.>.&.*.    ",
"` 9 0 a b c d e f g h i j k l m n o p o n m l l k j i h g f e d c b a 0 M U ..+.@.#.$.%.&.*.  ",
") 9 0 a b c d e f g h i j k l m n o p o n m l l k j i h g f e d c b a 0 T L Q U V W X Y Z 8 ~ ",
"; 9 0 a b c d e f g h i j k l m n o p o n m l l k j i h g f e d c b a 0  .N O P L Q R S 8 ~   ",
"E 9 0 a b c d e f g h i j k l m n o p o n m l l k j i h g f e d c b a 0 -.G H I J K L 8 ~     ",
"% 9 0 a b c d e f g h i j k l m n o p o n m l l k j i h g f e d c b a 0 '.A A B C D 8 ~       ",
"@ 9 0 a b c d e f g h i j k l m n o p o n m l l k j i h g f e d c b a 0 ~.v w x y 8 ~         ",
". 9 0 a b c d e f g h i j k l m n o p o n m l l k j i h g f e d c b a 0 -.r s t 8 ~           ",
". ].^./.(._.:.<.[.}.|.1.2.3.4.5.6.7.8.9.0.a.b.b.c.d.e.f.g.h.i.j.j.j.k.k.#.6 7 8 ~             ",
". . . . . . . . . . . . . . + @ # # $ % % & & & * = = - - - ; ; ; > , ' ) ) ! ~               "};
