/* XPM */
static char * gkrellmms_prev_button_xpm[] = {
"10 22 42 1",
" 	c None",
".	c #C4D7D8",
"+	c #C2D5D6",
"@	c #C1D5D5",
"#	c #525D5E",
"$	c #93A8B0",
"%	c #98ABB5",
"&	c #99AEB6",
"*	c #889EA7",
"=	c #89A0A8",
"-	c #889FA9",
";	c #535E5E",
">	c #778E97",
",	c #869CA5",
"'	c #000000",
")	c #879CA8",
"!	c #555F5F",
"~	c #758B93",
"{	c #758A95",
"]	c #8699A3",
"^	c #849AA4",
"/	c #576161",
"(	c #6E848E",
"_	c #70868F",
":	c #788E9C",
"<	c #7E929E",
"[	c #8095A0",
"}	c #596263",
"|	c #3D5059",
"1	c #6D848D",
"2	c #6C868E",
"3	c #6E8691",
"4	c #5A6364",
"5	c #6B888F",
"6	c #5D6565",
"7	c #5E6666",
"8	c #5E6565",
"9	c #799199",
"0	c #7C8F9B",
"a	c #5B6464",
"b	c #596363",
"c	c #556060",
"     .+@@#",
"    .$%&&#",
"   .$*=--;",
"  .$>,'))!",
" .$~{']^^/",
".$(_':<[[}",
" '|12'2334",
"  '|22'556",
"   '|22557",
"    '|||||",
"     '''''",
"     '''''",
"    '||||7",
"   '|22557",
"  '|22'558",
" '|12'900a",
".$(_':<[[b",
" .$~{']^^/",
"  .$>,'))c",
"   .$*=--;",
"    .$%&&#",
"     .+@@#"};
