/* XPM */
static char * gkrellmms_stop_button_xpm[] = {
"19 18 53 1",
" 	c None",
".	c #B2C9CA",
"+	c #B4CACC",
"@	c #B6CBCC",
"#	c #B7CFCE",
"$	c #B9CFCE",
"%	c #7F8F94",
"&	c #7C8D92",
"*	c #7C8C91",
"=	c #7D8D91",
"-	c #7C8E92",
";	c #7E8F92",
">	c #7F9093",
",	c #7E9094",
"'	c #7F9094",
")	c #000000",
"!	c #B9CFCF",
"~	c #7F8E94",
"{	c #697B87",
"]	c #6A7D88",
"^	c #6B7E89",
"/	c #6D8189",
"(	c #6D8089",
"_	c #6D7F89",
":	c #6C7E88",
"<	c #5A6A72",
"[	c #BAD1D2",
"}	c #829296",
"|	c #6E818A",
"1	c #6D7F8B",
"2	c #6E818C",
"3	c #6E828A",
"4	c #6B7F89",
"5	c #BDD2D3",
"6	c #87949A",
"7	c #6E818E",
"8	c #71838E",
"9	c #70828F",
"0	c #6E808E",
"a	c #CADBDB",
"b	c #8D9C9F",
"c	c #748892",
"d	c #758991",
"e	c #738891",
"f	c #72868F",
"g	c #677B84",
"h	c #667C86",
"i	c #657B82",
"j	c #637882",
"k	c #CBDCDC",
"l	c #88969B",
"m	c #839297",
"n	c #556D74",
"..............+@@#$",
".%&&&**=---;>,>''%)",
"!~{]]]^)))))/(_::<)",
"[}/|122)))))3|/44<)",
"5678909)))))2|_44<)",
"abcdef9)))))ghijj<)",
"klcdef9)))))ghijj<)",
"km<<<<<<<<<<<<<<<<)",
"n))))))))))))))))))",
"n))))))))))))))))))",
"km<<<<<<<<<<<<<<<<)",
"klcdef9)))))ghijj<)",
"abcdef9)))))ghijj<)",
"5678909)))))2|_44<)",
"[}/|122)))))3|/44<)",
"!~{]]]^)))))/(_::<)",
".%&&&**=---;>,>''%)",
"..............+@@#$"};
