/* XPM */
static char * bg_panel_host_xpm[] = {
"44 12 26 1",
" 	c None",
".	c #646B6D",
"+	c #666D6F",
"@	c #686F71",
"#	c #6B7172",
"$	c #6B7476",
"%	c #6E7677",
"&	c #6F787A",
"*	c #70797B",
"=	c #717A7C",
"-	c #727B7D",
";	c #747C7D",
">	c #757D7E",
",	c #757F80",
"'	c #768081",
")	c #778182",
"!	c #788283",
"~	c #798384",
"{	c #7A8585",
"]	c #7A8787",
"^	c #7C8787",
"/	c #7D8888",
"(	c #7A8485",
"_	c #777F80",
":	c #767E7F",
"<	c #727C7D",
".+@#$%&*=-;>,')!~{]^^^/^^](~!)_:>;<**&%$#@+.",
".+@#$%&*=-;>,')!~{]^^^/^^](~!)_:>;<**&%$#@+.",
".+@#$%&*=-;>,')!~{]^^^/^^](~!)_:>;<**&%$#@+.",
".+@#$%&*=-;>,')!~{]^^^/^^](~!)_:>;<**&%$#@+.",
".+@#$%&*=-;>,')!~{]^^^/^^](~!)_:>;<**&%$#@+.",
".+@#$%&*=-;>,')!~{]^^^/^^](~!)_:>;<**&%$#@+.",
".+@#$%&*=-;>,')!~{]^^^/^^](~!)_:>;<**&%$#@+.",
".+@#$%&*=-;>,')!~{]^^^/^^](~!)_:>;<**&%$#@+.",
".+@#$%&*=-;>,')!~{]^^^/^^](~!)_:>;<**&%$#@+.",
".+@#$%&*=-;>,')!~{]^^^/^^](~!)_:>;<**&%$#@+.",
".+@#$%&*=-;>,')!~{]^^^/^^](~!)_:>;<**&%$#@+.",
".+@#$%&*=-;>,')!~{]^^^/^^](~!)_:>;<**&%$#@+."};
