/* XPM */
static char * bg_chart_xpm[] = {
"60 4 54 1",
" 	c None",
".	c #272E36",
"+	c #282F36",
"@	c #283037",
"#	c #293138",
"$	c #2A3239",
"%	c #2C333B",
"&	c #2E353C",
"*	c #30373E",
"=	c #323940",
"-	c #343B43",
";	c #363E45",
">	c #394048",
",	c #3B434A",
"'	c #3E454D",
")	c #41484F",
"!	c #434B52",
"~	c #464E55",
"{	c #495058",
"]	c #4B535A",
"^	c #4E555D",
"/	c #50575F",
"(	c #525961",
"_	c #545B63",
":	c #555D64",
"<	c #565E66",
"[	c #575F67",
"}	c #586067",
"|	c #596068",
"1	c #586068",
"2	c #575F66",
"3	c #565E65",
"4	c #555C64",
"5	c #535B62",
"6	c #515960",
"7	c #4F575E",
"8	c #4D545C",
"9	c #4A5259",
"0	c #484F57",
"a	c #454D54",
"b	c #434A51",
"c	c #40474F",
"d	c #3E454C",
"e	c #373E46",
"f	c #353C43",
"g	c #333A41",
"h	c #313840",
"i	c #2F363E",
"j	c #2D353C",
"k	c #2B3239",
"l	c #2A3138",
"m	c #293037",
"n	c #282F37",
"o	c #272F36",
"..+@#$%&*=-;>,')!~{]^/(_:<[}||1}234567890abcd,>efghij%klmno.",
"..+@#$%&*=-;>,')!~{]^/(_:<[}||1}234567890abcd,>efghij%klmno.",
"..+@#$%&*=-;>,')!~{]^/(_:<[}||1}234567890abcd,>efghij%klmno.",
"..+@#$%&*=-;>,')!~{]^/(_:<[}||1}234567890abcd,>efghij%klmno."};
