/* XPM */
static char * bg_grid_xpm[] = {
"60 2 92 2",
"  	c None",
". 	c #000000",
"+ 	c #010101",
"@ 	c #020202",
"# 	c #030303",
"$ 	c #040405",
"% 	c #050606",
"& 	c #060708",
"* 	c #080909",
"= 	c #0A0A0B",
"- 	c #0B0C0D",
"; 	c #0D0E0F",
"> 	c #0F1011",
", 	c #101213",
"' 	c #121415",
") 	c #141617",
"! 	c #161819",
"~ 	c #17191B",
"{ 	c #191B1D",
"] 	c #1A1D1F",
"^ 	c #1C1E20",
"/ 	c #1D1F22",
"( 	c #1E2023",
"_ 	c #1F2124",
": 	c #1F2225",
"< 	c #202325",
"[ 	c #202326",
"} 	c #202225",
"| 	c #1E2124",
"1 	c #1D1F21",
"2 	c #1B1E20",
"3 	c #1A1C1E",
"4 	c #181B1D",
"5 	c #151719",
"6 	c #131517",
"7 	c #121315",
"8 	c #101113",
"9 	c #0E1011",
"0 	c #0A0B0C",
"a 	c #09090A",
"b 	c #070809",
"c 	c #060707",
"d 	c #050506",
"e 	c #040404",
"f 	c #43505C",
"g 	c #44505D",
"h 	c #45515D",
"i 	c #46525E",
"j 	c #47535F",
"k 	c #485561",
"l 	c #4A5662",
"m 	c #4C5864",
"n 	c #4E5A66",
"o 	c #505C68",
"p 	c #535F6A",
"q 	c #56616D",
"r 	c #58646F",
"s 	c #5B6672",
"t 	c #5E6974",
"u 	c #606C77",
"v 	c #636E79",
"w 	c #66717C",
"x 	c #69737E",
"y 	c #6B7680",
"z 	c #6D7882",
"A 	c #6F7A84",
"B 	c #717C86",
"C 	c #737D87",
"D 	c #747E89",
"E 	c #757F89",
"F 	c #76808A",
"G 	c #76808B",
"H 	c #747E88",
"I 	c #727D87",
"J 	c #717B85",
"K 	c #6F7984",
"L 	c #6D7782",
"M 	c #6A7580",
"N 	c #68737D",
"O 	c #65707B",
"P 	c #626D78",
"Q 	c #606B76",
"R 	c #5D6873",
"S 	c #5A6671",
"T 	c #545F6B",
"U 	c #515D69",
"V 	c #4F5B67",
"W 	c #4D5965",
"X 	c #475360",
"Y 	c #46525F",
"Z 	c #45515E",
"` 	c #44515D",
". . . . + @ # $ % & * = - ; > , ' ) ! ~ { ] ^ / ( _ : < [ [ [ } : | ( 1 2 3 4 ~ 5 6 7 8 9 ; - 0 a b c d e # @ + + . . . ",
"f f g h i j k l m n o p q r s t u v w x y z A B C D E F F G F F E H I J K L M N O P Q R S r q T U V W m l k X Y Z ` g f "};
