/* XPM */
static char * bg_panel_xpm[] = {
"60 14 262 2",
"  	c None",
". 	c #596365",
"+ 	c #6E7A7C",
"@ 	c #6F7C7D",
"# 	c #717C7E",
"$ 	c #727E80",
"% 	c #737E81",
"& 	c #747F82",
"* 	c #748083",
"= 	c #758183",
"- 	c #778283",
"; 	c #778383",
"> 	c #616A6B",
", 	c #ADB5B5",
"' 	c #9AA5A6",
") 	c #9AA6A7",
"! 	c #9BA7A7",
"~ 	c #9CA7A8",
"{ 	c #9EA8A9",
"] 	c #9EA9AA",
"^ 	c #9FAAAB",
"/ 	c #A0ACAC",
"( 	c #A1ACAD",
"_ 	c #A1ACAF",
": 	c #B3BCBF",
"< 	c #6A7376",
"[ 	c #838E91",
"} 	c #838E92",
"| 	c #848F93",
"1 	c #869194",
"2 	c #889295",
"3 	c #899295",
"4 	c #B3BCC0",
"5 	c #A1ACB0",
"6 	c #ADB6B7",
"7 	c #636B6B",
"8 	c #788384",
"9 	c #586162",
"0 	c #404748",
"a 	c #4F585A",
"b 	c #51595B",
"c 	c #515A5C",
"d 	c #515B5E",
"e 	c #525C5F",
"f 	c #535D60",
"g 	c #545F60",
"h 	c #565F61",
"i 	c #576061",
"j 	c #474F50",
"k 	c #8C9394",
"l 	c #757F80",
"m 	c #778081",
"n 	c #788182",
"o 	c #798182",
"p 	c #7B8283",
"q 	c #7B8384",
"r 	c #7B8486",
"s 	c #7D8687",
"t 	c #7E8788",
"u 	c #7F8789",
"v 	c #959C9D",
"w 	c #52585B",
"x 	c #666D70",
"y 	c #666F70",
"z 	c #676F72",
"A 	c #697072",
"B 	c #6A7073",
"C 	c #6A7173",
"D 	c #949D9D",
"E 	c #80888A",
"F 	c #8C9495",
"G 	c #495052",
"H 	c #3F4546",
"I 	c #667778",
"J 	c #67787B",
"K 	c #697A7D",
"L 	c #6A7C7F",
"M 	c #6B7D81",
"N 	c #6E8084",
"O 	c #708186",
"P 	c #728387",
"Q 	c #748589",
"R 	c #77878B",
"S 	c #79898C",
"T 	c #7B8B8D",
"U 	c #7D8D8F",
"V 	c #7F9092",
"W 	c #829294",
"X 	c #839395",
"Y 	c #859497",
"Z 	c #879699",
"` 	c #89989B",
" .	c #8C9A9D",
"..	c #8E9C9F",
"+.	c #919EA1",
"@.	c #93A0A3",
"#.	c #95A2A5",
"$.	c #95A3A7",
"%.	c #96A5A9",
"&.	c #98A7AB",
"*.	c #9AA8AC",
"=.	c #9CA9AD",
"-.	c #9EAAAE",
";.	c #9FABAF",
">.	c #627275",
",.	c #667676",
"'.	c #66787A",
").	c #687A7C",
"!.	c #6B7B7D",
"~.	c #6C7D7F",
"{.	c #6E8082",
"].	c #708285",
"^.	c #728287",
"/.	c #738489",
"(.	c #75868A",
"_.	c #77888C",
":.	c #798A8E",
"<.	c #7B8C90",
"[.	c #7E8E92",
"}.	c #809094",
"|.	c #829195",
"1.	c #849496",
"2.	c #869698",
"3.	c #88979A",
"4.	c #8A9A9C",
"5.	c #8D9C9E",
"6.	c #8F9DA0",
"7.	c #919FA1",
"8.	c #95A1A6",
"9.	c #97A4A9",
"0.	c #647577",
"a.	c #4B5353",
"b.	c #565F5F",
"c.	c #616D6E",
"d.	c #647374",
"e.	c #637475",
"f.	c #647678",
"g.	c #687879",
"h.	c #697A7A",
"i.	c #6B7E7E",
"j.	c #6D7D80",
"k.	c #6D7E83",
"l.	c #708185",
"m.	c #718287",
"n.	c #738589",
"o.	c #76878B",
"p.	c #78898C",
"q.	c #7A8B8E",
"r.	c #7D8C8F",
"s.	c #7F8F93",
"t.	c #839396",
"u.	c #869598",
"v.	c #87969A",
"w.	c #8A989B",
"x.	c #8C999D",
"y.	c #8F9CA0",
"z.	c #909FA3",
"A.	c #92A1A5",
"B.	c #97A4A7",
"C.	c #99A7A9",
"D.	c #535D5C",
"E.	c #485152",
"F.	c #303130",
"G.	c #545754",
"H.	c #5D6969",
"I.	c #607172",
"J.	c #607275",
"K.	c #647576",
"L.	c #6A7B7E",
"M.	c #6D7E7F",
"N.	c #6E7F81",
"O.	c #708283",
"P.	c #728285",
"Q.	c #718388",
"R.	c #73858A",
"S.	c #76858A",
"T.	c #78888E",
"U.	c #79898E",
"V.	c #7D8D90",
"W.	c #7F8F92",
"X.	c #809093",
"Y.	c #839294",
"Z.	c #8B9A9E",
"`.	c #8D9B9E",
" +	c #919FA2",
".+	c #454745",
"++	c #5C6969",
"@+	c #5E6F6F",
"#+	c #5E7073",
"$+	c #617374",
"%+	c #637474",
"&+	c #667879",
"*+	c #68797B",
"=+	c #6B7C7C",
"-+	c #6B7D7E",
";+	c #6D8080",
">+	c #6F7F82",
",+	c #6E8085",
"'+	c #6F8288",
")+	c #738288",
"!+	c #74858B",
"~+	c #75868C",
"{+	c #7A8A8D",
"]+	c #808F91",
"^+	c #819194",
"/+	c #869597",
"(+	c #87979A",
"_+	c #89989A",
":+	c #8A999D",
"<+	c #5C6968",
"[+	c #3F413F",
"}+	c #596160",
"|+	c #5B6868",
"1+	c #545C5A",
"2+	c #2C2D2C",
"3+	c #505350",
"4+	c #434543",
"5+	c #3D403D",
"6+	c #292A29",
"7+	c #0F0F0F",
"8+	c #5E615E",
"9+	c #596B6E",
"0+	c #575B57",
"a+	c #3B3D3B",
"b+	c #79898D",
"c+	c #7B8B8F",
"d+	c #829295",
"e+	c #859496",
"f+	c #869699",
"g+	c #4A4E4A",
"h+	c #333533",
"i+	c #000000",
"j+	c #2F312F",
"k+	c #3D4D50",
"l+	c #4A5D5F",
"m+	c #4B5E62",
"n+	c #4D6062",
"o+	c #4E6162",
"p+	c #4F6265",
"q+	c #516466",
"r+	c #526568",
"s+	c #546768",
"t+	c #54686A",
"u+	c #556A6C",
"v+	c #576A6D",
"w+	c #576B70",
"x+	c #576C72",
"y+	c #5A6C72",
"z+	c #5B6F74",
"A+	c #5C6F75",
"B+	c #5E7175",
"C+	c #607376",
"D+	c #627477",
"E+	c #65777A",
"F+	c #66777B",
"G+	c #68797C",
"H+	c #697B7E",
"I+	c #6B7C7F",
"J+	c #6C7D81",
"K+	c #6E7E82",
"L+	c #3F5051",
"M+	c #2C2E2C",
". + @ # $ % & * = - ; > , ' ) ! ~ { ] ^ / ( _ : < [ } | 1 2 3 2 1 | } < 4 5 _ ( / ^ ] { ~ ! ) 6 7 8 ; - = * & % $ # @ 9 ",
"0 a b c d e f g h i 9 j k l m n o p q r s t u v w x y z A B C B A z y w D E u t s r q p o n m F G 9 9 i h g f e d c b H ",
"I J K L M N O P Q R S T U V W X Y Z `  ...+.@.#.$.%.&.*.=.-.;.-.=.*.&.%.$.#.@.+... .` Z Y X W V U T S R Q P O N M L K >.",
",.'.).!.~.{.].^./.(._.:.<.[.}.|.1.2.3.4.5.6.7.@.8.9.&.*.=.-.;.-.=.*.&.9.8.@.7.6.5.4.3.2.1.|.}.[.<.:._.(./.^.].{.~.!.).0.",
"a.b.c.d.e.f.g.h.i.j.k.l.m.n.o.p.q.r.s.}.t.u.v.w.x.y.z.A.#.B.C.B.#.A.z.y.x.w.v.u.t.}.s.r.q.p.o.n.m.l.k.j.i.h.g.f.c.c.D.E.",
"F.G.H.H.I.J.K.,.'.).L.M.N.O.P.Q.R.S.T.U.V.W.X.Y.Y Z ` Z.`.6. +6.`.Z.` Z Y Y.X.W.V.U.T.S.R.Q.P.O.N.M.L.).'.,.K.J.c.c.G..+",
"F.G.H.++@+#+$+%+0.&+*+=+-+;+>+,+'+)+!+~+{+<.V.]+^+t./+(+_+:+`.:+_+(+/+t.^+]+V.<.{+~+!+)+'+,+>+;+-+=+*+&+0.%+$+#+<+H.G.[+",
"F.G.}+++@+#+$+%+0.&+*+=+-+;+>+,+'+)+!+~+{+<.V.]+^+t./+(+_+:+`.:+_+(+/+t.^+]+V.<.{+~+!+)+'+,+>+;+-+=+*+&+0.%+$+#+|+1+G.2+",
"F.G.}+++@+#+$+%+0.&+*+=+-+;+>+,+'+)+!+~+{+<.V.]+^+t./+(+_+:+`.:+_+(+/+t.^+]+V.<.{+~+!+)+'+,+>+;+-+=+*+&+0.%+$+#+|+1+G.2+",
"F.3+}+++@+#+$+%+0.&+*+=+-+;+>+,+'+)+!+~+{+<.V.]+^+t./+(+_+:+`.:+_+(+/+t.^+]+V.<.{+~+!+)+'+,+>+;+-+=+*+&+0.%+$+#+|+1+3+2+",
"2+4+}+++@+#+$+%+0.&+*+=+-+;+>+,+'+)+!+~+{+<.V.]+^+t./+(+_+:+`.:+_+(+/+t.^+]+V.<.{+~+!+)+'+,+>+;+-+=+*+&+0.%+$+#+|+1+5+6+",
"7+5+8+9+@+#+$+%+0.&+*+=+-+;+>+,+'+)+!+~+{+<.V.]+^+t./+(+_+:+`.:+_+(+/+t.^+]+V.<.{+~+!+)+'+,+>+;+-+=+*+&+0.%+$+#+|+0+5+7+",
"7+a+3+9+@+#+$+%+0.&+*+=+-+;+>+,+'+)+!+~+b+c+V.]+^+d+e+f+_+:+`.:+_+f+e+d+^+]+V.c+b+~+!+)+'+,+>+;+-+=+*+&+0.%+$+#+|+g+h+7+",
"i+i+j+k+l+m+n+o+p+q+r+s+t+u+v+w+x+y+z+A+B+C+D+f.E+F+G+H+I+J+K+J+I+H+G+F+E+f.D+C+B+A+z+y+x+w+v+u+t+s+r+q+p+o+n+m+L+M+i+i+"};
