/* XPM */
static char * bg_separator_xpm[] = {
"60 2 75 1",
" 	c None",
".	c #596365",
"+	c #6E7A7C",
"@	c #6F7C7D",
"#	c #717C7E",
"$	c #727E80",
"%	c #737E81",
"&	c #747F82",
"*	c #748083",
"=	c #758183",
"-	c #778283",
";	c #778383",
">	c #616A6B",
",	c #ADB5B5",
"'	c #9AA5A6",
")	c #9AA6A7",
"!	c #9BA7A7",
"~	c #9CA7A8",
"{	c #9EA8A9",
"]	c #9EA9AA",
"^	c #9FAAAB",
"/	c #A0ACAC",
"(	c #A1ACAD",
"_	c #A1ACAF",
":	c #B3BCBF",
"<	c #6A7376",
"[	c #838E91",
"}	c #838E92",
"|	c #848F93",
"1	c #869194",
"2	c #889295",
"3	c #899295",
"4	c #B3BCC0",
"5	c #A1ACB0",
"6	c #ADB6B7",
"7	c #636B6B",
"8	c #788384",
"9	c #586162",
"0	c #3F4647",
"a	c #4E5759",
"b	c #50585A",
"c	c #50595B",
"d	c #505A5D",
"e	c #515B5D",
"f	c #525C5E",
"g	c #535D5E",
"h	c #555D5F",
"i	c #565E60",
"j	c #575F61",
"k	c #464E4F",
"l	c #8A9192",
"m	c #747D7F",
"n	c #767F80",
"o	c #768081",
"p	c #778081",
"q	c #798182",
"r	c #798282",
"s	c #798284",
"t	c #7B8485",
"u	c #7C8586",
"v	c #7D8587",
"w	c #939A9B",
"x	c #51575A",
"y	c #656B6E",
"z	c #656D6F",
"A	c #666D71",
"B	c #686E71",
"C	c #696F72",
"D	c #697072",
"E	c #929B9B",
"F	c #7F8688",
"G	c #8A9293",
"H	c #484F51",
"I	c #576061",
"J	c #3E4445",
".+@#$%&*=-;>,')!~{]^/(_:<[}|12321|}<45_(/^]{~!)678;-=*&%$#@9",
"0abcdefghijklmnopqrstuvwxyzABCDCBAzxEFvutsrqponGHIjihgfedcbJ"};
