/* XPM */
static char * button_panel_out_xpm[] = {
"40 14 64 1",
" 	c None",
".	c #899989",
"+	c #839183",
"@	c #849384",
"#	c #859485",
"$	c #879687",
"%	c #889788",
"&	c #8B9B8B",
"*	c #8C9D8C",
"=	c #8D9E8D",
"-	c #8FA08F",
";	c #90A290",
">	c #91A391",
",	c #91A591",
"'	c #93A793",
")	c #94A894",
"!	c #95A995",
"~	c #96AA96",
"{	c #97AC97",
"]	c #99AD99",
"^	c #93A893",
"/	c #92A692",
"(	c #91A491",
"_	c #8FA18F",
":	c #8E9F8E",
"<	c #8B9C8B",
"[	c #8A9A8A",
"}	c #869586",
"|	c #849284",
"1	c #829182",
"2	c #424A42",
"3	c #414941",
"4	c #404840",
"5	c #3E463E",
"6	c #434B43",
"7	c #454D45",
"8	c #464E46",
"9	c #475047",
"0	c #485148",
"a	c #485248",
"b	c #495449",
"c	c #4A554A",
"d	c #4B574B",
"e	c #4C584C",
"f	c #4E584E",
"g	c #4F594F",
"h	c #505B50",
"i	c #515C51",
"j	c #525D52",
"k	c #535E53",
"l	c #546054",
"m	c #525E52",
"n	c #515D51",
"o	c #505C50",
"p	c #4F5A4F",
"q	c #4E594E",
"r	c #4D584D",
"s	c #4C574C",
"t	c #4B564B",
"u	c #495349",
"v	c #485048",
"w	c #474F47",
"x	c #444C44",
"y	c #849584",
"..+@#$%.&*=-;>,')!~{]{~!^/(>_:=<[.%}#|12",
"..+@#$%.&*=-;>,')!~{]{~!^/(>_:=<[.%}#|34",
"..                                    55",
"..                                    55",
"..                                    55",
"..                                    55",
"..                                    55",
"..                                    55",
"..                                    55",
"..                                    55",
"..                                    55",
"..                                    55",
"115467890abcdefghijklmnopqrstcuavw8x2444",
"y45467890abcdefghijklmnopqrstcuavw8x2444"};
