/* XPM */
static char * button_meter_in_xpm[] = {
"40 14 64 1",
" 	c None",
".	c #3E463E",
"+	c #404840",
"@	c #434B43",
"#	c #454D45",
"$	c #464E46",
"%	c #475047",
"&	c #485148",
"*	c #485248",
"=	c #495449",
"-	c #4A554A",
";	c #4B574B",
">	c #4C584C",
",	c #4E584E",
"'	c #4F594F",
")	c #505B50",
"!	c #515C51",
"~	c #525D52",
"{	c #535E53",
"]	c #546054",
"^	c #525E52",
"/	c #515D51",
"(	c #505C50",
"_	c #4F5A4F",
":	c #4E594E",
"<	c #4D584D",
"[	c #4C574C",
"}	c #4B564B",
"|	c #495349",
"1	c #485048",
"2	c #474F47",
"3	c #444C44",
"4	c #424A42",
"5	c #414941",
"6	c #849584",
"7	c #899989",
"8	c #829182",
"9	c #839183",
"0	c #849384",
"a	c #859485",
"b	c #879687",
"c	c #889788",
"d	c #8B9B8B",
"e	c #8C9D8C",
"f	c #8D9E8D",
"g	c #8FA08F",
"h	c #90A290",
"i	c #91A391",
"j	c #91A591",
"k	c #93A793",
"l	c #94A894",
"m	c #95A995",
"n	c #96AA96",
"o	c #97AC97",
"p	c #99AD99",
"q	c #93A893",
"r	c #92A692",
"s	c #91A491",
"t	c #8FA18F",
"u	c #8E9F8E",
"v	c #8B9C8B",
"w	c #8A9A8A",
"x	c #869586",
"y	c #849284",
"...+@#$%&*=-;>,')!~{]^/(_:<[}-|*12$34+44",
"...+@#$%&*=-;>,')!~{]^/(_:<[}-|*12$34+56",
"..                                    77",
"..                                    77",
"..                                    77",
"..                                    77",
"..                                    77",
"..                                    77",
"..                                    77",
"..                                    77",
"..                                    77",
"..                                    77",
"4890abc7defghijklmnoponmqrsitufvw7cxay97",
"6890abc7defghijklmnoponmqrsitufvw7cxay97"};
