/* XPM */
static char * data_in_grid_xpm[] = {
"60 2 107 2",
"  	c None",
". 	c #009494",
"+ 	c #009696",
"@ 	c #009898",
"# 	c #009999",
"$ 	c #009B9B",
"% 	c #009C9C",
"& 	c #009E9E",
"* 	c #00A0A0",
"= 	c #00A1A1",
"- 	c #00A3A3",
"; 	c #00A5A5",
"> 	c #00A6A6",
", 	c #00A8A8",
"' 	c #00AAAA",
") 	c #00ABAB",
"! 	c #00ADAD",
"~ 	c #00AFAF",
"{ 	c #00B1B1",
"] 	c #00B2B2",
"^ 	c #00B4B4",
"/ 	c #00B6B6",
"( 	c #00B8B8",
"_ 	c #00B9B9",
": 	c #00BBBB",
"< 	c #00BDBD",
"[ 	c #00BFBF",
"} 	c #00C1C1",
"| 	c #00C2C2",
"1 	c #00C4C4",
"2 	c #00C3C3",
"3 	c #00C0C0",
"4 	c #00BEBE",
"5 	c #00BCBC",
"6 	c #00BABA",
"7 	c #00B7B7",
"8 	c #00B5B5",
"9 	c #00B3B3",
"0 	c #00B0B0",
"a 	c #00AEAE",
"b 	c #00ACAC",
"c 	c #00A9A9",
"d 	c #00A7A7",
"e 	c #00A4A4",
"f 	c #00A2A2",
"g 	c #009D9D",
"h 	c #009A9A",
"i 	c #009797",
"j 	c #00D8D8",
"k 	c #05D9D9",
"l 	c #0BDBDB",
"m 	c #11DCDC",
"n 	c #17DDDD",
"o 	c #1DDEDE",
"p 	c #23E0E0",
"q 	c #29E1E1",
"r 	c #2EE2E2",
"s 	c #34E4E4",
"t 	c #3AE5E5",
"u 	c #40E6E6",
"v 	c #46E8E8",
"w 	c #4CE9E9",
"x 	c #52EAEA",
"y 	c #58ECEC",
"z 	c #5EEDED",
"A 	c #64EFEF",
"B 	c #6AF0F0",
"C 	c #70F1F1",
"D 	c #77F3F3",
"E 	c #7DF4F4",
"F 	c #83F6F6",
"G 	c #89F7F7",
"H 	c #8FF8F8",
"I 	c #95FAFA",
"J 	c #9CFBFB",
"K 	c #A2FDFD",
"L 	c #A8FEFE",
"M 	c #A6FEFE",
"N 	c #A0FCFC",
"O 	c #9AFBFB",
"P 	c #93F9F9",
"Q 	c #8DF8F8",
"R 	c #87F6F6",
"S 	c #80F5F5",
"T 	c #7AF4F4",
"U 	c #74F2F2",
"V 	c #6DF1F1",
"W 	c #67EFEF",
"X 	c #61EEEE",
"Y 	c #5AECEC",
"Z 	c #54EBEB",
"` 	c #4FEAEA",
" .	c #4AE9E9",
"..	c #45E8E8",
"+.	c #40E7E7",
"@.	c #3BE5E5",
"#.	c #36E4E4",
"$.	c #31E3E3",
"%.	c #2CE2E2",
"&.	c #27E1E1",
"*.	c #22E0E0",
"=.	c #1DDFDF",
"-.	c #18DDDD",
";.	c #13DCDC",
">.	c #0EDBDB",
",.	c #09DADA",
"'.	c #04D9D9",
". + @ # $ % & * = - ; > , ' ) ! ~ { ] ^ / ( _ : < [ } | 1 2 } 3 4 5 6 _ 7 8 9 { 0 a b ) c , d ; e f = * & g $ h @ i + . ",
"j k l m n o p q r s t u v w x y z A B C D E F G H I J K L M N O P Q R S T U V W X Y Z `  ...+.@.#.$.%.&.*.=.-.;.>.,.'.j "};
