/* XPM */
static char * data_in_xpm[] = {
"60 4 59 1",
" 	c None",
".	c #459292",
"+	c #439696",
"@	c #419A9A",
"#	c #3E9D9D",
"$	c #3CA1A1",
"%	c #3AA4A4",
"&	c #37A8A8",
"*	c #35ACAC",
"=	c #33AFAF",
"-	c #30B3B3",
";	c #2EB6B6",
">	c #2CBABA",
",	c #29BEBE",
"'	c #27C1C1",
")	c #25C5C5",
"!	c #22C8C8",
"~	c #20CCCC",
"{	c #1DD0D0",
"]	c #1BD4D4",
"^	c #18D8D8",
"/	c #16DCDC",
"(	c #13E0E0",
"_	c #11E4E4",
":	c #0EE8E8",
"<	c #0CECEC",
"[	c #09EFEF",
"}	c #07F3F3",
"|	c #04F7F7",
"1	c #02FBFB",
"2	c #00FEFE",
"3	c #02FAFA",
"4	c #05F6F6",
"5	c #08F2F2",
"6	c #0AEEEE",
"7	c #0DEAEA",
"8	c #0FE6E6",
"9	c #12E2E2",
"0	c #15DEDE",
"a	c #17DADA",
"b	c #1AD6D6",
"c	c #1CD2D2",
"d	c #1FCECE",
"e	c #22C9C9",
"f	c #24C6C6",
"g	c #26C3C3",
"h	c #28C0C0",
"i	c #2ABDBD",
"j	c #2EB7B7",
"k	c #30B4B4",
"l	c #32B1B1",
"m	c #34AEAE",
"n	c #36ABAB",
"o	c #39A5A5",
"p	c #3BA2A2",
"q	c #3D9F9F",
"r	c #3F9B9B",
"s	c #419898",
"t	c #439595",
".+@#$%&*=-;>,')!~{]^/(_:<[}|1234567890abcdefghi>jklmn&opqrst",
".+@#$%&*=-;>,')!~{]^/(_:<[}|1234567890abcdefghi>jklmn&opqrst",
".+@#$%&*=-;>,')!~{]^/(_:<[}|1234567890abcdefghi>jklmn&opqrst",
".+@#$%&*=-;>,')!~{]^/(_:<[}|1234567890abcdefghi>jklmn&opqrst"};
