/* XPM */
static char * data_out_grid_xpm[] = {
"60 2 110 2",
"  	c None",
". 	c #986B2E",
"+ 	c #9A6D30",
"@ 	c #9B6F31",
"# 	c #9D7033",
"$ 	c #9F7234",
"% 	c #A07436",
"& 	c #A27637",
"* 	c #A47839",
"= 	c #A57A3B",
"- 	c #A77B3C",
"; 	c #A97D3E",
"> 	c #AA7F3F",
", 	c #AC8141",
"' 	c #AE8342",
") 	c #AF8544",
"! 	c #B18646",
"~ 	c #B38847",
"{ 	c #B48A49",
"] 	c #B68C4B",
"^ 	c #B88E4C",
"/ 	c #BA904E",
"( 	c #BB9250",
"_ 	c #BD9451",
": 	c #BF9653",
"< 	c #C19855",
"[ 	c #C29A56",
"} 	c #C49B58",
"| 	c #C69D59",
"1 	c #C89F5B",
"2 	c #C79F5B",
"3 	c #C49B57",
"4 	c #C29956",
"5 	c #C09754",
"6 	c #BE9552",
"7 	c #BC9350",
"8 	c #BA914F",
"9 	c #B98F4D",
"0 	c #B78D4B",
"a 	c #B58B49",
"b 	c #B38948",
"c 	c #B18746",
"d 	c #B08544",
"e 	c #AE8343",
"f 	c #AD8242",
"g 	c #AB8040",
"h 	c #A77C3C",
"i 	c #A67A3B",
"j 	c #A5793A",
"k 	c #A37738",
"l 	c #9F7334",
"m 	c #9E7133",
"n 	c #9C7032",
"o 	c #9B6E31",
"p 	c #996C2F",
"q 	c #E3A045",
"r 	c #E4A247",
"s 	c #E5A449",
"t 	c #E6A64C",
"u 	c #E7A84E",
"v 	c #E8AA50",
"w 	c #E9AC52",
"x 	c #EAAE55",
"y 	c #EBB057",
"z 	c #ECB259",
"A 	c #ECB45C",
"B 	c #EDB65E",
"C 	c #EEB760",
"D 	c #EFB962",
"E 	c #F0BB65",
"F 	c #F1BD67",
"G 	c #F2BF69",
"H 	c #F3C26C",
"I 	c #F4C46E",
"J 	c #F5C671",
"K 	c #F6C873",
"L 	c #F7CA76",
"M 	c #F8CC78",
"N 	c #F9CE7B",
"O 	c #FAD07D",
"P 	c #FBD380",
"Q 	c #FCD582",
"R 	c #FDD785",
"S 	c #FED987",
"T 	c #FEDA89",
"U 	c #FDD886",
"V 	c #FCD684",
"W 	c #FBD481",
"X 	c #FAD27F",
"Y 	c #F9D07C",
"Z 	c #F8CE7A",
"` 	c #F7CB77",
" .	c #F6C975",
"..	c #F5C772",
"+.	c #F4C570",
"@.	c #F3C36D",
"#.	c #F2C16B",
"$.	c #F1BE68",
"%.	c #F1BD66",
"&.	c #F0BB64",
"*.	c #EDB45C",
"=.	c #ECB25A",
"-.	c #EBB158",
";.	c #EAAF56",
">.	c #EAAD54",
",.	c #E8AA51",
"'.	c #E7A84F",
").	c #E7A74D",
"!.	c #E6A54B",
"~.	c #E5A349",
". + @ # $ % & * = - ; > , ' ) ! ~ { ] ^ / ( _ : < [ } | 1 2 | 3 4 5 6 7 8 9 0 a b c d e f g > ; h i j k & % l m n o p . ",
"q r s t u v w x y z A B C D E F G H I J K L M N O P Q R S T U V W X Y Z `  ...+.@.#.$.%.&.D C B *.=.-.;.>.w ,.'.).!.~.r "};
