/* XPM */
static char * data_out_xpm[] = {
"60 4 59 1",
" 	c None",
".	c #AF7B35",
"+	c #B27E37",
"@	c #B48139",
"#	c #B7833B",
"$	c #BA863D",
"%	c #BC8840",
"&	c #BF8B42",
"*	c #C18E44",
"=	c #C49046",
"-	c #C79348",
";	c #C9964A",
">	c #CC984C",
",	c #CE9B4E",
"'	c #D19E50",
")	c #D4A052",
"!	c #D6A355",
"~	c #D9A657",
"{	c #DCA859",
"]	c #DEAB5B",
"^	c #E1AE5E",
"/	c #E4B160",
"(	c #E7B462",
"_	c #EAB764",
":	c #ECB967",
"<	c #EFBC69",
"[	c #F2BF6B",
"}	c #F5C26D",
"|	c #F7C570",
"1	c #FAC872",
"2	c #FCCA74",
"3	c #F9C771",
"4	c #F6C46F",
"5	c #F4C16D",
"6	c #F1BE6A",
"7	c #EEBB68",
"8	c #EBB866",
"9	c #E8B563",
"0	c #E5B261",
"a	c #E2AF5F",
"b	c #E0AC5C",
"c	c #DDAA5A",
"d	c #DAA758",
"e	c #D7A455",
"f	c #D5A153",
"g	c #D29F52",
"h	c #D09D50",
"i	c #CA964A",
"j	c #C79449",
"k	c #C59247",
"l	c #C38F45",
"m	c #C18D43",
"n	c #BF8B41",
"o	c #BC8940",
"p	c #BA863E",
"q	c #B8843C",
"r	c #B6823A",
"s	c #B48039",
"t	c #B17E37",
".+@#$%&*=-;>,')!~{]^/(_:<[}|1234567890abcdefgh,>ijklmnopqrst",
".+@#$%&*=-;>,')!~{]^/(_:<[}|1234567890abcdefgh,>ijklmnopqrst",
".+@#$%&*=-;>,')!~{]^/(_:<[}|1234567890abcdefgh,>ijklmnopqrst",
".+@#$%&*=-;>,')!~{]^/(_:<[}|1234567890abcdefgh,>ijklmnopqrst"};
