/* XPM */
static char * decal_button_xpm[] = {
"12 14 126 2",
"  	c None",
". 	c #E4EAED",
"+ 	c #DBE1E4",
"@ 	c #D0D6DB",
"# 	c #CBD0D6",
"$ 	c #C9CDD4",
"% 	c #CACFD5",
"& 	c #CAD0D5",
"* 	c #C9CED4",
"= 	c #C5CAD2",
"- 	c #BBC0C8",
"; 	c #606A79",
"> 	c #D5DCE2",
", 	c #C6CED5",
"' 	c #BAC0C9",
") 	c #B3BAC2",
"! 	c #B1B7C0",
"~ 	c #B1B8C2",
"{ 	c #B2B9C1",
"] 	c #B2B8C1",
"^ 	c #AAB1BB",
"/ 	c #979EA8",
"( 	c #424D57",
"_ 	c #C5CDD4",
": 	c #B2BAC3",
"< 	c #9BA5B2",
"[ 	c #959EAA",
"} 	c #929CA7",
"| 	c #919AA6",
"1 	c #9399A4",
"2 	c #77808C",
"3 	c #293840",
"4 	c #B9C0CA",
"5 	c #A4ACB5",
"6 	c #8D96A2",
"7 	c #858E9A",
"8 	c #818B98",
"9 	c #808997",
"0 	c #7E8693",
"a 	c #626A77",
"b 	c #1A2A31",
"c 	c #AFB7C2",
"d 	c #979FAA",
"e 	c #868E9B",
"f 	c #7D8592",
"g 	c #79828E",
"h 	c #78808D",
"i 	c #707987",
"j 	c #555E6A",
"k 	c #13242A",
"l 	c #A6AFBB",
"m 	c #8C95A3",
"n 	c #7A8391",
"o 	c #717988",
"p 	c #6E7785",
"q 	c #6F7886",
"r 	c #707985",
"s 	c #6D7684",
"t 	c #646D7B",
"u 	c #4A5461",
"v 	c #0F2228",
"w 	c #55616E",
"x 	c #45515E",
"y 	c #3B4752",
"z 	c #36424D",
"A 	c #35404C",
"B 	c #35414C",
"C 	c #34404B",
"D 	c #2F3B44",
"E 	c #213038",
"F 	c #0D2026",
"G 	c #0B1E24",
"H 	c #0C1F25",
"I 	c #112229",
"J 	c #212F38",
"K 	c #3E4B57",
"L 	c #687281",
"M 	c #2D3A44",
"N 	c #404A55",
"O 	c #47515C",
"P 	c #495360",
"Q 	c #49535E",
"R 	c #4C5661",
"S 	c #56606D",
"T 	c #848F9D",
"U 	c #3A454F",
"V 	c #545E6B",
"W 	c #606A77",
"X 	c #656E7C",
"Y 	c #666F7D",
"Z 	c #6B7582",
"` 	c #7A8593",
" .	c #929CA9",
"..	c #444E5B",
"+.	c #646C7B",
"@.	c #717986",
"#.	c #747D8B",
"$.	c #7E8793",
"%.	c #8B94A0",
"&.	c #9FA8B5",
"*.	c #4E5763",
"=.	c #727A87",
"-.	c #7F8794",
";.	c #828995",
">.	c #838A96",
",.	c #858D9A",
"'.	c #8D94A0",
").	c #99A1AC",
"!.	c #A9B2BE",
"~.	c #293742",
"{.	c #666F7B",
"].	c #89909C",
"^.	c #979DA8",
"/.	c #999FAA",
"(.	c #999EA8",
"_.	c #9BA0AC",
":.	c #9FA6B2",
"<.	c #A9B1BC",
"[.	c #B9C2CA",
"}.	c #777E8C",
"|.	c #9DA3B0",
"1.	c #BABFC7",
"2.	c #BDC2CA",
"3.	c #C2C9CF",
"4.	c #CBD2D8",
"5.	c #D9E0E4",
". + @ # $ % % & * = - ; ",
"> , ' ) ! ~ ~ { ] ^ / ( ",
"_ : < [ } } } } | 1 2 3 ",
"4 5 6 7 8 8 8 8 9 0 a b ",
"c d e f g g g g h i j k ",
"l m n o p q r q s t u v ",
"w x y z A B B B C D E F ",
"G G G G G G G H I J K L ",
"G M N O P P P Q R S L T ",
"G U V W X Y X t X Z `  .",
"G ..+.@.#.#.#.#.2 $.%.&.",
"G *.=.-.;.;.;.>.,.'.).!.",
"~.{.].^./././.(._.:.<.[.",
"}.|.] 1.- - - - 2.3.4.5."};
