/* XPM */
static char * decal_misc_xpm[] = {
"14 108 307 2",
"  	c None",
". 	c #8B9AA8",
"+ 	c #9FB3C7",
"@ 	c #62717F",
"# 	c #9CADBC",
"$ 	c #B6C9DB",
"% 	c #000000",
"& 	c #F7FBFF",
"* 	c #ABBECE",
"= 	c #C6D8EA",
"- 	c #BED3E5",
"; 	c #CEDFF1",
"> 	c #9EE8FF",
", 	c #CBDCEE",
"' 	c #BFD2E4",
") 	c #AEC1D4",
"! 	c #97ABC0",
"~ 	c #5A6B7A",
"{ 	c #798FA6",
"] 	c #B75C2E",
"^ 	c #84472D",
"/ 	c #9AAEC3",
"( 	c #D46F3E",
"_ 	c #AF5C38",
": 	c #C2D4E6",
"< 	c #EA7C4A",
"[ 	c #C1643C",
"} 	c #E2E2E2",
"| 	c #BABABA",
"1 	c #CDDFF1",
"2 	c #FC8853",
"3 	c #D3D3D3",
"4 	c #93A7BC",
"5 	c #BACCDF",
"6 	c #E27745",
"7 	c #C76637",
"8 	c #AB5528",
"9 	c #A60058",
"0 	c #7F163F",
"a 	c #C0134D",
"b 	c #BE114E",
"c 	c #DB2643",
"d 	c #D62245",
"e 	c #F63938",
"f 	c #EE343B",
"g 	c #931948",
"h 	c #AD87CE",
"i 	c #F9EAFF",
"j 	c #C8B1DE",
"k 	c #9FE633",
"l 	c #FFFFFF",
"m 	c #C8F83D",
"n 	c #E5E9EC",
"o 	c #DADDE1",
"p 	c #CED2D9",
"q 	c #CBCDD4",
"r 	c #CBCED4",
"s 	c #C9CAD2",
"t 	c #C0C2CB",
"u 	c #737888",
"v 	c #D9DDE2",
"w 	c #C8CCD3",
"x 	c #BBBEC8",
"y 	c #B6B9C3",
"z 	c #B7BAC2",
"A 	c #B4B6BF",
"B 	c #A4A7B1",
"C 	c #575E6A",
"D 	c #CBCFD6",
"E 	c #B1B3C0",
"F 	c #9D8D95",
"G 	c #98878F",
"H 	c #998790",
"I 	c #99878F",
"J 	c #9F9194",
"K 	c #8A8E9B",
"L 	c #414854",
"M 	c #BFC3CC",
"N 	c #A6A9B7",
"O 	c #A6949F",
"P 	c #A18D98",
"Q 	c #A08C98",
"R 	c #A18D99",
"S 	c #A08D98",
"T 	c #9C8D92",
"U 	c #777B88",
"V 	c #313942",
"W 	c #B5B9C4",
"X 	c #9DA1AE",
"Y 	c #A3969A",
"Z 	c #9C8F93",
"` 	c #9A8E92",
" .	c #9B8E93",
"..	c #9A8F92",
"+.	c #92888A",
"@.	c #686D79",
"#.	c #273038",
"$.	c #ADB2BE",
"%.	c #9096A3",
"&.	c #7F8392",
"*.	c #777C8A",
"=.	c #767B89",
"-.	c #727685",
";.	c #5E636F",
">.	c #202B33",
",.	c #9399A6",
"'.	c #787D8D",
").	c #696E7C",
"!.	c #626875",
"~.	c #646975",
"{.	c #626775",
"].	c #5D6370",
"^.	c #4B515E",
"/.	c #1B272E",
"(.	c #565E6D",
"_.	c #454D5A",
":.	c #3B434E",
"<.	c #373F4A",
"[.	c #343C47",
"}.	c #29323A",
"|.	c #141F27",
"1.	c #626977",
"2.	c #D9DCE2",
"3.	c #4D5460",
"4.	c #A7B4B2",
"5.	c #64A141",
"6.	c #6AAC43",
"7.	c #71B847",
"8.	c #72B948",
"9.	c #68AA42",
"0.	c #7D9863",
"a.	c #39414C",
"b.	c #9FB0AB",
"c.	c #83D156",
"d.	c #8DDD5B",
"e.	c #97E860",
"f.	c #98EA62",
"g.	c #89DB57",
"h.	c #7DAC5C",
"i.	c #2B343E",
"j.	c #B6BAC5",
"k.	c #9BA7AA",
"l.	c #A4C586",
"m.	c #A3C883",
"n.	c #A7CE86",
"o.	c #A7CF86",
"p.	c #A0C680",
"q.	c #8CA173",
"r.	c #232C34",
"s.	c #858694",
"t.	c #7A7C89",
"u.	c #787B89",
"v.	c #787B87",
"w.	c #737482",
"x.	c #1D272E",
"y.	c #8F95A4",
"z.	c #757B8A",
"A.	c #666B79",
"B.	c #606573",
"C.	c #5F6572",
"D.	c #606673",
"E.	c #5B616E",
"F.	c #494F5C",
"G.	c #17222A",
"H.	c #474E5C",
"I.	c #37404C",
"J.	c #2F3842",
"K.	c #2C363F",
"L.	c #29333C",
"M.	c #212B32",
"N.	c #101C21",
"O.	c #0E1B21",
"P.	c #101C23",
"Q.	c #1A252D",
"R.	c #353D48",
"S.	c #616876",
"T.	c #2F3740",
"U.	c #3E444F",
"V.	c #424955",
"W.	c #434A56",
"X.	c #444A57",
"Y.	c #5C6371",
"Z.	c #7C8393",
"`.	c #555B68",
" +	c #5E6471",
".+	c #636976",
"++	c #717886",
"@+	c #8B92A0",
"#+	c #484E5B",
"$+	c #656B78",
"%+	c #6F7482",
"&+	c #717684",
"*+	c #707583",
"=+	c #747987",
"-+	c #808795",
";+	c #979DAA",
">+	c #525763",
",+	c #717584",
"'+	c #7B808E",
")+	c #7C808F",
"!+	c #7E828F",
"~+	c #828795",
"{+	c #8F93A0",
"]+	c #A1A6B4",
"^+	c #606471",
"/+	c #818492",
"(+	c #8A8D9B",
"_+	c #8B8E9C",
":+	c #8C8F9D",
"<+	c #9295A1",
"[+	c #9CA0AD",
"}+	c #3F4652",
"|+	c #989BA9",
"1+	c #A1A4B0",
"2+	c #A3A5B0",
"3+	c #A7A9B4",
"4+	c #AFB4BE",
"5+	c #BFC5CE",
"6+	c #787B8B",
"7+	c #A3A5B2",
"8+	c #B7B9C2",
"9+	c #BCBEC7",
"0+	c #C1C3CA",
"a+	c #D9DCE0",
"b+	c #E4EAED",
"c+	c #D5DBE0",
"d+	c #C9CED4",
"e+	c #CACED3",
"f+	c #CACFD5",
"g+	c #CAD0D5",
"h+	c #C7CCD2",
"i+	c #ABB1BC",
"j+	c #C6CED5",
"k+	c #ABB3BC",
"l+	c #9BA1AC",
"m+	c #9DA3AC",
"n+	c #9EA2AD",
"o+	c #969CA7",
"p+	c #4B5660",
"q+	c #B2BBC5",
"r+	c #9299A5",
"s+	c #838A96",
"t+	c #798390",
"u+	c #7E8491",
"v+	c #2A3841",
"w+	c #A7B1BA",
"x+	c #838C98",
"y+	c #737C88",
"z+	c #717A86",
"A+	c #757E8A",
"B+	c #6A717D",
"C+	c #26343B",
"D+	c #9DA6B2",
"E+	c #727B89",
"F+	c #636B78",
"G+	c #646D79",
"H+	c #5B6470",
"I+	c #202E37",
"J+	c #818D9C",
"K+	c #4C5661",
"L+	c #28363D",
"M+	c #28373F",
"N+	c #28353D",
"O+	c #26353D",
"P+	c #13242C",
"Q+	c #8E9F82",
"R+	c #A8C137",
"S+	c #BCD241",
"T+	c #BED445",
"U+	c #AEC23A",
"V+	c #97AC37",
"W+	c #92A081",
"X+	c #CED852",
"Y+	c #DCE462",
"Z+	c #DCE563",
"`+	c #D3DC5C",
" @	c #C5CE52",
".@	c #0B1E24",
"+@	c #223139",
"@@	c #697380",
"#@	c #48515D",
"$@	c #535D68",
"%@	c #545D69",
"&@	c #535C68",
"*@	c #5D6774",
"=@	c #8994A2",
"-@	c #59606C",
";@	c #6E7785",
">@	c #6B7480",
",@	c #69727E",
"'@	c #959FAC",
")@	c #6E7581",
"!@	c #7B8390",
"~@	c #818994",
"{@	c #89919C",
"]@	c #A8B0BB",
"^@	c #79818C",
"/@	c #8D94A0",
"(@	c #8D93A0",
"_@	c #8B919C",
":@	c #ADB6C0",
"<@	c #777E8C",
"[@	c #B3B9C2",
"}@	c #BBC0C8",
"|@	c #BBBFC8",
"1@	c #C2C8CF",
"2@	c #D9E0E4",
"                            ",
"                            ",
"                            ",
"                            ",
"                            ",
"                            ",
"                            ",
"                            ",
"                            ",
"      . + + + + @           ",
"      # $ $ $ $ $ % %       ",
"& & & * = = = = = = + % % % ",
"  % % - ; ; ; ; ; ; ; > > > ",
"      - , , , , , , , > > > ",
"& & & * ' ' ' ' ' ' + % % % ",
"  % % # ) ) ) ) ) % %       ",
"      . ! ! ! ! @ %         ",
"        % % % % %           ",
"                            ",
"~ { { { { { { { ] ] ] ^     ",
"{ / / / / / / / ( ( ( _ %   ",
"/ : : : : : : : < < < [ } | ",
"/ 1 1 1 1 1 1 1 2 2 2 ( & 3 ",
"4 5 5 5 5 5 5 5 6 6 6 [ } | ",
"{ 4 4 4 4 4 4 4 7 7 7 _ % % ",
"~ { { { { { { { 8 8 8 ^ %   ",
"  % % % % % % % % % % %     ",
"                            ",
"~ { { { { { { { 9 9 9 0     ",
"{ / / / / / / / a a a b %   ",
"/ : : : : : : : c c c d } | ",
"/ 1 1 1 1 1 1 1 e e e c & 3 ",
"4 5 5 5 5 5 5 5 f f f d } | ",
"{ 4 4 4 4 4 4 4 d d d b % % ",
"~ { { { { { { { b b b g %   ",
"  % % % % % % % % % % %     ",
"                            ",
"                            ",
"              h h           ",
"            h i j h         ",
"            h j j h         ",
"              h h           ",
"                            ",
"                            ",
"                            ",
"                            ",
"                            ",
"              k k           ",
"            k l m k         ",
"            k m m k         ",
"              k k           ",
"                            ",
"                            ",
"                            ",
"                            ",
"        n o p q q q r s t u ",
"        v w x y y y z A B C ",
"        D E F G H H I J K L ",
"        M N O P Q R S T U V ",
"        W X Y Z `  ...+.@.#.",
"        $.%.&.*.*.*.=.-.;.>.",
"        ,.'.).!.!.~.{.].^./.",
"        (._.:.<.<.<.<.[.}.|.",
"                            ",
"        n o p q q q r s t 1.",
"        2.w x y y y z A B 3.",
"        D 4.5.6.7.8.9.0.K a.",
"        M b.c.d.e.f.g.h.U i.",
"        j.k.l.m.n.o.p.q.@.r.",
"        $.%.s.t.u.t.v.w.;.x.",
"        y.z.A.B.C.D.C.E.F.G.",
"        H.I.J.K.K.K.K.L.M.N.",
"                            ",
"        O.O.O.O.O.O.P.Q.R.S.",
"        O.T.U.V.W.W.X.^.Y.Z.",
"        O.U.`. +D.D.C..+++@+",
"        O.#+$+%+&+*+*+=+-+;+",
"        O.>+,+'+)+)+!+~+{+]+",
"        Q.^+/+(+_+_+:+<+[+$.",
"        }+'+|+1+2+2+2+3+4+5+",
"        6+7+8+9+9+9+9+0+w a+",
"                            ",
"      b+c+d+e+f+g+g+h+i+    ",
"      j+k+l+l+l+m+n+o+p+    ",
"      q+r+s+t+t+t+t+u+v+    ",
"      w+x+y+z+A+A+z+B+C+    ",
"      D+E+F+F+F+F+G+H+I+    ",
"      J+K+L+L+M+M+N+O+P+    ",
"                            ",
"                            ",
"                            ",
"      b+c+d+e+f+g+g+h+i+    ",
"      j+k+l+l+l+m+n+o+p+    ",
"      q+Q+R+S+T+U+V+u+v+    ",
"      w+W+X+Y+Z+`+ @B+C+    ",
"      D+E+F+F+F+F+G+H+I+    ",
"      J+K+L+L+M+M+N+O+P+    ",
"                            ",
"                            ",
"                            ",
"      .@.@.@.@.@.@.@+@@@    ",
"      .@#@$@%@%@$@&@*@=@    ",
"      .@-@@@;@;@>@,@z+'@    ",
"      .@)@!@t+t+t+~@{@]@    ",
"      .@^@/@(@_@_@_@r+:@    ",
"      <@[@}@}@}@|@}@1@2@    ",
"                            ",
"                            "};
