/* XPM */
static char * frame_left_xpm[] = {
"6 70 27 1",
" 	c None",
".	c #869593",
"+	c #6F7E7B",
"@	c #5B6264",
"#	c #5E6667",
"$	c #5F696A",
"%	c #636A6C",
"&	c #707F7C",
"*	c #5C6365",
"=	c #738280",
"-	c #5F6768",
";	c #798886",
">	c #646F6E",
",	c #808F8D",
"'	c #6B7776",
")	c #5E6768",
"!	c #62696B",
"~	c #849391",
"{	c #717F7D",
"]	c #616A6B",
"^	c #5E6869",
"/	c #5E6567",
"(	c #788784",
"_	c #5B6867",
":	c #565E5F",
"<	c #596865",
"[	c #45504E",
".+@#$%",
".+@#$%",
".+@#$%",
".+@#$%",
".+@#$%",
".+@#$%",
".+@#$%",
".+@#$%",
".+@#$%",
".+@#$%",
".+@#$%",
".+@#$%",
".+@#$%",
".+@#$%",
".+@#$%",
".+@#$%",
".+@#$%",
".+@#$%",
".+@#$%",
".+@#$%",
".+@#$%",
".+@#$%",
".+@#$%",
".+@#$%",
".+@#$%",
".+@#$%",
".+@#$%",
".+@#$%",
".+@#$%",
".+@#$%",
".+@#$%",
".+@#$%",
".+@#$%",
".&*#$%",
".=-#$%",
".;>#$%",
" ,')$!",
" ~{]^/",
" .(>_:",
"  .+<[",
"  .+<[",
"  .+<[",
"  .+<[",
"  .+<[",
"  .+<[",
"  .+<[",
"  .+<[",
"  .+<[",
"  .+<[",
"  .+<[",
"  .+<[",
"  .+<[",
"  .+<[",
"  .+<[",
"  .+<[",
"  .+<[",
"  .+<[",
"  .+<[",
" .+#$%",
".+@#$%",
".+@#$%",
".+@#$%",
".+@#$%",
".+@#$%",
".+@#$%",
".+@#$%",
".+@#$%",
".+@#$%",
".+@#$%",
".+@#$%"};
