/* XPM */
static char * frame_right_xpm[] = {
"6 70 24 1",
" 	c None",
".	c #62686B",
"+	c #606769",
"@	c #5E6567",
"#	c #5C6365",
"$	c #596865",
"%	c #45504E",
"&	c #586764",
"*	c #46514F",
"=	c #556260",
"-	c #485351",
";	c #5C6465",
">	c #556461",
",	c #5B6565",
"'	c #4F5C5A",
")	c #5A6665",
"!	c #4A5654",
"~	c #656B6E",
"{	c #61686A",
"]	c #6F797A",
"^	c #65706F",
"/	c #4F5D5A",
"(	c #869593",
"_	c #6F7E7B",
".+@#$%",
".+@#$%",
".+@#$%",
".+@#$%",
".+@#$%",
".+@#$%",
".+@#$%",
".+@#$%",
".+@#$%",
".+@#$%",
".+@#$%",
".+@#$%",
".+@#$%",
".+@#$%",
".+@#$%",
".+@#$%",
".+@#$%",
".+@#$%",
".+@#$%",
".+@#$%",
".+@#$%",
".+@#$%",
".+@#$%",
".+@#$%",
".+@#$%",
".+@#$%",
".+@#$%",
".+@#$%",
".+@#$%",
".+@#$%",
".+@#$%",
".+@#$%",
".+@#&*",
".+@#=-",
".+@;>%",
".+@,'%",
".+@)! ",
"~{@&% ",
"]^)/% ",
"(_$%  ",
"(_$%  ",
"(_$%  ",
"(_$%  ",
"(_$%  ",
"(_$%  ",
"(_$%  ",
"(_$%  ",
"(_$%  ",
"(_$%  ",
"(_$%  ",
"(_$%  ",
"(_$%  ",
"(_$%  ",
"(_$%  ",
"(_$%  ",
"(_$%  ",
"(_$%  ",
"(_$%  ",
".+@$% ",
".+@#$%",
".+@#$%",
".+@#$%",
".+@#$%",
".+@#$%",
".+@#$%",
".+@#$%",
".+@#$%",
".+@#$%",
".+@#$%",
".+@#$%"};
