/* XPM */
static char * frame_bottom_xpm[] = {
"60 2 8 1",
" 	c None",
".	c #869391",
"+	c #7D8886",
"@	c #6F7A78",
"#	c #6F7E7B",
"$	c #767D7C",
"%	c #656E6C",
"&	c #4F5C5A",
".+........................................................+@",
"@#$$$$$$$$$$$$$$$$$$$$$$$$$$$$$$$$$$$$$$$$$$$$$$$$$$$$$$$$%&"};
