/* XPM */
static char * krell_panel_xpm[] = {
"5 24 13 1",
" 	c None",
".	c #845C8C",
"+	c #976AA0",
"@	c #DCA1EA",
"#	c #CD95DB",
"$	c #000000",
"%	c #9EFFFF",
"&	c #FFFFFF",
"*	c #89DDDC",
"=	c #E54E6E",
"-	c #FF5479",
";	c #DB4A69",
">	c #D14764",
".+@#$",
".+@#$",
".+@#$",
".+@#$",
".+@#$",
"$$$$ ",
"$%&%$",
"$*%*$",
"$*%*$",
"$%&%$",
"$*&*$",
" $$$ ",
"$%&%$",
"$*%*$",
"$*%*$",
"$%&%$",
"$*&*$",
" $$$ ",
"$=-;>",
"$=-;>",
"$=-;>",
"$=-;>",
"$=-;>",
" $$$$"};
