/* XPM */
static char * krell_meter_xpm[] = {
"9 11 12 1",
" 	c None",
".	c #BCBCBC",
"+	c #D8D8D8",
"@	c #E0E0E0",
"#	c #B5B5B5",
"$	c #999999",
"%	c #000000",
"&	c #A5A5A5",
"*	c #7F7F7F",
"=	c #D1D1D1",
"-	c #EFEFEF",
";	c #FFFFFF",
" .++@##$%",
" &.+@#&*%",
"  %=-#%% ",
"    ;%%  ",
"    ;%   ",
"    ;%   ",
"    ;%   ",
"    ;%   ",
"    ;%   ",
"    ;%   ",
"     %   "};
