/* XPM */
static char * krell_slider_xpm[] = {
"8 54 67 1",
" 	c None",
".	c #BDC5E1",
"+	c #BEC6DD",
"@	c #C1C5DF",
"#	c #C3C7E1",
"$	c #B2BAD6",
"%	c #A4A4C5",
"&	c #9DA6C5",
"*	c #C5C9E0",
"=	c #A3A5C3",
"-	c #A2ACCB",
";	c #8992B2",
">	c #A6AECB",
",	c #9097BA",
"'	c #AEB4CE",
")	c #CED6EA",
"!	c #ADB6D5",
"~	c #959AB9",
"{	c #7981A9",
"]	c #333333",
"^	c #99A5C5",
"/	c #818FB1",
"(	c #99A8CA",
"_	c #C1CAE5",
":	c #9DAACC",
"<	c #8C90AD",
"[	c #737B9D",
"}	c #989EB8",
"|	c #7D84A2",
"1	c #949DBC",
"2	c #BAC2D9",
"3	c #7F8AAB",
"4	c #6C7394",
"5	c #8C98B7",
"6	c #6E76A4",
"7	c #848CB9",
"8	c #AAB4D7",
"9	c #848FB9",
"0	c #797BA2",
"a	c #6B6B8E",
"b	c #888CA9",
"c	c #6E6D97",
"d	c #7D7CA8",
"e	c #A3A3C8",
"f	c #7F7FA6",
"g	c #6E7296",
"h	c #616885",
"i	c #7C839F",
"j	c #63608C",
"k	c #8989AA",
"l	c #63638B",
"m	c #595F7A",
"n	c #515573",
"o	c #F1B84F",
"p	c #FFD88A",
"q	c #FFD37A",
"r	c #FFC657",
"s	c #EDB44E",
"t	c #EDA82F",
"u	c #E4991D",
"v	c #C61A58",
"w	c #DA274F",
"x	c #EC3447",
"y	c #FC433F",
"z	c #F63D42",
"A	c #E7304A",
"B	c #D62451",
" .+@@#  ",
"$%&*=-; ",
">,')!~{]",
"^/(_:<[]",
"}|12134]",
"567890a]",
"bcdefgh]",
"ijjkllm]",
" nnnnn] ",
" .+@@#  ",
"$%&*=-; ",
">,')!~{]",
"^/(_:<[]",
"}|12134]",
"567890a]",
"bcdefgh]",
"ijjkllm]",
" nnnnn] ",
" .+@@#  ",
"$%&*=-; ",
">,')!~{]",
"^/(_:<[]",
"}|12134]",
"567890a]",
"bcdefgh]",
"ijjkllm]",
" nnnnn] ",
" .+@@#  ",
"$%&*=-; ",
">,')!~{]",
"^/(_:<[]",
"}|12134]",
"567890a]",
"bcdefgh]",
"ijjkllm]",
" nnnnn] ",
" .+@@#  ",
"$%&o=-; ",
">,'p!~{]",
"^/(q:<[]",
"}|1r134]",
"567s90a]",
"bcdtfgh]",
"ijjullm]",
" nnnnn] ",
" .+@@#  ",
"$%&v=-; ",
">,'w!~{]",
"^/(x:<[]",
"}|1y134]",
"567z90a]",
"bcdAfgh]",
"ijjBllm]",
" nnnnn] "};
