/* XPM */
static char * bg_panel_cal_xpm[] = {
"60 14 179 2",
"  	c None",
". 	c #1E1E1E",
"+ 	c #545754",
"@ 	c #5E615E",
"# 	c #676B67",
"$ 	c #565C5E",
"% 	c #586061",
"& 	c #596364",
"* 	c #5D6466",
"= 	c #5E6567",
"- 	c #606768",
"; 	c #62686A",
"> 	c #656A6B",
", 	c #656D6F",
"' 	c #686F70",
") 	c #687173",
"! 	c #697274",
"~ 	c #6A7375",
"{ 	c #6B7476",
"] 	c #6D7576",
"^ 	c #6E7677",
"/ 	c #6E7878",
"( 	c #6F7879",
"_ 	c #70797A",
": 	c #717A7B",
"< 	c #727B7C",
"[ 	c #737D7D",
"} 	c #737F7F",
"| 	c #757F7F",
"1 	c #768080",
"2 	c #737C7D",
"3 	c #707878",
"4 	c #6F7778",
"5 	c #6B7576",
"6 	c #5C6265",
"7 	c #5A6163",
"8 	c #585F61",
"9 	c #575D5F",
"0 	c #646864",
"a 	c #575B57",
"b 	c #494C49",
"c 	c #38393C",
"d 	c #3B3F40",
"e 	c #3D4042",
"f 	c #3F4244",
"g 	c #404447",
"h 	c #444648",
"i 	c #45484B",
"j 	c #484B4D",
"k 	c #4A4D4F",
"l 	c #4B5052",
"m 	c #4E5355",
"n 	c #505557",
"o 	c #515558",
"p 	c #535859",
"q 	c #54585A",
"r 	c #545A5C",
"s 	c #555B5D",
"t 	c #575E5F",
"u 	c #585F60",
"v 	c #596062",
"w 	c #5B6364",
"x 	c #5C6465",
"y 	c #5E6667",
"z 	c #5D6566",
"A 	c #5B6566",
"B 	c #5A6465",
"C 	c #596162",
"D 	c #55595B",
"E 	c #535759",
"F 	c #525658",
"G 	c #4F5456",
"H 	c #4D5254",
"I 	c #4C4F51",
"J 	c #494C4E",
"K 	c #484A4C",
"L 	c #454849",
"M 	c #414648",
"N 	c #404345",
"O 	c #3B3D40",
"P 	c #383B3D",
"Q 	c #5E6F6F",
"R 	c #5E7073",
"S 	c #617374",
"T 	c #637474",
"U 	c #647577",
"V 	c #667879",
"W 	c #68797B",
"X 	c #6B7C7C",
"Y 	c #6B7D7E",
"Z 	c #6D8080",
"` 	c #6F7F82",
" .	c #6E8085",
"..	c #6F8288",
"+.	c #738288",
"@.	c #74858B",
"#.	c #75868C",
"$.	c #7A8A8D",
"%.	c #7B8C90",
"&.	c #7D8D90",
"*.	c #808F91",
"=.	c #819194",
"-.	c #839396",
";.	c #869597",
">.	c #87979A",
",.	c #89989A",
"'.	c #8A999D",
").	c #8D9B9E",
"!.	c #6A6E70",
"~.	c #6A6F71",
"{.	c #6C7172",
"].	c #6C7274",
"^.	c #6D7375",
"/.	c #6F7677",
"(.	c #707778",
"_.	c #717879",
":.	c #717979",
"<.	c #737A7A",
"[.	c #747D7D",
"}.	c #757E7E",
"|.	c #767F7F",
"1.	c #788181",
"2.	c #798282",
"3.	c #798383",
"4.	c #7B8585",
"5.	c #7B8786",
"6.	c #7D8887",
"7.	c #7F8988",
"8.	c #808A88",
"9.	c #808C8A",
"0.	c #818C8B",
"a.	c #828F8D",
"b.	c #83908E",
"c.	c #818B89",
"d.	c #7E8888",
"e.	c #7C8787",
"f.	c #7A8685",
"g.	c #7A8484",
"h.	c #798181",
"i.	c #778080",
"j.	c #737B7C",
"k.	c #727979",
"l.	c #717779",
"m.	c #6F7577",
"n.	c #6E7476",
"o.	c #6B7173",
"p.	c #6B7171",
"q.	c #6A7071",
"r.	c #8C9092",
"s.	c #8E9394",
"t.	c #8E9596",
"u.	c #919697",
"v.	c #929798",
"w.	c #939899",
"x.	c #94999A",
"y.	c #979A9B",
"z.	c #979C9D",
"A.	c #999D9E",
"B.	c #999FA0",
"C.	c #999FA1",
"D.	c #9AA0A1",
"E.	c #9BA1A2",
"F.	c #9CA1A2",
"G.	c #9DA2A3",
"H.	c #9DA3A3",
"I.	c #9DA3A4",
"J.	c #9EA4A5",
"K.	c #9FA5A5",
"L.	c #9FA5A6",
"M.	c #A0A7A7",
"N.	c #A0A8A8",
"O.	c #A1A8A8",
"P.	c #A2A9A9",
"Q.	c #A0A6A7",
"R.	c #9EA3A3",
"S.	c #909497",
"T.	c #8F9495",
"U.	c #8E9294",
"V.	c #8D9192",
". + @ # $ % & * = - ; > , ' ) ! ~ { ] ^ / ( _ : < [ } | | | 1 | | } 2 < : _ 3 4 ^ ] 5 ! ! ) ' , > ; - = 6 7 8 9 0 a b . ",
". + @ # c d e f g h i j k l m n o p q q r s t u 8 v w x * = y z A B & C % 9 $ s D q E F o G H I J K L M N e O P 0 a b . ",
". + @ # Q R S T U V W X Y Z `  ...+.@.#.$.%.&.*.=.-.;.>.,.'.).'.,.>.;.-.=.*.&.%.$.#.@.+... .` Z Y X W V U T S R 0 a b . ",
". + @ # Q R S T U V W X Y Z `  ...+.@.#.$.%.&.*.=.-.;.>.,.'.).'.,.>.;.-.=.*.&.%.$.#.@.+... .` Z Y X W V U T S R 0 a b . ",
". + @ # Q R S T U V W X Y Z `  ...+.@.#.$.%.&.*.=.-.;.>.,.'.).'.,.>.;.-.=.*.&.%.$.#.@.+... .` Z Y X W V U T S R 0 a b . ",
". + @ # Q R S T U V W X Y Z `  ...+.@.#.$.%.&.*.=.-.;.>.,.'.).'.,.>.;.-.=.*.&.%.$.#.@.+... .` Z Y X W V U T S R 0 a b . ",
". + @ # Q R S T U V W X Y Z `  ...+.@.#.$.%.&.*.=.-.;.>.,.'.).'.,.>.;.-.=.*.&.%.$.#.@.+... .` Z Y X W V U T S R 0 a b . ",
". + @ # Q R S T U V W X Y Z `  ...+.@.#.$.%.&.*.=.-.;.>.,.'.).'.,.>.;.-.=.*.&.%.$.#.@.+... .` Z Y X W V U T S R 0 a b . ",
". + @ # Q R S T U V W X Y Z `  ...+.@.#.$.%.&.*.=.-.;.>.,.'.).'.,.>.;.-.=.*.&.%.$.#.@.+... .` Z Y X W V U T S R 0 a b . ",
". + @ # Q R S T U V W X Y Z `  ...+.@.#.$.%.&.*.=.-.;.>.,.'.).'.,.>.;.-.=.*.&.%.$.#.@.+... .` Z Y X W V U T S R 0 a b . ",
". + @ # Q R S T U V W X Y Z `  ...+.@.#.$.%.&.*.=.-.;.>.,.'.).'.,.>.;.-.=.*.&.%.$.#.@.+... .` Z Y X W V U T S R 0 a b . ",
". + @ # Q R S T U V W X Y Z `  ...+.@.#.$.%.&.*.=.-.;.>.,.'.).'.,.>.;.-.=.*.&.%.$.#.@.+... .` Z Y X W V U T S R 0 a b . ",
". + @ # !.~.{.].^./.(._.:.<.<.[.}.|.1.2.3.4.5.5.6.7.8.9.0.a.b.a.0.c.7.d.e.5.f.g.3.h.i.|.}.j.<.k.:.l.m.n.].o.p.q.0 a b . ",
". + @ # r.s.t.u.v.w.x.y.z.A.B.C.D.E.F.G.H.I.J.K.L.M.N.O.O.O.P.O.O.N.Q.L.K.J.R.H.G.F.E.C.C.B.A.z.y.x.w.v.S.T.U.V.0 a b . "};
