/* XPM */
static char * bg_panel_timers_2_xpm[] = {
"60 11 213 2",
"  	c None",
". 	c #1E1E1E",
"+ 	c #545754",
"@ 	c #5E615E",
"# 	c #676B67",
"$ 	c #707370",
"% 	c #7D807E",
"& 	c #7F8180",
"* 	c #818181",
"= 	c #818481",
"- 	c #818583",
"; 	c #838584",
"> 	c #848785",
", 	c #868787",
"' 	c #878887",
") 	c #878A88",
"! 	c #898B8A",
"~ 	c #8A8D8B",
"{ 	c #8B8D8C",
"] 	c #8D8D8D",
"^ 	c #8D8E8D",
"/ 	c #8D8F8D",
"( 	c #8E908F",
"_ 	c #8E9190",
": 	c #909291",
"< 	c #919391",
"[ 	c #929493",
"} 	c #939593",
"| 	c #939694",
"1 	c #959796",
"2 	c #959896",
"3 	c #919593",
"4 	c #919492",
"5 	c #909391",
"6 	c #8F9290",
"7 	c #8F9190",
"8 	c #8D908E",
"9 	c #8C8E8D",
"0 	c #8B8D8D",
"a 	c #898D8A",
"b 	c #878B89",
"c 	c #878A87",
"d 	c #858887",
"e 	c #848786",
"f 	c #838784",
"g 	c #7D817F",
"h 	c #646864",
"i 	c #575B57",
"j 	c #494C49",
"k 	c #40434D",
"l 	c #5A5C6B",
"m 	c #555866",
"n 	c #535664",
"o 	c #585B67",
"p 	c #5B5C6A",
"q 	c #5D5E6C",
"r 	c #5E606D",
"s 	c #61616E",
"t 	c #616270",
"u 	c #646571",
"v 	c #666673",
"w 	c #686875",
"x 	c #6B6A77",
"y 	c #6E6C79",
"z 	c #6E6E79",
"A 	c #6F6F7C",
"B 	c #72707F",
"C 	c #737182",
"D 	c #737285",
"E 	c #757386",
"F 	c #767487",
"G 	c #787689",
"H 	c #7C798C",
"I 	c #807C8D",
"J 	c #525563",
"K 	c #2E343F",
"L 	c #514E59",
"M 	c #6C6C79",
"N 	c #6D6C77",
"O 	c #6B6C7A",
"P 	c #706E7D",
"Q 	c #6F6F7E",
"R 	c #717083",
"S 	c #757485",
"T 	c #797788",
"U 	c #7B798A",
"V 	c #827E8D",
"W 	c #84808F",
"X 	c #868293",
"Y 	c #8B8695",
"Z 	c #8C8798",
"` 	c #8F8B9A",
" .	c #938E9D",
"..	c #9692A1",
"+.	c #9994A3",
"@.	c #9E98A7",
"#.	c #9E99A8",
"$.	c #9F9AAB",
"%.	c #A29CAD",
"&.	c #A59FAE",
"*.	c #A7A1B0",
"=.	c #A9A3B2",
"-.	c #908B9A",
";.	c #6A6976",
">.	c #44454F",
",.	c #4A4954",
"'.	c #666773",
").	c #686873",
"!.	c #6A6B77",
"~.	c #706D7C",
"{.	c #737281",
"].	c #767384",
"^.	c #767588",
"/.	c #7B778A",
"(.	c #7D7A8D",
"_.	c #807D8E",
":.	c #858091",
"<.	c #878392",
"[.	c #8A8596",
"}.	c #908B9C",
"|.	c #928E9D",
"1.	c #95909F",
"2.	c #9992A3",
"3.	c #9B95A6",
"4.	c #9B97A8",
"5.	c #A19BAA",
"6.	c #A49CAD",
"7.	c #666572",
"8.	c #383C47",
"9.	c #434550",
"0.	c #62626F",
"a.	c #636472",
"b.	c #676774",
"c.	c #696974",
"d.	c #6B6B78",
"e.	c #6E6C7B",
"f.	c #71707F",
"g.	c #747382",
"h.	c #767485",
"i.	c #787588",
"j.	c #7E7B8E",
"k.	c #848091",
"l.	c #8A8495",
"m.	c #8C8697",
"n.	c #8E899A",
"o.	c #8F8B9C",
"p.	c #9993A2",
"q.	c #6A6A77",
"r.	c #5E5F6D",
"s.	c #2F3440",
"t.	c #42444D",
"u.	c #61616C",
"v.	c #5F606E",
"w.	c #6E6D7A",
"x.	c #6E6E7B",
"y.	c #70707D",
"z.	c #747182",
"A.	c #747285",
"B.	c #757487",
"C.	c #7B788B",
"D.	c #7F7C8D",
"E.	c #817E8F",
"F.	c #858190",
"G.	c #8B8596",
"H.	c #8D8897",
"I.	c #8E8A99",
"J.	c #908C9B",
"K.	c #827E8F",
"L.	c #898495",
"M.	c #8D8798",
"N.	c #3C3F49",
"O.	c #5A5C67",
"P.	c #545765",
"Q.	c #535662",
"R.	c #585A67",
"S.	c #595B68",
"T.	c #5C5C69",
"U.	c #62636F",
"V.	c #646473",
"W.	c #656676",
"X.	c #686877",
"Y.	c #6A697A",
"Z.	c #6B6A7B",
"`.	c #6F6D7C",
" +	c #716F7E",
".+	c #747180",
"++	c #757382",
"@+	c #777584",
"#+	c #797685",
"$+	c #7B7887",
"%+	c #7D7A8B",
"&+	c #817D8C",
"*+	c #505361",
"=+	c #29313C",
"-+	c #242C37",
";+	c #3F4350",
">+	c #2B3442",
",+	c #27303C",
"'+	c #28303D",
")+	c #28313D",
"!+	c #29323E",
"~+	c #2A333F",
"{+	c #2A3441",
"]+	c #2A3541",
"^+	c #2C3543",
"/+	c #2D3644",
"(+	c #2E3745",
"_+	c #303845",
":+	c #313846",
"<+	c #323947",
"[+	c #343947",
"}+	c #262F3B",
"|+	c #16222B",
". + @ # $ % & * = - ; > , ' ) ! ~ { ] ^ / ( ( _ : < [ } | 1 2 1 | 3 4 5 6 7 ( 8 / 9 0 ~ a b c d e f - = * & g $ h i j . ",
". + @ # $ k l m n m o p q r s t u v w x y z A B C D E F G H I H G F E D C B A z y x w v u t s r q p o m n J K $ h i j . ",
". + @ # $ L M N O P Q R S T U V W X Y Z `  ...+.@.#.$.%.&.*.=.*.&.%.$.#.@.+... .-.Z Y X W V U T S R Q P O ;.>.$ h i j . ",
". + @ # $ ,.'.).w !.~.A {.].^./.(._.:.<.[.Z }.|.1.2.3.4.5.6.&.6.5.4.3.2.1.|.}.Z [.<.:._.(./.^.].{.A ~.!.w 7.8.$ h i j . ",
". + @ # $ 9.0.s s a.b.c.d.e.A f.g.h.i./.(.j.k.X l.m.n.o. .1.p.1. .o.n.m.l.X k.j.(./.i.h.g.f.A e.q.c.b.a.s r.s.$ h i j . ",
". + @ # $ t.u.v.r.0.u v w q.w.x.y.z.A.B.G C.D.E.F.X G.H.I.J. .J.I.H.G.X F.E.D.C.G B.A.z.y.x.w.q.w v u 0.r.l K $ h i j . ",
". + @ # $ t.u.v.r.0.u v w q.w.x.y.z.A.B.G C.D.E.F.X G.H.I.J. .J.I.H.G.X F.E.D.C.G B.A.z.y.x.w.q.w v u 0.r.l K $ h i j . ",
". + @ # $ t.u.v.r.0.u v w q.w.x.y.z.A.B.G C.D.E.F.X G.H.I.J. .J.I.H.G.X F.E.D.C.G B.A.z.y.x.w.q.w v u 0.r.l K $ h i j . ",
". + @ # $ t.u.v.r.0.u v w q.w.x.y.z.A.B.G C.I K.F.X L.M.n.J. .J.n.H.L.X F.K.I C.G B.A.z.y.x.w.q.w v u 0.r.l K $ h i j . ",
". + @ # $ N.O.P.Q.m R.S.T.q s U.a.V.W.X.Y.Z.`. +.+++@+#+$+%+&+%+$+#+@+++.+ +`.Z.Y.X.W.V.a.U.s q T.S.R.m Q.*+=+$ h i j . ",
". + @ # $ -+;+>+,+'+)+)+!+~+~+{+]+>+^+^+/+/+/+(+_+_+:+:+<+[+[+[+<+:+:+_+_+(+/+/+/+^+^+>+]+{+~+~+!+)+)+'+,+}+|+$ h i j . "};
