/* XPM */
static char * bg_panel_timers_xpm[] = {
"60 11 225 2",
"  	c None",
". 	c #1E1E1E",
"+ 	c #545754",
"@ 	c #5E615E",
"# 	c #676B67",
"$ 	c #707370",
"% 	c #7D807E",
"& 	c #7F8180",
"* 	c #818181",
"= 	c #818481",
"- 	c #818583",
"; 	c #838584",
"> 	c #848785",
", 	c #868787",
"' 	c #878887",
") 	c #878A88",
"! 	c #898B8A",
"~ 	c #8A8D8B",
"{ 	c #8B8D8C",
"] 	c #8D8D8D",
"^ 	c #8D8E8D",
"/ 	c #8D8F8D",
"( 	c #8E908F",
"_ 	c #8E9190",
": 	c #909291",
"< 	c #919391",
"[ 	c #929493",
"} 	c #939593",
"| 	c #939694",
"1 	c #959796",
"2 	c #959896",
"3 	c #919593",
"4 	c #919492",
"5 	c #909391",
"6 	c #8F9290",
"7 	c #8F9190",
"8 	c #8D908E",
"9 	c #8C8E8D",
"0 	c #8B8D8D",
"a 	c #898D8A",
"b 	c #878B89",
"c 	c #878A87",
"d 	c #858887",
"e 	c #848786",
"f 	c #838784",
"g 	c #7D817F",
"h 	c #646864",
"i 	c #575B57",
"j 	c #494C49",
"k 	c #394955",
"l 	c #526575",
"m 	c #4D606F",
"n 	c #4B5E6E",
"o 	c #4F6372",
"p 	c #526474",
"q 	c #546676",
"r 	c #556877",
"s 	c #586A79",
"t 	c #586B7B",
"u 	c #5B6E7C",
"v 	c #5D6F7D",
"w 	c #5F7180",
"x 	c #627281",
"y 	c #647483",
"z 	c #657784",
"A 	c #667987",
"B 	c #687989",
"C 	c #697A8C",
"D 	c #6A7C8F",
"E 	c #6B7C8F",
"F 	c #6D7D90",
"G 	c #6F7F92",
"H 	c #728294",
"I 	c #768595",
"J 	c #4A5D6C",
"K 	c #293A46",
"L 	c #485561",
"M 	c #637684",
"N 	c #637582",
"O 	c #627584",
"P 	c #667687",
"Q 	c #667889",
"R 	c #687A8D",
"S 	c #6C7D8F",
"T 	c #6F8091",
"U 	c #728393",
"V 	c #778695",
"W 	c #798897",
"X 	c #7C8B9B",
"Y 	c #7F8E9D",
"Z 	c #8190A0",
"` 	c #8594A2",
" .	c #8896A4",
"..	c #8B9AA9",
"+.	c #8E9CAB",
"@.	c #929FAE",
"#.	c #93A1AF",
"$.	c #94A2B2",
"%.	c #97A5B4",
"&.	c #99A6B5",
"*.	c #9CA8B7",
"=.	c #9EAAB8",
"-.	c #8593A2",
";.	c #617280",
">.	c #3D4C58",
",.	c #42505C",
"'.	c #5D707E",
").	c #5F717E",
"!.	c #617482",
"~.	c #657585",
"{.	c #697B8B",
"].	c #6B7B8D",
"^.	c #6D7E91",
"/.	c #718092",
"(.	c #738395",
"_.	c #768696",
":.	c #7A8898",
"<.	c #7C8B9A",
"[.	c #7F8E9E",
"}.	c #8593A3",
"|.	c #8796A5",
"1.	c #8A98A7",
"2.	c #8D99A9",
"3.	c #8F9CAD",
"4.	c #91A0B0",
"5.	c #95A2B1",
"6.	c #98A3B3",
"7.	c #9AA7B5",
"8.	c #5D6E7C",
"9.	c #32424E",
"0.	c #3C4C58",
"a.	c #596B79",
"b.	c #5A6D7C",
"c.	c #5E707E",
"d.	c #60727F",
"e.	c #627382",
"f.	c #647585",
"g.	c #667887",
"h.	c #687A89",
"i.	c #6A7C8C",
"j.	c #6C7D8E",
"k.	c #6E7E90",
"l.	c #758596",
"m.	c #798899",
"n.	c #7B8A9B",
"o.	c #7E8C9C",
"p.	c #808E9F",
"q.	c #8391A1",
"r.	c #8594A4",
"s.	c #8896A5",
"t.	c #8D9AA9",
"u.	c #617382",
"v.	c #556777",
"w.	c #2A3A47",
"x.	c #3B4B56",
"y.	c #586A77",
"z.	c #566878",
"A.	c #566877",
"B.	c #586B7A",
"C.	c #647684",
"D.	c #657886",
"E.	c #677A88",
"F.	c #69798B",
"G.	c #6A7B8E",
"H.	c #6C7D90",
"I.	c #718193",
"J.	c #758595",
"K.	c #778797",
"L.	c #7A8998",
"M.	c #7F8D9D",
"N.	c #81909F",
"O.	c #8392A1",
"P.	c #8594A3",
"Q.	c #293946",
"R.	c #758495",
"S.	c #778697",
"T.	c #7E8D9D",
"U.	c #818F9F",
"V.	c #364651",
"W.	c #516471",
"X.	c #4C5F6E",
"Y.	c #4B5E6C",
"Z.	c #4D6070",
"`.	c #506371",
" +	c #516472",
".+	c #536574",
"++	c #556776",
"@+	c #586A78",
"#+	c #586C7A",
"$+	c #5B6D7E",
"%+	c #5C6F80",
"&+	c #5E7082",
"*+	c #617284",
"=+	c #627385",
"-+	c #657686",
";+	c #677887",
">+	c #6A7A89",
",+	c #6B7C8C",
"'+	c #6D7D8D",
")+	c #6F7F8E",
"!+	c #718190",
"~+	c #738393",
"{+	c #768594",
"]+	c #485B6B",
"^+	c #243542",
"/+	c #20303C",
"(+	c #384958",
"_+	c #263948",
":+	c #223543",
"<+	c #233544",
"[+	c #233644",
"}+	c #243745",
"|+	c #253846",
"1+	c #253948",
"2+	c #253A48",
"3+	c #263A49",
"4+	c #273B4A",
"5+	c #283C4B",
"6+	c #293D4C",
"7+	c #2A3E4D",
"8+	c #2B3E4E",
"9+	c #2C3F4F",
"0+	c #2E3F4F",
"a+	c #213442",
"b+	c #13252F",
". + @ # $ % & * = - ; > , ' ) ! ~ { ] ^ / ( ( _ : < [ } | 1 2 1 | 3 4 5 6 7 ( 8 / 9 0 ~ a b c d e f - = * & g $ h i j . ",
". + @ # $ k l m n m o p q r s t u v w x y z A B C D E F G H I H G F E D C B A z y x w v u t s r q p o m n J K $ h i j . ",
". + @ # $ L M N O P Q R S T U V W X Y Z `  ...+.@.#.$.%.&.*.=.*.&.%.$.#.@.+... .-.Z Y X W V U T S R Q P O ;.>.$ h i j . ",
". + @ # $ ,.'.).w !.~.A {.].^./.(._.:.<.[.Z }.|.1.2.3.4.5.6.7.6.5.4.3.2.1.|.}.Z [.<.:._.(./.^.].{.A ~.!.w 8.9.$ h i j . ",
". + @ # $ 0.a.s s b.c.d.e.f.g.h.i.j.k./.(.l.m.n.o.p.q.r.s.1.t.1.s.r.q.p.o.n.m.l.(./.k.j.i.h.g.f.u.d.c.b.s v.w.$ h i j . ",
". + @ # $ x.y.z.A.B.u v w u.C.D.E.F.G.H.G I.J.K.L.X M.N.O.P.s.P.O.N.M.X L.K.J.I.G H.G.F.E.D.C.u.w v u B.A.l Q.$ h i j . ",
". + @ # $ x.y.z.A.B.u v w u.C.D.E.F.G.H.G I.J.K.L.X M.N.O.P.s.P.O.N.M.X L.K.J.I.G H.G.F.E.D.C.u.w v u B.A.l Q.$ h i j . ",
". + @ # $ x.y.z.A.B.u v w u.C.D.E.F.G.H.G I.J.K.L.X M.N.O.P.s.P.O.N.M.X L.K.J.I.G H.G.F.E.D.C.u.w v u B.A.l Q.$ h i j . ",
". + @ # $ x.y.z.A.B.u v w u.C.D.E.F.G.H.G I.R.S.L.X T.U.q.P.s.P.q.N.T.X L.S.R.I.G H.G.F.E.D.C.u.w v u B.A.l Q.$ h i j . ",
". + @ # $ V.W.X.Y.Z.`. +.+++@+#+b.$+%+&+*+=+-+;+>+,+'+)+!+~+{+~+!+)+'+,+>+;+-+=+*+&+%+$+b.#+@+++.+ +`.Z.Y.]+^+$ h i j . ",
". + @ # $ /+(+_+:+<+[+[+}+|+|+1+2+3+4+4+5+5+5+6+7+7+8+8+9+0+0+0+9+8+8+7+7+6+5+5+5+4+4+3+2+1+|+|+}+[+[+<+:+a+b+$ h i j . "};
