/* XPM */
static char * bg_panel_timers_1_xpm[] = {
"60 11 208 2",
"  	c None",
". 	c #1E1E1E",
"+ 	c #545754",
"@ 	c #5E615E",
"# 	c #676B67",
"$ 	c #707370",
"% 	c #7D807E",
"& 	c #7F8180",
"* 	c #818181",
"= 	c #818481",
"- 	c #818583",
"; 	c #838584",
"> 	c #848785",
", 	c #868787",
"' 	c #878887",
") 	c #878A88",
"! 	c #898B8A",
"~ 	c #8A8D8B",
"{ 	c #8B8D8C",
"] 	c #8D8D8D",
"^ 	c #8D8E8D",
"/ 	c #8D8F8D",
"( 	c #8E908F",
"_ 	c #8E9190",
": 	c #909291",
"< 	c #919391",
"[ 	c #929493",
"} 	c #939593",
"| 	c #939694",
"1 	c #959796",
"2 	c #959896",
"3 	c #919593",
"4 	c #919492",
"5 	c #909391",
"6 	c #8F9290",
"7 	c #8F9190",
"8 	c #8D908E",
"9 	c #8C8E8D",
"0 	c #8B8D8D",
"a 	c #898D8A",
"b 	c #878B89",
"c 	c #878A87",
"d 	c #858887",
"e 	c #848786",
"f 	c #838784",
"g 	c #7D817F",
"h 	c #646864",
"i 	c #575B57",
"j 	c #494C49",
"k 	c #404B4D",
"l 	c #5A676B",
"m 	c #556366",
"n 	c #536164",
"o 	c #586567",
"p 	c #5B676A",
"q 	c #5D696C",
"r 	c #5E6A6D",
"s 	c #616B6E",
"t 	c #616D70",
"u 	c #647071",
"v 	c #667273",
"w 	c #687375",
"x 	c #6B7476",
"y 	c #6D7678",
"z 	c #6E7979",
"A 	c #6F7B7C",
"B 	c #717B7E",
"C 	c #727D81",
"D 	c #737F84",
"E 	c #747F85",
"F 	c #758086",
"G 	c #778288",
"H 	c #7B858A",
"I 	c #7E888B",
"J 	c #526063",
"K 	c #2E3C3F",
"L 	c #505757",
"M 	c #6C7879",
"N 	c #6C7777",
"O 	c #6B787A",
"P 	c #6F787C",
"Q 	c #6F7A7E",
"R 	c #717D82",
"S 	c #758084",
"T 	c #788487",
"U 	c #7A8689",
"V 	c #80898B",
"W 	c #828B8D",
"X 	c #848E91",
"Y 	c #889193",
"Z 	c #8A9295",
"` 	c #8D9698",
" .	c #91989A",
"..	c #949C9F",
"+.	c #969EA1",
"@.	c #9BA1A4",
"#.	c #9CA3A5",
"$.	c #9DA4A8",
"%.	c #9FA7AA",
"&.	c #A2A8AB",
"*.	c #A4A9AD",
"=.	c #A6ACAF",
"-.	c #6A7575",
";.	c #444F4F",
">.	c #4A5353",
",.	c #667373",
"'.	c #687373",
").	c #6A7677",
"!.	c #6F787A",
"~.	c #727E81",
"{.	c #747E83",
"].	c #768187",
"^.	c #798388",
"/.	c #7C868B",
"(.	c #7F898C",
"_.	c #838B8E",
":.	c #858E90",
"<.	c #889093",
"[.	c #8E9699",
"}.	c #90989B",
"|.	c #929A9D",
"1.	c #969B9F",
"2.	c #989EA3",
"3.	c #99A2A6",
"4.	c #9EA4A7",
"5.	c #A0A5A9",
"6.	c #A2A9AB",
"7.	c #667171",
"8.	c #384547",
"9.	c #434F50",
"0.	c #626E6F",
"a.	c #637072",
"b.	c #677374",
"c.	c #697474",
"d.	c #6B7678",
"e.	c #6D777A",
"f.	c #6F7A7C",
"g.	c #717C7E",
"h.	c #737F82",
"i.	c #778186",
"j.	c #7D888C",
"k.	c #828B8F",
"l.	c #848D91",
"m.	c #878F92",
"n.	c #899094",
"o.	c #8C9497",
"p.	c #8D969A",
"q.	c #969C9F",
"r.	c #6A7577",
"s.	c #2F3C40",
"t.	c #424D4D",
"u.	c #616B6C",
"v.	c #5F6B6E",
"w.	c #6E7A7B",
"x.	c #707C7D",
"y.	c #727C81",
"z.	c #737E84",
"A.	c #7A8489",
"B.	c #808A8D",
"C.	c #838C8E",
"D.	c #8A9395",
"E.	c #8C9597",
"F.	c #7E878B",
"G.	c #80898D",
"H.	c #3C4849",
"I.	c #5A6767",
"J.	c #546265",
"K.	c #536062",
"L.	c #596668",
"M.	c #5C6769",
"N.	c #616C6E",
"O.	c #626F6F",
"P.	c #647073",
"Q.	c #657276",
"R.	c #687377",
"S.	c #6A7579",
"T.	c #6B767A",
"U.	c #6E787B",
"V.	c #707B7D",
"W.	c #737C7E",
"X.	c #747F81",
"Y.	c #768083",
"Z.	c #788283",
"`.	c #798486",
" +	c #7C8689",
".+	c #7F888A",
"++	c #505E61",
"@+	c #29383C",
"#+	c #243337",
"$+	c #3F4C50",
"%+	c #2B3C42",
"&+	c #27373C",
"*+	c #28373D",
"=+	c #28383D",
"-+	c #293A3E",
";+	c #2A3B3F",
">+	c #2A3C41",
",+	c #2A3D41",
"'+	c #2B3D42",
")+	c #2C3E43",
"!+	c #2D3F44",
"~+	c #2E4045",
"{+	c #304045",
"]+	c #314046",
"^+	c #324147",
"/+	c #344147",
"(+	c #26363B",
"_+	c #16282B",
". + @ # $ % & * = - ; > , ' ) ! ~ { ] ^ / ( ( _ : < [ } | 1 2 1 | 3 4 5 6 7 ( 8 / 9 0 ~ a b c d e f - = * & g $ h i j . ",
". + @ # $ k l m n m o p q r s t u v w x y z A B C D E F G H I H G F E D C B A z y x w v u t s r q p o m n J K $ h i j . ",
". + @ # $ L M N O P Q R S T U V W X Y Z `  ...+.@.#.$.%.&.*.=.*.&.%.$.#.@.+... .` Z Y X W V U T S R Q P O -.;.$ h i j . ",
". + @ # $ >.,.'.w ).!.A ~.{.].^./.(._.:.<.Z [.}.|.1.2.3.4.5.6.5.4.3.2.1.|.}.[.Z <.:._.(./.^.].{.~.A !.).w 7.8.$ h i j . ",
". + @ # $ 9.0.s s a.b.c.d.e.f.g.h.S i.^./.j.k.l.m.n.o.p.}.|.q.|.}.p.o.n.m.l.k.j./.^.i.S h.g.f.e.r.c.b.a.s r s.$ h i j . ",
". + @ # $ t.u.v.r 0.u v w r.z w.x.y.z.F G A.I B.C.X <.D.E.[.}.[.E.D.<.X C.B.I A.G F z.y.x.w.z r.w v u 0.r l K $ h i j . ",
". + @ # $ t.u.v.r 0.u v w r.z w.x.y.z.F G A.I B.C.X <.D.E.[.}.[.E.D.<.X C.B.I A.G F z.y.x.w.z r.w v u 0.r l K $ h i j . ",
". + @ # $ t.u.v.r 0.u v w r.z w.x.y.z.F G A.I B.C.X <.D.E.[.}.[.E.D.<.X C.B.I A.G F z.y.x.w.z r.w v u 0.r l K $ h i j . ",
". + @ # $ t.u.v.r 0.u v w r.z w.x.y.z.F G A.F.G.C.X m.Z o.[.}.[.o.D.m.X C.G.F.A.G F z.y.x.w.z r.w v u 0.r l K $ h i j . ",
". + @ # $ H.I.J.K.m o L.M.q N.O.a.P.Q.R.S.T.U.V.W.X.Y.Z.`. +.+ +`.Z.Y.X.W.V.U.T.S.R.Q.P.a.O.N.q M.L.o m K.++@+$ h i j . ",
". + @ # $ #+$+%+&+*+=+=+-+;+;+>+,+'+)+)+!+!+!+~+{+{+]+]+^+/+/+/+^+]+]+{+{+~+!+!+!+)+)+'+,+>+;+;+-+=+=+*+&+(+_+$ h i j . "};
