/* XPM */
static char * spacer_bottom_timers_xpm[] = {
"60 3 131 2",
"  	c None",
". 	c #232323",
"+ 	c #545754",
"@ 	c #5E615E",
"# 	c #676B67",
"$ 	c #707370",
"% 	c #7D807E",
"& 	c #7F8180",
"* 	c #818181",
"= 	c #818481",
"- 	c #818583",
"; 	c #838584",
"> 	c #848785",
", 	c #868787",
"' 	c #878887",
") 	c #878A88",
"! 	c #898B8A",
"~ 	c #8A8D8B",
"{ 	c #8B8D8C",
"] 	c #8D8D8D",
"^ 	c #8D8E8D",
"/ 	c #8D8F8D",
"( 	c #8E908F",
"_ 	c #8E9190",
": 	c #909291",
"< 	c #919391",
"[ 	c #929493",
"} 	c #939593",
"| 	c #939694",
"1 	c #959796",
"2 	c #959896",
"3 	c #919593",
"4 	c #919492",
"5 	c #909391",
"6 	c #8F9290",
"7 	c #8F9190",
"8 	c #8D908E",
"9 	c #8C8E8D",
"0 	c #8B8D8D",
"a 	c #898D8A",
"b 	c #878B89",
"c 	c #878A87",
"d 	c #858887",
"e 	c #848786",
"f 	c #838784",
"g 	c #7D817F",
"h 	c #646864",
"i 	c #575B57",
"j 	c #494C49",
"k 	c #000000",
"l 	c #4E514F",
"m 	c #515351",
"n 	c #525553",
"o 	c #535654",
"p 	c #555856",
"q 	c #575858",
"r 	c #585B58",
"s 	c #585D5A",
"t 	c #5A5D5B",
"u 	c #5C5F5D",
"v 	c #5E605F",
"w 	c #5F615F",
"x 	c #606361",
"y 	c #626563",
"z 	c #646765",
"A 	c #656766",
"B 	c #676867",
"C 	c #676968",
"D 	c #686A68",
"E 	c #696C6A",
"F 	c #696D6B",
"G 	c #6C6E6D",
"H 	c #6D6F6D",
"I 	c #6E716F",
"J 	c #6F7270",
"K 	c #6F7471",
"L 	c #727573",
"M 	c #727674",
"N 	c #6D726F",
"O 	c #6D716E",
"P 	c #6B6F6D",
"Q 	c #6A6E6C",
"R 	c #6A6D6B",
"S 	c #686B69",
"T 	c #676A68",
"U 	c #666967",
"V 	c #656867",
"W 	c #636765",
"X 	c #626764",
"Y 	c #606562",
"Z 	c #5F6360",
"` 	c #5D615F",
" .	c #5C605E",
"..	c #5A5F5C",
"+.	c #535855",
"@.	c #515452",
"#.	c #505251",
"$.	c #333433",
"%.	c #333534",
"&.	c #353635",
"*.	c #363636",
"=.	c #363736",
"-.	c #363937",
";.	c #373938",
">.	c #383A39",
",.	c #393A39",
"'.	c #393A3A",
").	c #3A3B3A",
"!.	c #3A3C3A",
"~.	c #3B3D3C",
"{.	c #3D3F3D",
"].	c #3D403E",
"^.	c #3F4140",
"/.	c #404241",
"(.	c #414341",
"_.	c #414442",
":.	c #434544",
"<.	c #454545",
"[.	c #454845",
"}.	c #454846",
"|.	c #464A48",
"1.	c #484A49",
"2.	c #494B4A",
"3.	c #4A4C4B",
"4.	c #454946",
"5.	c #454645",
"6.	c #424543",
"7.	c #414542",
"8.	c #404140",
"9.	c #3B3F3D",
"0.	c #3A3D3B",
". + @ # $ % & * = - ; > , ' ) ! ~ { ] ^ / ( ( _ : < [ } | 1 2 1 | 3 4 5 6 7 ( 8 / 9 0 ~ a b c d e f - = * & g $ h i j . ",
"k . l m n o p q r s t u v w x y z A B C D E E F G H I J K L M L K N O P Q R E S T U V W X Y Z `  ...s r q p +.n @.#.. k ",
"k k . $.%.&.*.=.-.;.>.,.'.).!.~.{.].^./.(._.:.<.<.[.}.|.1.2.3.2.1.|.4.5.<.:.6.7.(.8.^.].9.0.0.0.0.0.0.0.0.0.0.0.0.. k k "};
