/* XPM */
static char * spacer_top_timers_xpm[] = {
"60 3 122 2",
"  	c None",
". 	c #000000",
"+ 	c #232323",
"@ 	c #3D413E",
"# 	c #3D3F3D",
"$ 	c #3E413F",
"% 	c #404141",
"& 	c #414241",
"* 	c #414342",
"= 	c #424342",
"- 	c #434543",
"; 	c #444645",
"> 	c #454745",
", 	c #464947",
"' 	c #484A49",
") 	c #4A4B4A",
"! 	c #4B4C4B",
"~ 	c #4B4C4C",
"{ 	c #4C4D4C",
"] 	c #4C4F4D",
"^ 	c #4C504E",
"/ 	c #4F5050",
"( 	c #505150",
"_ 	c #505251",
": 	c #515352",
"< 	c #515552",
"[ 	c #535654",
"} 	c #535755",
"| 	c #505351",
"1 	c #505250",
"2 	c #4E5150",
"3 	c #4D504F",
"4 	c #4D504E",
"5 	c #4C4E4C",
"6 	c #4B4D4C",
"7 	c #4A4C4B",
"8 	c #494B4A",
"9 	c #484B4A",
"0 	c #464A48",
"a 	c #454946",
"b 	c #434745",
"c 	c #434644",
"d 	c #424543",
"e 	c #535553",
"f 	c #535655",
"g 	c #545756",
"h 	c #555856",
"i 	c #565957",
"j 	c #565B58",
"k 	c #575C59",
"l 	c #585C5A",
"m 	c #595C5B",
"n 	c #5A5D5C",
"o 	c #5C5E5C",
"p 	c #5C5F5D",
"q 	c #5D5F5E",
"r 	c #5D605F",
"s 	c #5F6160",
"t 	c #606361",
"u 	c #616361",
"v 	c #626563",
"w 	c #646665",
"x 	c #646865",
"y 	c #656866",
"z 	c #656967",
"A 	c #666A68",
"B 	c #686B69",
"C 	c #686C6A",
"D 	c #6A6D6B",
"E 	c #6B6E6C",
"F 	c #616563",
"G 	c #616562",
"H 	c #5F6260",
"I 	c #5E615F",
"J 	c #5C605E",
"K 	c #5C605D",
"L 	c #5B5F5C",
"M 	c #595E5C",
"N 	c #585D5B",
"O 	c #575C5A",
"P 	c #565A57",
"Q 	c #565956",
"R 	c #585B59",
"S 	c #676B67",
"T 	c #616462",
"U 	c #636464",
"V 	c #646764",
"W 	c #646966",
"X 	c #666967",
"Y 	c #686A69",
"Z 	c #696B6A",
"` 	c #6A6C6A",
" .	c #6D706E",
"..	c #6F7270",
"+.	c #707271",
"@.	c #727372",
"#.	c #727473",
"$.	c #737573",
"%.	c #747775",
"&.	c #747876",
"*.	c #777978",
"=.	c #787978",
"-.	c #797B79",
";.	c #797C7A",
">.	c #797E7B",
",.	c #7C7F7D",
"'.	c #7C807E",
").	c #787C79",
"!.	c #787B79",
"~.	c #767978",
"{.	c #757977",
"].	c #757876",
"^.	c #737674",
"/.	c #727573",
"(.	c #717472",
"_.	c #707372",
":.	c #6E7270",
"<.	c #6D726F",
"[.	c #6B706D",
"}.	c #6A6E6B",
"|.	c #696C6A",
"1.	c #5F6461",
". . . + @ # $ % & * = - ; > , ' ) ) ! ~ { ] ] ^ / ( _ : < [ } [ < | 1 2 3 4 ] 5 6 7 7 8 9 0 a b c d * & % $ @ @ + . . . ",
". . + e [ f g h i j k l m n o p q r s t u v w x y z A B C D E D C B A z y w F G t H I J K L M N O k j P Q h f [ [ + . . ",
". + R S p H T U V W X Y Z ` E  ...+.@.#.$.%.%.&.*.=.-.;.>.,.'.,.>.).!.~.{.].%.^./.(._.:.<.[.}.|.B A W V U T 1.p S _ + . "};
