/* XPM */
static char * bg_panel_clock_xpm[] = {
"60 14 160 2",
"  	c None",
". 	c #1E1E1E",
"+ 	c #545754",
"@ 	c #5E615E",
"# 	c #676B67",
"$ 	c #303133",
"% 	c #323636",
"& 	c #343638",
"* 	c #36383A",
"= 	c #363A3C",
"- 	c #3A3C3D",
"; 	c #3B3D40",
"> 	c #3D4042",
", 	c #3F4243",
"' 	c #404446",
") 	c #424748",
"! 	c #44484A",
"~ 	c #45484B",
"{ 	c #474B4C",
"] 	c #474B4D",
"^ 	c #474D4E",
"/ 	c #484D4F",
"( 	c #4A5051",
"_ 	c #4B5152",
": 	c #4B5153",
"< 	c #4C5253",
"[ 	c #4D5455",
"} 	c #4E5556",
"| 	c #4F5557",
"1 	c #505658",
"2 	c #505758",
"3 	c #4F5657",
"4 	c #4D5657",
"5 	c #4D5556",
"6 	c #4C5455",
"7 	c #4C5353",
"8 	c #4B5253",
"9 	c #4A4F51",
"0 	c #494E50",
"a 	c #484C4D",
"b 	c #474A4C",
"c 	c #46494B",
"d 	c #434749",
"e 	c #424647",
"f 	c #414345",
"g 	c #3E4142",
"h 	c #3D3F41",
"i 	c #3B3D3E",
"j 	c #373C3D",
"k 	c #36393B",
"l 	c #323436",
"m 	c #303234",
"n 	c #646864",
"o 	c #575B57",
"p 	c #494C49",
"q 	c #5E6F6F",
"r 	c #5E7073",
"s 	c #617374",
"t 	c #637474",
"u 	c #647577",
"v 	c #667879",
"w 	c #68797B",
"x 	c #6B7C7C",
"y 	c #6B7D7E",
"z 	c #6D8080",
"A 	c #6F7F82",
"B 	c #6E8085",
"C 	c #6F8288",
"D 	c #738288",
"E 	c #74858B",
"F 	c #75868C",
"G 	c #7A8A8D",
"H 	c #7B8C90",
"I 	c #7D8D90",
"J 	c #808F91",
"K 	c #819194",
"L 	c #839396",
"M 	c #869597",
"N 	c #87979A",
"O 	c #89989A",
"P 	c #8A999D",
"Q 	c #8D9B9E",
"R 	c #4A4C4A",
"S 	c #000000",
"T 	c #313435",
"U 	c #777B7D",
"V 	c #787C7E",
"W 	c #787D7F",
"X 	c #7A8081",
"Y 	c #7A8183",
"Z 	c #7B8284",
"` 	c #7D8586",
" .	c #7E8687",
"..	c #7F8788",
"+.	c #808888",
"@.	c #828A8A",
"#.	c #838D8D",
"$.	c #848E8E",
"%.	c #858F8F",
"&.	c #879191",
"*.	c #889393",
"=.	c #899494",
"-.	c #8B9696",
";.	c #8B9897",
">.	c #8D9998",
",.	c #8F9B9A",
"'.	c #909C9A",
").	c #909E9C",
"!.	c #929E9D",
"~.	c #93A19F",
"{.	c #94A2A0",
"].	c #919D9B",
"^.	c #8E9A99",
"/.	c #8C9898",
"(.	c #8A9796",
"_.	c #8A9595",
":.	c #889292",
"<.	c #869090",
"[.	c #828B8C",
"}.	c #818889",
"|.	c #7F8688",
"1.	c #7D8486",
"2.	c #7C8385",
"3.	c #798082",
"4.	c #797F80",
"5.	c #787E7F",
"6.	c #545B5C",
"7.	c #565C5E",
"8.	c #586061",
"9.	c #596364",
"0.	c #5D6466",
"a.	c #5E6567",
"b.	c #606768",
"c.	c #62686A",
"d.	c #656A6B",
"e.	c #656D6F",
"f.	c #686F70",
"g.	c #687173",
"h.	c #697274",
"i.	c #6A7375",
"j.	c #6B7476",
"k.	c #6D7576",
"l.	c #6E7677",
"m.	c #6E7878",
"n.	c #6F7879",
"o.	c #70797A",
"p.	c #717A7B",
"q.	c #727B7C",
"r.	c #737D7D",
"s.	c #737F7F",
"t.	c #757F7F",
"u.	c #768080",
"v.	c #737C7D",
"w.	c #707878",
"x.	c #6F7778",
"y.	c #6B7576",
"z.	c #5C6265",
"A.	c #5A6163",
"B.	c #585F61",
"C.	c #575D5F",
". + @ # $ % & * = - ; > , ' ) ! ~ { ] ] ^ / ( _ : < [ } | 1 2 3 4 5 6 7 8 9 0 / a ] b c ~ d e f g h i j k & l m n o p . ",
". + @ # q r s t u v w x y z A B C D E F G H I J K L M N O P Q P O N M L K J I H G F E D C B A z y x w v u t s r n o p . ",
". + @ # q r s t u v w x y z A B C D E F G H I J K L M N O P Q P O N M L K J I H G F E D C B A z y x w v u t s r n o p . ",
". + @ # q r s t u v w x y z A B C D E F G H I J K L M N O P Q P O N M L K J I H G F E D C B A z y x w v u t s r n o p . ",
". + @ # q r s t u v w x y z A B C D E F G H I J K L M N O P Q P O N M L K J I H G F E D C B A z y x w v u t s r n o p . ",
". + @ # q r s t u v w x y z A B C D E F G H I J K L M N O P Q P O N M L K J I H G F E D C B A z y x w v u t s r n o p . ",
". + @ # q r s t u v w x y z A B C D E F G H I J K L M N O P Q P O N M L K J I H G F E D C B A z y x w v u t s r n o p . ",
". + @ # q r s t u v w x y z A B C D E F G H I J K L M N O P Q P O N M L K J I H G F E D C B A z y x w v u t s r n o p . ",
". + @ # q r s t u v w x y z A B C D E F G H I J K L M N O P Q P O N M L K J I H G F E D C B A z y x w v u t s r n o p . ",
". + @ # q r s t u v w x y z A B C D E F G H I J K L M N O P Q P O N M L K J I H G F E D C B A z y x w v u t s r n o p . ",
". + @ # q r s t u v w x y z A B C D E F G H I J K L M N O P Q P O N M L K J I H G F E D C B A z y x w v u t s r n o p . ",
". R @ # q r s t u v w x y z A B C D E F G H I J K L M N O P Q P O N M L K J I H G F E D C B A z y x w v u t s r n o o . ",
"S T o U V W X Y Z `  ...+.@.@.#.$.%.&.*.=.-.;.;.>.,.'.).!.~.{.~.!.].,.^./.;.(._.=.:.<.%.$.[.@.}.+.|.1.2.Y 3.4.5.U o T S ",
"S S T 6.7.8.9.0.a.b.c.d.e.f.g.h.i.j.k.l.m.n.o.p.q.r.s.t.t.t.u.t.t.s.v.q.p.o.w.x.l.k.y.h.h.g.f.e.d.c.b.a.z.A.B.C.o T S S "};
