/* XPM */
static char * bg_panel_fs_xpm[] = {
"60 9 84 1",
" 	c None",
".	c #1E1E1E",
"+	c #545754",
"@	c #5E615E",
"#	c #4B5E6E",
"$	c #4E616F",
"%	c #4F6372",
"&	c #516474",
"*	c #546675",
"=	c #546777",
"-	c #566877",
";	c #586A79",
">	c #586B7B",
",	c #5B6E7C",
"'	c #5D6F7C",
")	c #5E6F7F",
"!	c #607381",
"~	c #627281",
"{	c #647483",
"]	c #657784",
"^	c #657886",
"/	c #677A88",
"(	c #69798A",
"_	c #697A8C",
":	c #6A7C8F",
"<	c #6D7D90",
"[	c #6E7E91",
"}	c #708093",
"|	c #738394",
"1	c #768595",
"2	c #575B57",
"3	c #494C49",
"4	c #657888",
"5	c #718194",
"6	c #768697",
"7	c #7B8998",
"8	c #7C8A99",
"9	c #7E8D9D",
"0	c #8190A0",
"a	c #8492A1",
"b	c #8594A4",
"c	c #8997A6",
"d	c #8C99A7",
"e	c #8E9CAB",
"f	c #909FAF",
"g	c #94A0AF",
"h	c #97A4B2",
"i	c #98A5B3",
"j	c #98A6B5",
"k	c #9AA9B7",
"l	c #9DAAB8",
"m	c #9EABB9",
"n	c #A1ACBC",
"o	c #A3AEBC",
"p	c #6B7D90",
"q	c #788797",
"r	c #7D8C9C",
"s	c #8896A5",
"t	c #8A96A7",
"u	c #8D99AA",
"v	c #8E9DAD",
"w	c #96A1B1",
"x	c #536676",
"y	c #586A77",
"z	c #627383",
"A	c #6F7F92",
"B	c #758494",
"C	c #7C8B9B",
"D	c #818F9E",
"E	c #8291A1",
"F	c #808E9D",
"G	c #213644",
"H	c #223745",
"I	c #233846",
"J	c #243947",
"K	c #243B49",
"L	c #253C4A",
"M	c #263D4B",
"N	c #273E4C",
"O	c #283F4D",
"P	c #29404E",
"Q	c #2A3F4F",
"R	c #2B4050",
"S	c #2D4050",
".+@##$%&*=-;>,')!~{]^/(_::<[}|1|}[<::_(/^]{~!)',>;-=*&%$#23.",
".+@]4(_:[5|67890abcdefghijklmnonmlkjihgfedcba09876|5[:_(423.",
".+@')!{]/(_p[}|1q7r90abstuvfgwiwgfvutsba09r7q1|}[p_(/]{!)23.",
".+@xy>,')!z]^/(_:<A}B6q7C9DEabsbaED9C7q6B}A<:_(/^]z!)',>y23.",
".+@xy>,')!z]^/(_:<A}B6q7C9DEabsbaED9C7q6B}A<:_(/^]z!)',>y23.",
".+@xy>,')!z]^/(_:<A}B6q7C9DEabsbaED9C7q6B}A<:_(/^]z!)',>y23.",
".+@xy>,')!z]^/(_:<A}B6q7C9DEabsbaED9C7q6B}A<:_(/^]z!)',>y23.",
".+@xy>,')!z]^/(_:<A}|1q7CrF0absba0FrC7q1|}A<:_(/^]z!)',>y23.",
".+@GGHHHIJJJKKLMMMNNNNOPPQQRRSSSRRQQPPONNNNMMMLKKJJJIHHHG23."};
