/* XPM */
static char * spacer_bottom_fs_xpm[] = {
"60 3 123 2",
"  	c None",
". 	c #232323",
"+ 	c #545754",
"@ 	c #5E615E",
"# 	c #696C6A",
"$ 	c #6A6D6B",
"% 	c #6A6E6C",
"& 	c #6B6F6D",
"* 	c #6C706D",
"= 	c #6E716F",
"- 	c #6E7370",
"; 	c #6F7471",
"> 	c #707572",
", 	c #717573",
"' 	c #727674",
") 	c #757775",
"! 	c #757876",
"~ 	c #767877",
"{ 	c #767A78",
"] 	c #787B79",
"^ 	c #797D7B",
"/ 	c #7B7D7B",
"( 	c #7C7F7D",
"_ 	c #7E817F",
": 	c #7E8380",
"< 	c #7F8381",
"[ 	c #808482",
"} 	c #818583",
"| 	c #838784",
"1 	c #838885",
"2 	c #858987",
"3 	c #878A88",
"4 	c #7B807D",
"5 	c #7B7F7C",
"6 	c #787C7A",
"7 	c #777B78",
"8 	c #757A77",
"9 	c #747976",
"0 	c #737875",
"a 	c #717774",
"b 	c #707673",
"c 	c #6F7572",
"d 	c #6D726F",
"e 	c #6D716E",
"f 	c #696D6B",
"g 	c #575B57",
"h 	c #494C49",
"i 	c #000000",
"j 	c #4E514F",
"k 	c #464846",
"l 	c #474948",
"m 	c #484A48",
"n 	c #494C4A",
"o 	c #4B4C4C",
"p 	c #4C4F4C",
"q 	c #4C504E",
"r 	c #4E504F",
"s 	c #4F5250",
"t 	c #515352",
"u 	c #525452",
"v 	c #535554",
"w 	c #555755",
"x 	c #565957",
"y 	c #575958",
"z 	c #595A59",
"A 	c #595B5A",
"B 	c #5A5B5A",
"C 	c #5B5D5B",
"D 	c #5B5E5C",
"E 	c #5D5F5E",
"F 	c #5E605E",
"G 	c #5F6160",
"H 	c #606261",
"I 	c #606461",
"J 	c #626563",
"K 	c #626664",
"L 	c #5E6260",
"M 	c #5E615F",
"N 	c #5C605E",
"O 	c #5B5F5D",
"P 	c #5A5C5B",
"Q 	c #585B59",
"R 	c #575A59",
"S 	c #555957",
"T 	c #555956",
"U 	c #535755",
"V 	c #525553",
"W 	c #505452",
"X 	c #4F5351",
"Y 	c #4E524F",
"Z 	c #484C49",
"` 	c #464847",
" .	c #505251",
"..	c #2F302F",
"+.	c #303030",
"@.	c #303130",
"#.	c #303231",
"$.	c #313231",
"%.	c #313332",
"&.	c #323332",
"*.	c #323333",
"=.	c #333433",
"-.	c #333533",
";.	c #343635",
">.	c #363836",
",.	c #363837",
"'.	c #383938",
").	c #383A39",
"!.	c #393B39",
"~.	c #393C3A",
"{.	c #3B3D3C",
"].	c #3D3D3D",
"^.	c #3D403D",
"/.	c #3D403E",
"(.	c #3E4140",
"_.	c #404140",
":.	c #404241",
"<.	c #414342",
"[.	c #3D3E3D",
"}.	c #3A3D3B",
"|.	c #393D3A",
"1.	c #343836",
"2.	c #333634",
". + @ # $ % & * = - ; > , ' ) ! ~ { ] ^ / ( _ : < [ } | 1 2 3 2 1 | } [ < _ 4 5 ^ 6 7 8 9 0 a b c ; - d e * % f $ g h . ",
"i . j k l m n o p q r s t u v w x y z A B C C D E F G H I J K J I L M N O D C P A Q R S T U V W X Y q p o n Z l `  .. i ",
"i i . . . ..+.@.#.$.%.&.*.=.-.;.>.,.'.).!.~.{.].].^./.(._.:.<.:._.(./.[.].{.}.|.!.'.'.,.1.2.2.2.2.2.2.2.2.2.2.2.. . i i "};
