/* XPM */
static char * icon_xpm[] = {
"16 16 91 1",
" 	c #000100",
".	c #0B0E11",
"+	c #0F110D",
"@	c #191A18",
"#	c #161D19",
"$	c #212320",
"%	c #1D242A",
"&	c #2B332F",
"*	c #343633",
"=	c #30373E",
"-	c #373936",
";	c #343C3D",
">	c #363D39",
",	c #414240",
"'	c #414841",
")	c #4A484C",
"!	c #474E4F",
"~	c #414F5A",
"{	c #474F4B",
"]	c #445056",
"^	c #4D4E4C",
"/	c #47555B",
"(	c #4C535A",
"_	c #515255",
":	c #4A5561",
"<	c #535552",
"[	c #485A64",
"}	c #53594F",
"|	c #4B5C61",
"1	c #585A57",
"2	c #4A5E6D",
"3	c #556061",
"4	c #5D5F5C",
"5	c #5C6460",
"6	c #4E6871",
"7	c #5A6566",
"8	c #516777",
"9	c #576A75",
"0	c #5D6874",
"a	c #656764",
"b	c #5A697A",
"c	c #596F7F",
"d	c #626E6F",
"e	c #6B6D6A",
"f	c #617076",
"g	c #68706C",
"h	c #617082",
"i	c #647681",
"j	c #6C7476",
"k	c #67767C",
"l	c #6A7581",
"m	c #707571",
"n	c #677688",
"o	c #63798A",
"p	c #6C7B8D",
"q	c #777B78",
"r	c #717E84",
"s	c #747E7F",
"t	c #6C7F96",
"u	c #6E8495",
"v	c #75848A",
"w	c #748395",
"x	c #80827F",
"y	c #808588",
"z	c #7F868E",
"A	c #79889A",
"B	c #798C92",
"C	c #7C8B97",
"D	c #768D9E",
"E	c #898B88",
"F	c #84909D",
"G	c #7C9E72",
"H	c #8392A4",
"I	c #859A93",
"J	c #8E98A0",
"K	c #8D9CAF",
"L	c #8ABB54",
"M	c #A3A0A4",
"N	c #8CB76C",
"O	c #92AAAE",
"P	c #A0A8B0",
"Q	c #ACAEAB",
"R	c #B2B0B4",
"S	c #A6BEC2",
"T	c #9FE537",
"U	c #A0E930",
"V	c #AFEF2D",
"W	c #C4C9CC",
"X	c #CFD1CE",
"Y	c #E1E4E0",
"Z	c #E0F98C",
" ,'){_<}1<<!^!,&",
" mjmqxyyyyyymjga",
" dfjryBJJzCvrk05",
"+7cJPPJz0HCuph9^",
"#7hRXYQq(KHAtl9^",
"#7b~MY).HHCwpnb^",
"#76S%X.AHITGob6^",
"@|Cv[X:AHTZTii6^",
"#sO=9X:AHNVLcl6^",
"#I;:lX(AHDGric6^",
"@O.biX:AHHupi06^",
"#s[chW(AHAwpoc6^",
"$>~99:~nppc890[^",
"#|~]~[[||/|/~~{1",
" <345aeemag5533_",
" &*;-,;',',>-&*&"};
