/* XPM */
static char * bg_panel_swap_xpm[] = {
"60 14 153 2",
"  	c None",
". 	c #505757",
"+ 	c #525759",
"@ 	c #383A3D",
"# 	c #596B6E",
"$ 	c #5E6F6F",
"% 	c #5E7073",
"& 	c #617374",
"* 	c #737678",
"= 	c #747779",
"- 	c #75797A",
"; 	c #767A7B",
"> 	c #777B7B",
", 	c #777C7D",
"' 	c #797D7E",
") 	c #7A7E80",
"! 	c #CDD0D0",
"~ 	c #CDD0D1",
"{ 	c #CED1D1",
"] 	c #CED2D2",
"^ 	c #CFD2D3",
"/ 	c #7E8484",
"( 	c #7E8485",
"_ 	c #7F8585",
": 	c #808585",
"< 	c #808686",
"[ 	c #D1D5D5",
"} 	c #D0D5D5",
"| 	c #D0D4D4",
"1 	c #D0D3D4",
"2 	c #CFD3D3",
"3 	c #7E8283",
"4 	c #7D8182",
"5 	c #7C8181",
"6 	c #7C8081",
"7 	c #7B8081",
"8 	c #7B7F80",
"9 	c #CCCFD0",
"0 	c #CCCFCF",
"a 	c #CBCECF",
"b 	c #CBCDCD",
"c 	c #CACCCD",
"d 	c #C9CCCC",
"e 	c #C8CBCC",
"f 	c #C8CACB",
"g 	c #637474",
"h 	c #747677",
"i 	c #53585A",
"j 	c #515758",
"k 	c #647577",
"l 	c #667879",
"m 	c #68797B",
"n 	c #6B7C7C",
"o 	c #6B7D7E",
"p 	c #6D8080",
"q 	c #6F7F82",
"r 	c #6E8085",
"s 	c #6F8288",
"t 	c #738288",
"u 	c #74858B",
"v 	c #75868C",
"w 	c #7A8A8D",
"x 	c #7B8C90",
"y 	c #7D8D90",
"z 	c #808F91",
"A 	c #819194",
"B 	c #839396",
"C 	c #869597",
"D 	c #87979A",
"E 	c #89989A",
"F 	c #8A999D",
"G 	c #8D9B9E",
"H 	c #737577",
"I 	c #737778",
"J 	c #747778",
"K 	c #747879",
"L 	c #767B7D",
"M 	c #787E7F",
"N 	c #787F80",
"O 	c #798081",
"P 	c #7A8182",
"Q 	c #7C8383",
"R 	c #7D8686",
"S 	c #7D8787",
"T 	c #7E8787",
"U 	c #808888",
"V 	c #828A8A",
"W 	c #838B8B",
"X 	c #848C8C",
"Y 	c #848E8D",
"Z 	c #86908F",
"` 	c #879191",
" .	c #879291",
"..	c #879492",
"+.	c #899493",
"@.	c #8A9795",
"#.	c #8B9796",
"$.	c #889391",
"%.	c #879190",
"&.	c #858F8E",
"*.	c #838D8C",
"=.	c #838C8C",
"-.	c #818989",
";.	c #7F8787",
">.	c #7C8485",
",.	c #7B8283",
"'.	c #797F81",
").	c #787D7F",
"!.	c #777D7E",
"~.	c #757A7C",
"{.	c #232323",
"].	c #545754",
"^.	c #5E615E",
"/.	c #565B5C",
"(.	c #575C5E",
"_.	c #596060",
":.	c #5A6263",
"<.	c #5D6365",
"[.	c #5E6465",
"}.	c #606567",
"|.	c #616768",
"1.	c #646869",
"2.	c #646A6C",
"3.	c #666C6D",
"4.	c #676E6F",
"5.	c #676F70",
"6.	c #686F71",
"7.	c #697072",
"8.	c #6A7172",
"9.	c #6B7273",
"0.	c #6B7474",
"a.	c #6C7475",
"b.	c #6D7576",
"c.	c #6E7677",
"d.	c #6F7777",
"e.	c #6F7878",
"f.	c #6F7979",
"g.	c #717979",
"h.	c #727A7A",
"i.	c #6F7778",
"j.	c #6D7474",
"k.	c #6C7374",
"l.	c #697172",
"m.	c #5C6164",
"n.	c #5B6062",
"o.	c #595F60",
"p.	c #575D5F",
"q.	c #575B5D",
"r.	c #575B57",
"s.	c #494C49",
"t.	c #000000",
"u.	c #4E514F",
"v.	c #505251",
". + @ # $ % & * = - ; > , ' ) ! ~ ~ { { ] ^ / ( _ : < < < < [ [ [ } | 1 2 2 3 4 5 6 7 8 8 9 0 a b c d e f g & % $ h i j ",
". + @ # $ % & g k l m n o p q r s t u v w x y z A B C D E F G F E D C B A z y x w v u t s r q p o n m l k g & % $ h i j ",
". + @ # $ % & g k l m n o p q r s t u v w x y z A B C D E F G F E D C B A z y x w v u t s r q p o n m l k g & % $ h i j ",
". + @ # $ % & g k l m n o p q r s t u v w x y z A B C D E F G F E D C B A z y x w v u t s r q p o n m l k g & % $ h i j ",
". + @ # $ % & g k l m n o p q r s t u v w x y z A B C D E F G F E D C B A z y x w v u t s r q p o n m l k g & % $ h i j ",
". + @ # $ % & g k l m n o p q r s t u v w x y z A B C D E F G F E D C B A z y x w v u t s r q p o n m l k g & % $ h i j ",
". + @ # $ % & g k l m n o p q r s t u v w x y z A B C D E F G F E D C B A z y x w v u t s r q p o n m l k g & % $ h i j ",
". + @ # $ % & g k l m n o p q r s t u v w x y z A B C D E F G F E D C B A z y x w v u t s r q p o n m l k g & % $ h i j ",
". + @ # $ % & g k l m n o p q r s t u v w x y z A B C D E F G F E D C B A z y x w v u t s r q p o n m l k g & % $ h i j ",
". + @ # $ % & g k l m n o p q r s t u v w x y z A B C D E F G F E D C B A z y x w v u t s r q p o n m l k g & % $ h i j ",
". + H I J K ; L , M N O P Q Q R S T U V W X Y Y Z `  ...+.@.#.@.+.$.` %.&.Y *.=.W -.;.T S >.Q ,.P '.).!.L ~.- K I h i j ",
"{.].^./.(._.:.<.[.}.|.1.2.3.4.5.6.7.8.9.0.a.b.c.d.e.f.g.g.g.h.g.g.f.i.d.c.b.j.k.9.8.l.5.5.4.3.2.1.|.}.[.m.n.o.p.q.r.s.{.",
"t.{.u./.(._.:.<.[.}.|.1.2.3.4.5.6.7.8.9.0.a.b.c.d.e.f.g.g.g.h.g.g.f.i.d.c.b.j.k.9.8.l.5.5.4.3.2.1.|.}.[.m.n.o.p.q.v.{.t.",
"t.t.{.{.(._.:.<.[.}.|.1.2.3.4.5.6.7.8.9.0.a.b.c.d.e.f.g.g.g.h.g.g.f.i.d.c.b.j.k.9.8.l.5.5.4.3.2.1.|.}.[.m.n.o.p.{.{.t.t."};
