/* XPM */
static char * krell_swap_xpm[] = {
"7 12 7 1",
" 	c None",
".	c #FFFFFF",
"+	c #000000",
"@	c #9AAEC3",
"#	c #C2D4E6",
"$	c #BACCDF",
"%	c #93A7BC",
"   .+  ",
"   .+  ",
"   .+  ",
"   .+  ",
"   .+  ",
"   .+  ",
"   .+  ",
"   .+  ",
" @#.$% ",
" @#.$%+",
"   ++++",
"       "};
